<svg width="16" height="16" viewBox="0 0 16 16" fill="none" xmlns="http://www.w3.org/2000/svg">
<path d="M5.55812 0.667304C5.4961 0.665812 5.46065 0.668058 5.46065 0.668058C5.38434 0.670809 5.30934 0.688787 5.24 0.720946C5.17067 0.753105 5.10839 0.798803 5.05679 0.855381C5.00518 0.91196 4.96529 0.978289 4.93942 1.05051C4.91355 1.12273 4.90222 1.19941 4.9061 1.27607C4.90998 1.35273 4.92898 1.42785 4.962 1.49706C4.99503 1.56628 5.04141 1.62819 5.09846 1.67922C5.1555 1.73024 5.22207 1.76936 5.29429 1.79428C5.36651 1.8192 5.44294 1.82944 5.51913 1.82439C5.51913 1.82439 5.77897 1.82096 6.01552 1.95782C6.25207 2.09468 6.50075 2.29269 6.45043 3.14129C6.44921 3.16062 6.44896 3.17999 6.44968 3.19934C6.11255 3.48191 5.81871 3.84943 5.57012 4.26823C5.53011 4.2935 5.49334 4.32363 5.46065 4.35793L1.76771 8.18123L1.76621 8.18199C-0.48753 10.5439 0.92307 14.6667 4.18218 14.9323C4.30626 14.9424 4.43137 14.9474 4.5586 14.9474C5.21336 14.9474 5.83649 14.805 6.40244 14.5562C6.42142 14.5761 6.43861 14.5993 6.45792 14.6187C6.8734 15.0358 7.39621 15.3333 7.98534 15.3333C8.57447 15.3333 9.09727 15.0358 9.51275 14.6187C9.53514 14.5963 9.55529 14.5696 9.57723 14.5464C10.1484 14.8009 10.7778 14.9474 11.4406 14.9474C11.5678 14.9474 11.6937 14.9424 11.8177 14.9323C15.0768 14.6667 16.4874 10.5439 14.2337 8.18199L14.2322 8.18123L10.51 4.32778C10.4702 4.28539 10.4242 4.24931 10.3736 4.22074C10.1326 3.82415 9.84944 3.47656 9.52775 3.20537C9.52842 3.184 9.52792 3.16261 9.52625 3.14129C9.47592 2.29269 9.72535 2.09468 9.9619 1.95782C10.1985 1.82096 10.4583 1.82439 10.4583 1.82439C10.5346 1.82955 10.6111 1.81939 10.6835 1.7945C10.7558 1.76961 10.8225 1.73049 10.8796 1.67942C10.9368 1.62835 10.9832 1.56635 11.0163 1.49705C11.0493 1.42774 11.0683 1.35251 11.0721 1.27575C11.076 1.19898 11.0646 1.12222 11.0386 1.04993C11.0126 0.977646 10.9726 0.911285 10.9208 0.85472C10.869 0.798155 10.8066 0.752517 10.7371 0.72047C10.6676 0.688422 10.5924 0.670605 10.516 0.668058C10.516 0.668058 9.9479 0.629863 9.38678 0.954504C8.92431 1.22206 8.49635 1.79423 8.397 2.63775C8.26333 2.61188 8.12615 2.59705 7.98534 2.59705C7.84667 2.59705 7.71141 2.61114 7.57968 2.63624C7.47979 1.79358 7.05208 1.2219 6.5899 0.954504C6.16905 0.711023 5.74421 0.671779 5.55812 0.667304ZM7.98534 3.75489C8.48994 3.75489 9.05001 4.16208 9.5135 5.03184C9.66666 5.31925 9.77044 5.70531 9.88467 6.07058H6.08601C6.20024 5.70531 6.30401 5.31925 6.45718 5.03184C6.92067 4.16208 7.48073 3.75489 7.98534 3.75489ZM11.2891 6.79649L13.4021 8.98404C15.0359 10.6962 14.0624 13.5877 11.7248 13.7782C11.6308 13.7859 11.536 13.7895 11.4406 13.7895C11.0264 13.7895 10.634 13.711 10.2678 13.5777C10.3659 13.4002 10.4601 13.2169 10.5468 13.0222C11.1088 11.7595 11.4406 10.1551 11.4406 8.57924C11.4406 7.95799 11.3873 7.36066 11.2891 6.79649ZM4.67482 6.83343C4.58081 7.38664 4.5301 7.97171 4.5301 8.57924C4.5301 10.1551 4.86191 11.7595 5.4239 13.0222C5.51198 13.2201 5.60824 13.4059 5.70809 13.586C5.34839 13.7139 4.96383 13.7895 4.5586 13.7895C4.46315 13.7895 4.36914 13.7859 4.27516 13.7782C1.93864 13.5878 0.964182 10.6988 2.59478 8.9863L2.59703 8.98404L4.67482 6.83343ZM5.82806 7.22842H10.1426C10.2091 7.66696 10.2888 8.09782 10.2888 8.57924C10.2888 8.64368 10.2706 8.70751 10.2693 8.77222H5.70134C5.70005 8.70751 5.68185 8.64368 5.68185 8.57924C5.68185 8.09782 5.76161 7.66696 5.82806 7.22842ZM5.82057 9.93006H10.1501C10.0776 10.48 9.97358 10.9766 9.82843 11.4739H6.14224C5.99709 10.9766 5.89309 10.48 5.82057 9.93006ZM6.52766 12.6317H9.44301C9.21368 13.1227 8.95467 13.5429 8.69918 13.7993C8.42569 14.0739 8.19129 14.1755 7.98534 14.1755C7.77938 14.1755 7.54498 14.0739 7.27149 13.7993C7.016 13.5429 6.75699 13.1227 6.52766 12.6317Z" fill="#3C7E07"/>
</svg>
