<svg width="16" height="16" viewBox="0 0 16 16" fill="none" xmlns="http://www.w3.org/2000/svg">
<path d="M10.6667 0.666664C11.0347 0.666664 11.3334 0.965331 11.3334 1.33333V3.33333H14C14.368 3.33333 14.6667 3.632 14.6667 4V13.3333C14.6667 13.7013 14.368 14 14 14H2.00004C1.63204 14 1.33337 13.7013 1.33337 13.3333V4C1.33337 3.632 1.63204 3.33333 2.00004 3.33333H4.66671V1.33333C4.66671 0.965331 4.96537 0.666664 5.33337 0.666664H10.6667ZM13.3334 4.66666H2.66671V12.6667H13.3334V4.66666ZM8.66671 6V8H10.6667V9.33333H8.66604L8.66671 11.3333H7.33337L7.33271 9.33333H5.33337V8H7.33337V6H8.66671ZM10 2H6.00004V3.33333H10V2Z" fill="#3748E1"/>
</svg>
