<?xml version="1.0" encoding="utf-8"?>
<!-- Generator: Adobe Illustrator 25.2.0, SVG Export Plug-In . SVG Version: 6.00 Build 0)  -->
<svg version="1.1" id="Calque_1" xmlns="http://www.w3.org/2000/svg" xmlns:xlink="http://www.w3.org/1999/xlink" x="0px" y="0px"
     viewBox="0 0 200 200" style="enable-background:new 0 0 200 200;" xml:space="preserve">
<style type="text/css">
    .st0{stroke:#FFFFFF;stroke-miterlimit:10;}
    .st1{stroke:#000000;stroke-miterlimit:10;}
</style>
<g>
    <path class="st0" d="M147.75,98.2c0.05,28.8-23.61,52.78-52.18,52.87c-29.12,0.1-52.9-23.48-52.98-52.51
        C42.52,69.01,66.03,45.18,95.24,45.2C124.21,45.21,147.69,68.92,147.75,98.2z M56.9,97.98c-2.95,0.13-5.52,0.25-8.04,0.36
        c-0.93,17.98,10.94,35.71,28.46,43.08c16.11,6.78,36.81,3.55,47.28-7.74c-1.94-0.1-3.51-0.26-5.09-0.26
        c-6.83-0.03-13.66,0.06-20.49-0.05c-5.97-0.1-9.42-3.33-9.5-8.59c-0.08-5.55,3.36-8.82,9.65-8.91c6.99-0.1,14,0.11,20.98-0.17
        c1.38-0.06,2.7-1.76,4.05-2.7c-1.07-1.02-1.97-2.56-3.24-2.98c-6.18-2.05-8.82-5.09-8.22-10.07c0.6-5.01,4.43-7.73,10.96-7.76
        c5.75-0.02,11.51-0.01,17.72-0.01c-3-17.82-12.21-29.89-27.91-37.16c-11.27-5.22-28.97-5.52-38.89,1.97c2.9,0,5.33,0,7.77,0
        C91,57,94.96,59.61,95.18,65.43c0.23,6.02-3.74,8.82-12.53,9.43c-1.67,0.12-3.23,1.85-4.85,2.84c1.71,0.87,3.36,2.32,5.13,2.49
        c4.13,0.39,8.33-0.07,12.48,0.23c4.89,0.34,8.2,3.81,8.44,8.28c0.23,4.41-2.54,8.89-6.75,9.16c-7.39,0.47-14.84,0.13-22.5,0.13
        c0.14-2.17,0.24-3.77,0.37-5.81c6.28,0,12.25,0.18,18.2-0.12c1.58-0.08,3.08-1.62,4.61-2.49c-1.55-1.05-3.02-2.84-4.65-3.01
        c-4.45-0.45-8.99,0-13.47-0.3c-4.6-0.31-7.98-4.26-7.95-8.71c0.03-4.48,3.43-8.16,8.06-8.6c1.65-0.16,3.45,0.29,4.96-0.21
        c1.63-0.54,3-1.87,4.48-2.86c-1.46-0.96-2.88-2.66-4.38-2.75c-5.98-0.32-11.99-0.17-17.98-0.1c-1.1,0.01-2.52,0.13-3.25,0.79
        c-8.24,7.52-13.06,16.78-14.44,28.14c2.9,0.17,5.18,0.3,7.74,0.45C56.9,94.26,56.9,95.85,56.9,97.98z M141.67,98.16
        c-6.61,0-12.89-0.13-19.15,0.11c-1.29,0.05-2.52,1.52-3.78,2.33c1.13,1.14,2.06,2.88,3.41,3.3c5.66,1.76,8.53,4.97,8.04,9.7
        c-0.52,5.01-4.19,8.03-10.15,8.11c-6.81,0.09-13.63-0.11-20.43,0.16c-1.4,0.06-2.74,1.63-4.11,2.5c1.41,0.98,2.79,2.77,4.22,2.8
        c9.8,0.25,19.6,0.2,29.4,0.06c1.28-0.02,3-0.74,3.73-1.72C138.76,117.57,141.65,108.61,141.67,98.16z"/>
    <path class="st0" d="M22.01,76.57c8.99-26.08,25.79-43,51.34-51.84c0.56,1.19,1.02,2.01,1.34,2.88c0.27,0.74,0.38,1.54,0.65,2.7
        c-11.23,3.8-21.19,9.56-29.55,17.91c-8.4,8.38-14.12,18.37-18.01,29.97C25.95,77.69,24.29,77.22,22.01,76.57z"/>
    <path class="st0" d="M75.45,165.97c-0.54,1.81-1,3.33-1.44,4.81c-19.71-1.63-47.07-28.82-51.35-51.1c1.44-0.52,2.93-1.06,4.95-1.79
        C35.67,141.68,51.46,157.81,75.45,165.97z"/>
    <path d="M63.39,92.35c1.85,0,3.29,0,5.09,0c0,1.83,0,3.53,0,5.57c-1.57,0.08-3.14,0.16-5.09,0.26
        C63.39,96.1,63.39,94.3,63.39,92.35z"/>
    <path class="st1" d="M96.55,15.6l-4.16,4.16c-0.82,0.82-1.38,1.87-1.61,3.01c-0.23,1.14-0.11,2.32,0.33,3.4
        c0.44,1.07,1.2,1.99,2.17,2.64c0.97,0.65,2.1,0.99,3.27,0.99s2.3-0.34,3.27-0.99c0.97-0.65,1.72-1.56,2.17-2.64
        c0.44-1.07,0.56-2.26,0.33-3.4c-0.23-1.14-0.79-2.19-1.61-3.01L96.55,15.6z M96.55,13.23l5.34,5.34c1.06,1.06,1.78,2.4,2.07,3.87
        c0.29,1.47,0.14,2.99-0.43,4.37c-0.57,1.38-1.54,2.56-2.78,3.39c-1.24,0.83-2.7,1.27-4.2,1.27c-1.49,0-2.96-0.44-4.2-1.27
        c-1.24-0.83-2.21-2.01-2.78-3.39c-0.57-1.38-0.72-2.9-0.43-4.37c0.29-1.47,1.01-2.81,2.07-3.87L96.55,13.23z"/>
    <path class="st1" d="M89.83,166.35c2.93,0,5.36,2.14,5.81,4.95c0.99-0.98,2.35-1.59,3.85-1.59h3.78v2.1c0,3.01-2.44,5.46-5.46,5.46
        h-2.1v4.2h-1.68v-6.72h-1.68c-3.25,0-5.88-2.63-5.88-5.88v-2.52H89.83z M101.59,171.39h-2.1c-2.09,0-3.78,1.69-3.78,3.78v0.42h2.1
        c2.09,0,3.78-1.69,3.78-3.78V171.39z M89.83,168.03h-1.68v0.84c0,2.32,1.88,4.2,4.2,4.2h1.68v-0.84
        C94.03,169.91,92.15,168.03,89.83,168.03z"/>
    <path class="st1" d="M21.03,105.93c1.67,0,3.27-0.66,4.45-1.84c1.18-1.18,1.84-2.78,1.84-4.45c0-0.73-0.19-1.43-0.42-2.07
        c-1.4,1.38-2.46,2.07-3.19,2.07c3.35-5.88,1.51-8.4-3.53-11.76c0.42,4.2-2.35,6.11-3.48,7.17c-0.92,0.86-1.56,1.99-1.83,3.22
        c-0.27,1.23-0.17,2.52,0.29,3.69c0.47,1.17,1.27,2.18,2.32,2.89C18.54,105.55,19.77,105.93,21.03,105.93z M21.63,91.01
        c2.72,2.31,2.74,4.1,0.63,7.79c-0.64,1.12,0.17,2.51,1.46,2.51c0.58,0,1.16-0.17,1.78-0.5c-0.18,0.69-0.52,1.33-1,1.87
        c-0.47,0.54-1.06,0.96-1.72,1.23s-1.38,0.38-2.09,0.33c-0.71-0.05-1.4-0.27-2.02-0.64c-0.61-0.37-1.14-0.87-1.52-1.47
        c-0.39-0.6-0.63-1.28-0.71-2c-0.08-0.71,0.01-1.43,0.26-2.1c0.25-0.67,0.65-1.28,1.17-1.77c0.11-0.1,0.64-0.58,0.67-0.6
        c0.36-0.32,0.65-0.6,0.94-0.91C20.51,93.65,21.25,92.42,21.63,91.01L21.63,91.01z"/>
    <path class="st1" d="M175.9,92.02v1.68c0,8.08-4.51,11.76-10.08,11.76h-3.16c-0.14,0.77-0.2,1.6-0.2,2.52h-1.68
        c0-1.14,0.1-2.18,0.29-3.13c-0.19-1.09-0.29-2.56-0.29-4.42c0-4.64,3.76-8.4,8.4-8.4C170.86,92.02,172.54,92.86,175.9,92.02z
         M169.18,93.7c-3.71,0-6.72,3.01-6.72,6.72c0,0.3,0,0.6,0.01,0.88c1.05-1.66,2.6-2.97,4.61-4.13l0.83,1.46
        c-2.4,1.37-3.99,2.93-4.8,5.15h2.71c5.05,0,8.29-3.34,8.4-9.75c-1.15,0.11-2.22,0.04-3.54-0.16
        C169.71,93.72,169.52,93.7,169.18,93.7z"/>
    <path class="st0" d="M167.09,119.23c-8.99,26.08-25.79,43-51.34,51.84c-0.56-1.19-1.02-2.01-1.34-2.88
        c-0.27-0.74-0.38-1.54-0.65-2.7c11.23-3.8,21.19-9.56,29.55-17.91c8.4-8.38,14.12-18.37,18.01-29.97
        C163.15,118.11,164.8,118.58,167.09,119.23z"/>
    <path class="st0" d="M115.32,24.81c26.08,8.99,43,25.79,51.84,51.34c-1.19,0.56-2.01,1.02-2.88,1.34c-0.74,0.27-1.54,0.38-2.7,0.65
        c-3.8-11.23-9.56-21.19-17.91-29.55c-8.38-8.4-18.37-14.12-29.97-18.01C114.21,28.74,114.67,27.09,115.32,24.81z"/>
</g>
</svg>
