<svg width="16" height="16" viewBox="0 0 16 16" fill="none" xmlns="http://www.w3.org/2000/svg">
<path d="M8 2.06667L4.7 5.36667C4.04741 6.01933 3.603 6.85085 3.42297 7.75609C3.24294 8.66132 3.33539 9.5996 3.68861 10.4523C4.04183 11.305 4.63997 12.0338 5.40739 12.5466C6.17481 13.0593 7.07704 13.333 8 13.333C8.92296 13.333 9.82519 13.0593 10.5926 12.5466C11.36 12.0338 11.9582 11.305 12.3114 10.4523C12.6646 9.5996 12.7571 8.66132 12.577 7.75609C12.397 6.85085 11.9526 6.01933 11.3 5.36667L8 2.06667ZM8 0.181335L12.2427 4.424C13.0818 5.26312 13.6532 6.33222 13.8847 7.4961C14.1162 8.65999 13.9974 9.86638 13.5433 10.9627C13.0891 12.0591 12.3201 12.9962 11.3334 13.6554C10.3467 14.3147 9.18669 14.6666 8 14.6666C6.81332 14.6666 5.65328 14.3147 4.66659 13.6554C3.6799 12.9962 2.91086 12.0591 2.45673 10.9627C2.0026 9.86638 1.88378 8.65999 2.11529 7.4961C2.34679 6.33222 2.91823 5.26312 3.75734 4.424L8 0.181335Z" fill="#0F7BC2"/>
</svg>
