<svg width="16" height="16" viewBox="0 0 16 16" fill="none" xmlns="http://www.w3.org/2000/svg">
<path d="M4.00004 2C6.32671 2 8.25537 3.70267 8.60871 5.93C9.39204 5.14933 10.4734 4.66667 11.6667 4.66667H14.6667V6.33333C14.6667 8.72667 12.7267 10.6667 10.3334 10.6667H8.66671V14H7.33337V8.66667H6.00004C3.42271 8.66667 1.33337 6.57733 1.33337 4V2H4.00004ZM13.3334 6H11.6667C10.01 6 8.66671 7.34333 8.66671 9V9.33333H10.3334C11.99 9.33333 13.3334 7.99 13.3334 6.33333V6ZM4.00004 3.33333H2.66671V4C2.66671 5.84067 4.15937 7.33333 6.00004 7.33333H7.33337V6.66667C7.33337 4.826 5.84071 3.33333 4.00004 3.33333Z" fill="#9F6B04"/>
</svg>
