<svg width="107" height="107" viewBox="0 0 107 107" fill="none" xmlns="http://www.w3.org/2000/svg">
<path d="M20.0625 46.8125C16.3844 46.8125 13.375 49.8219 13.375 53.5C13.375 57.1781 16.3844 60.1875 20.0625 60.1875C23.7406 60.1875 26.75 57.1781 26.75 53.5C26.75 49.8219 23.7406 46.8125 20.0625 46.8125ZM86.9375 46.8125C83.2594 46.8125 80.25 49.8219 80.25 53.5C80.25 57.1781 83.2594 60.1875 86.9375 60.1875C90.6156 60.1875 93.625 57.1781 93.625 53.5C93.625 49.8219 90.6156 46.8125 86.9375 46.8125ZM53.5 46.8125C49.8219 46.8125 46.8125 49.8219 46.8125 53.5C46.8125 57.1781 49.8219 60.1875 53.5 60.1875C57.1781 60.1875 60.1875 57.1781 60.1875 53.5C60.1875 49.8219 57.1781 46.8125 53.5 46.8125Z" fill="#C8D2F7"/>
</svg>
