<svg width="84" height="100" viewBox="0 0 84 100" fill="none" xmlns="http://www.w3.org/2000/svg">
<path d="M15.5 0.3125C11.4488 0.3125 8.08132 3.24041 7.37079 7.08954C3.52166 7.80007 0.59375 11.1676 0.59375 15.2188V91.4062C0.59375 95.9725 4.30872 99.6875 8.875 99.6875H68.5C72.5512 99.6875 75.9187 96.7596 76.6292 92.9105C80.4783 92.1999 83.4062 88.8324 83.4062 84.7812V8.59375C83.4062 4.02747 79.6913 0.3125 75.125 0.3125H15.5ZM15.5 3.625H75.125C77.8644 3.625 80.0938 5.85431 80.0938 8.59375V84.7812C80.0938 86.9377 78.7042 88.7602 76.7812 89.4459V20.1875C76.7812 19.7287 76.5942 19.3163 76.2928 19.0165L64.7023 7.42596C64.4025 7.12453 63.99 6.9375 63.5312 6.9375H10.8353C11.521 5.01459 13.3436 3.625 15.5 3.625ZM8.875 10.25H61.875V20.1875C61.875 21.1034 62.617 21.8438 63.5312 21.8438H73.4688V91.4062C73.4688 94.1457 71.2394 96.375 68.5 96.375H8.875C6.13556 96.375 3.90625 94.1457 3.90625 91.4062V15.2188C3.90625 12.4793 6.13556 10.25 8.875 10.25ZM65.1875 12.592L71.1267 18.5312H65.1875V12.592ZM23.7812 13.5625C14.6487 13.5625 7.21875 20.9924 7.21875 30.125C7.21875 39.2576 14.6487 46.6875 23.7812 46.6875C27.7529 46.6875 31.4004 45.2802 34.2557 42.9415L50.7665 59.4523L53.1085 57.1102L36.5978 40.5995C38.9364 37.7441 40.3438 34.0967 40.3438 30.125C40.3438 20.9924 32.9138 13.5625 23.7812 13.5625ZM23.7812 16.875C31.087 16.875 37.0312 22.8193 37.0312 30.125C37.0312 37.4307 31.087 43.375 23.7812 43.375C16.4755 43.375 10.5312 37.4307 10.5312 30.125C10.5312 22.8193 16.4755 16.875 23.7812 16.875ZM23.7812 20.1875C21.0418 20.1875 18.8125 22.4168 18.8125 25.1562C18.8125 26.1152 19.0974 27.0018 19.5695 27.7603C16.1924 29.3503 13.8438 32.7767 13.8438 36.75C13.8438 37.6659 14.5857 38.4062 15.5 38.4062H32.0625C32.9767 38.4062 33.7188 37.6659 33.7188 36.75C33.7188 32.7767 31.3701 29.3503 27.993 27.7603C28.4651 27.0018 28.75 26.1152 28.75 25.1562C28.75 22.4168 26.5207 20.1875 23.7812 20.1875ZM23.7812 23.5C24.6938 23.5 25.4375 24.242 25.4375 25.1562C25.4375 26.0705 24.6938 26.8125 23.7812 26.8125C22.8687 26.8125 22.125 26.0705 22.125 25.1562C22.125 24.242 22.8687 23.5 23.7812 23.5ZM50.2812 25.1562V28.4688H55.25V25.1562H50.2812ZM58.5625 25.1562V28.4688H66.8438V25.1562H58.5625ZM23.7812 30.125C26.8619 30.125 29.4573 32.2384 30.196 35.0938H17.3665C18.1035 32.2384 20.7006 30.125 23.7812 30.125ZM50.2812 31.7812V35.0938H66.8438V31.7812H50.2812ZM50.2812 38.4062V41.7188H60.2188V38.4062H50.2812ZM63.5312 38.4062V41.7188H66.8438V38.4062H63.5312ZM50.2812 45.0312V48.3438H56.9062V45.0312H50.2812ZM60.2188 45.0312V48.3438H66.8438V45.0312H60.2188ZM17.1562 50C10.6008 50 7.21875 67.4138 7.21875 74.8438C7.21875 81.9557 9.95487 85.7002 15.5 86.3113V93.0625H18.8125V86.3113C21.8832 85.9718 24.086 84.6656 25.4375 82.3551C26.789 84.6656 28.9918 85.9735 32.0625 86.3113V93.0625H35.375V86.3113C40.9201 85.7002 43.6562 81.9557 43.6562 74.8438C43.6562 67.4138 40.2742 50 33.7188 50C29.8232 50 27.0474 56.1513 25.4375 62.7001C23.8276 56.1513 21.0518 50 17.1562 50ZM17.1562 53.3125C19.6141 53.3125 23.7812 65.5505 23.7812 74.8438C23.7812 81.2104 21.5089 82.713 18.8125 83.0377V71.5312H15.5V83.0377C12.8036 82.7114 10.5312 81.2087 10.5312 74.8438C10.5312 65.5505 14.6984 53.3125 17.1562 53.3125ZM33.7188 53.3125C36.1766 53.3125 40.3438 65.5505 40.3438 74.8438C40.3438 81.2104 38.0714 82.713 35.375 83.0377V71.5312H32.0625V83.0377C29.3661 82.7114 27.0938 81.2087 27.0938 74.8438C27.0938 65.5505 31.2609 53.3125 33.7188 53.3125ZM50.2812 68.2188V71.5312H58.5625V68.2188H50.2812ZM61.875 68.2188V71.5312H66.8438V68.2188H61.875ZM50.2812 74.8438V78.1562H66.8438V74.8438H50.2812ZM50.2812 81.4688V84.7812H53.5938V81.4688H50.2812ZM56.9062 81.4688V84.7812H66.8438V81.4688H56.9062ZM50.2812 88.0938V91.4062H56.9062V88.0938H50.2812ZM60.2188 88.0938V91.4062H66.8438V88.0938H60.2188Z" fill="#324176"/>
</svg>
