<svg width="84" height="84" viewBox="0 0 84 84" fill="none" xmlns="http://www.w3.org/2000/svg">
<path d="M57.2414 0.00082885C54.6677 0.0355805 52.2115 1.08423 50.4064 2.91905C48.6012 4.75388 47.5928 7.22675 47.6 9.80067C47.6 17.3689 56.1391 24.5726 56.5031 24.875C56.7548 25.085 57.0722 25.2 57.4 25.2C57.7278 25.2 58.0452 25.085 58.2969 24.875C58.6609 24.5726 67.2 17.3689 67.2 9.80067C67.1978 7.46708 66.363 5.21086 64.8457 3.43788C64.6012 3.16618 64.2603 3.0008 63.8956 2.97703C63.5309 2.95327 63.1713 3.073 62.8937 3.31067C62.616 3.54834 62.4423 3.88513 62.4095 4.24913C62.3768 4.61314 62.4876 4.97553 62.7184 5.25894C63.8015 6.52454 64.3977 8.1349 64.4 9.80067C64.4 14.7678 59.4706 19.9552 57.4 21.9137C55.3294 19.9538 50.4 14.7734 50.4 9.80067C50.3961 8.77223 50.6197 7.75566 51.0549 6.8238C51.49 5.89194 52.1259 5.06786 52.9169 4.41063C53.708 3.75339 54.6346 3.27926 55.6304 3.02221C56.6263 2.76517 57.6666 2.73157 58.677 2.92383C59.0421 2.99127 59.4191 2.9109 59.7249 2.7004C60.0308 2.4899 60.2406 2.16652 60.308 1.80139C60.3755 1.43625 60.2951 1.05928 60.0846 0.753406C59.8741 0.447529 59.5507 0.2378 59.1855 0.170357C58.5448 0.0491285 57.8935 -0.00766401 57.2414 0.00082885ZM57.4 5.60074C56.2861 5.60074 55.2178 6.04323 54.4302 6.83087C53.6425 7.61851 53.2 8.68678 53.2 9.80067C53.2 10.6313 53.4463 11.4433 53.9078 12.134C54.3693 12.8247 55.0253 13.363 55.7927 13.6809C56.5602 13.9988 57.4047 14.082 58.2194 13.9199C59.0341 13.7578 59.7825 13.3578 60.3698 12.7705C60.9572 12.1831 61.3572 11.4347 61.5193 10.62C61.6814 9.80532 61.5982 8.96086 61.2803 8.19342C60.9624 7.42598 60.4241 6.77005 59.7334 6.30855C59.0427 5.84706 58.2307 5.60074 57.4 5.60074ZM1.32618 8.39795C0.967347 8.4169 0.629538 8.57309 0.382677 8.8342C0.135816 9.09531 -0.00119385 9.44134 7.83848e-06 9.80067V74.1996C-0.000138933 74.4412 0.0622351 74.6787 0.181064 74.889C0.299894 75.0994 0.471134 75.2754 0.678133 75.4L14.6781 83.7998C14.8962 83.9307 15.1457 83.9997 15.4 83.9994C15.5505 83.9995 15.7 83.9754 15.843 83.9283L27.1469 80.1604C27.4997 80.0429 27.7914 79.7901 27.9578 79.4576C28.1242 79.125 28.1517 78.74 28.0342 78.3872C27.9167 78.0344 27.6639 77.7427 27.3313 77.5763C26.9988 77.4099 26.6138 77.3824 26.2609 77.4999L16.8 80.6553V46.2001C16.8 45.8288 16.6525 45.4727 16.39 45.2101C16.1274 44.9476 15.7713 44.8001 15.4 44.8001C15.0287 44.8001 14.6726 44.9476 14.4101 45.2101C14.1475 45.4727 14 45.8288 14 46.2001V55.062L11.0086 52.4042L8.32891 44.3571C8.23591 44.0783 8.05751 43.8358 7.81899 43.664C7.58047 43.4923 7.29394 43.3999 7.00001 43.4001H2.80001V12.2725L7.75469 15.2474L8.33438 20.4864L4.61016 24.2106C4.38904 24.4314 4.24818 24.72 4.21003 25.0302C4.17187 25.3404 4.23861 25.6544 4.39962 25.9223L8.59962 32.9222C8.70057 33.0895 8.83544 33.2339 8.99556 33.346C9.15568 33.458 9.3375 33.5354 9.5293 33.5729C9.61842 33.5909 9.70909 33.6001 9.80001 33.6003C10.1026 33.6005 10.3971 33.5026 10.6395 33.3214C12.1053 32.228 13.1908 31.4188 14 30.8113V40.6002C14 40.9714 14.1475 41.3275 14.4101 41.5901C14.6726 41.8526 15.0287 42.0001 15.4 42.0001C15.7713 42.0001 16.1274 41.8526 16.39 41.5901C16.6525 41.3275 16.8 40.9714 16.8 40.6002V32.1511C17.3404 32.8847 17.9192 33.6658 18.468 34.426C18.5872 34.5894 18.7403 34.7251 18.917 34.8236C19.0936 34.9221 19.2895 34.9812 19.4911 34.9968C19.6928 35.0124 19.8954 34.9841 20.0851 34.9139C20.2747 34.8437 20.447 34.7332 20.5898 34.5901L26.1898 28.9902C26.4524 28.7277 26.5999 28.3716 26.6 28.0004V24.6645L32.2 27.4644V30.0511L28.6234 32.43C28.3875 32.5867 28.2047 32.8113 28.0992 33.0742C27.9936 33.337 27.9702 33.6256 28.0322 33.902C28.0941 34.1784 28.2383 34.4295 28.4459 34.6221C28.6535 34.8148 28.9147 34.94 29.1949 34.9811L39.2 36.4658V41.7486L32.4297 40.6193C32.2006 40.5811 31.9656 40.6005 31.7458 40.6757C31.5261 40.7509 31.3285 40.8797 31.1709 41.0503C31.0133 41.2209 30.9007 41.428 30.8431 41.653C30.7855 41.878 30.7848 42.1138 30.841 42.3392L32.241 47.9391C32.2949 48.1549 32.3993 48.3547 32.5458 48.5221C32.6922 48.6895 32.8765 48.8196 33.0832 48.9016L39.2 51.3488V53.9327L34.1195 51.8984C33.9251 51.8208 33.7158 51.7877 33.5069 51.8017C33.298 51.8157 33.095 51.8763 32.9126 51.9792C32.7303 52.082 32.5733 52.2244 32.4533 52.396C32.3333 52.5675 32.2533 52.7637 32.2191 52.9703L30.9477 60.5936L26.209 62.4885L23.7672 51.4965C23.7139 51.2568 23.5986 51.0355 23.4328 50.8545C23.2669 50.6735 23.0564 50.5393 22.8224 50.4654C22.5883 50.3914 22.3389 50.3803 22.0992 50.4331C21.8595 50.486 21.6379 50.6009 21.4566 50.7664L19.5535 52.5C19.4077 52.6208 19.2879 52.77 19.2014 52.9385C19.1149 53.1069 19.0635 53.2912 19.0503 53.4802C19.037 53.6691 19.0623 53.8587 19.1245 54.0376C19.1867 54.2165 19.2845 54.3809 19.4121 54.5209C19.5397 54.6609 19.6943 54.7735 19.8667 54.852C20.0391 54.9305 20.2256 54.9732 20.4149 54.9775C20.6043 54.9818 20.7925 54.9477 20.9683 54.8771C21.1441 54.8066 21.3037 54.7011 21.4375 54.5671L21.5606 54.4605L23.8356 64.7005C23.904 65.0116 24.0765 65.2901 24.3246 65.49C24.5726 65.6898 24.8814 65.7991 25.2 65.7997C25.3778 65.7995 25.554 65.7662 25.7195 65.7013L32.7195 62.9013C32.9432 62.8119 33.14 62.6662 33.2909 62.4784C33.4417 62.2907 33.5416 62.0672 33.5809 61.8295L34.6992 55.1468L39.2 56.9487V73.1879L31.5738 75.739C31.3991 75.7972 31.2376 75.8892 31.0985 76.0098C30.9593 76.1304 30.8453 76.2772 30.7629 76.4419C30.5965 76.7744 30.569 77.1594 30.6865 77.5122C30.804 77.865 31.0568 78.1567 31.3894 78.3231C31.554 78.4055 31.7333 78.4547 31.917 78.4678C32.1006 78.4809 32.2851 78.4577 32.4598 78.3995L40.6 75.6761L65.357 83.9283C65.5315 83.9864 65.7158 84.0096 65.8992 83.9964C66.0827 83.9833 66.2617 83.9341 66.4262 83.8518L83.2262 75.4519C83.4587 75.3356 83.6543 75.1569 83.791 74.9357C83.9277 74.7145 84 74.4596 84 74.1996V50.4C84 50.0287 83.8525 49.6726 83.59 49.4101C83.3274 49.1475 82.9713 49 82.6 49C82.2287 49 81.8726 49.1475 81.61 49.4101C81.3475 49.6726 81.2 50.0287 81.2 50.4V66.1907L79.0234 66.9181L75.4004 60.8779C75.2624 60.6482 75.0613 60.463 74.8212 60.3442C74.581 60.2253 74.3117 60.1779 74.0454 60.2076C73.7791 60.2372 73.5269 60.3427 73.3187 60.5115C73.1105 60.6802 72.9552 60.9051 72.8711 61.1596L70.8859 67.1149L67.2 62.5076V51.1L71.4 47.95L76.1605 51.5211C76.3686 51.677 76.616 51.7718 76.875 51.795C77.1339 51.8183 77.3942 51.7689 77.6267 51.6525C77.8592 51.5362 78.0547 51.3573 78.1913 51.1361C78.3279 50.9149 78.4001 50.66 78.4 50.4V42.8642L81.2 41.4642V44.8001C81.2 45.1714 81.3475 45.5275 81.61 45.79C81.8726 46.0526 82.2287 46.2001 82.6 46.2001C82.9713 46.2001 83.3274 46.0526 83.59 45.79C83.8525 45.5275 84 45.1714 84 44.8001V9.80067C84 9.56201 83.939 9.3273 83.8228 9.11884C83.7066 8.91039 83.5391 8.7351 83.3361 8.60962C83.133 8.48414 82.9013 8.41265 82.6629 8.40192C82.4245 8.3912 82.1873 8.4416 81.9738 8.54834L68.2773 15.4006C67.9499 15.5694 67.7022 15.8604 67.5879 16.2106C67.4736 16.5607 67.5019 16.9419 67.6666 17.2713C67.8314 17.6008 68.1193 17.8521 68.468 17.9707C68.8167 18.0894 69.1982 18.0658 69.5297 17.9052L81.2 12.0647V18.4521L75.3211 19.6278C75.0046 19.6922 74.72 19.864 74.5157 20.1142C74.3114 20.3643 74.1998 20.6775 74.2 21.0005V27.7324L71.7227 33.9229L67.2 35.733V22.4005C67.2 22.0292 67.0525 21.6731 66.7899 21.4105C66.5274 21.148 66.1713 21.0005 65.8 21.0005C65.4287 21.0005 65.0726 21.148 64.8101 21.4105C64.5475 21.6731 64.4 22.0292 64.4 22.4005V48.3328L59.3195 46.2985C59.107 46.2136 58.8769 46.182 58.6493 46.2067C58.4218 46.2313 58.2037 46.3113 58.0143 46.4398C57.8249 46.5682 57.6698 46.7412 57.5627 46.9434C57.4556 47.1457 57.3997 47.3712 57.4 47.6V54.2062L53.5391 53.241C53.2684 53.1736 52.9838 53.1885 52.7218 53.284C52.4597 53.3794 52.2321 53.5509 52.0682 53.7766C51.9043 54.0022 51.8115 54.2716 51.8017 54.5503C51.7919 54.8291 51.8656 55.1044 52.0133 55.3409L59.0133 66.5407C59.139 66.7422 59.3138 66.9084 59.5214 67.0237C59.729 67.1389 59.9625 67.1995 60.2 67.1997C60.369 67.1995 60.5367 67.1689 60.6949 67.1095L64.4 65.7095V80.6581L57.977 78.5171L57.4 71.2875C57.3756 70.9841 57.2529 70.6969 57.0506 70.4695C56.8483 70.242 56.5774 70.0867 56.2789 70.027L50.4 68.8512V64.3997C50.3999 64.0285 50.2524 63.6724 49.9898 63.4099L42 55.4202V51.8H47.6C47.81 51.8001 48.0174 51.753 48.2067 51.6621C48.396 51.5712 48.5625 51.4389 48.6937 51.275L54.2938 44.2751C54.4111 44.1285 54.4977 43.9599 54.5486 43.7792C54.5994 43.5985 54.6134 43.4094 54.5897 43.2232C54.5659 43.0369 54.505 42.8574 54.4105 42.6952C54.316 42.533 54.1898 42.3915 54.0395 42.279L48.4395 38.0791C48.2166 37.9121 47.949 37.8153 47.6709 37.8012C47.3928 37.7871 47.1167 37.8562 46.8781 37.9998L42 40.9283V35.5608L46.3395 27.809L52.057 35.8123C52.2392 36.0677 52.5018 36.2544 52.8028 36.3427C53.1037 36.4309 53.4256 36.4156 53.7168 36.299L60.7168 33.4991C61.0491 33.3527 61.3116 33.083 61.449 32.7469C61.5863 32.4107 61.5878 32.0344 61.453 31.6972C61.3183 31.3599 61.0579 31.0882 60.7267 30.9393C60.3955 30.7903 60.0194 30.7758 59.6777 30.8987L53.7004 33.2913L47.3402 24.3883C47.2033 24.196 47.02 24.0413 46.8073 23.9389C46.5945 23.8364 46.3594 23.7894 46.1236 23.8022C45.8878 23.815 45.6592 23.8873 45.4588 24.0122C45.2585 24.1372 45.093 24.3108 44.9777 24.5168L42 29.8324V11.7448L43.2606 12.1631C43.6134 12.2802 43.9982 12.2524 44.3305 12.0858C44.6628 11.9191 44.9153 11.6273 45.0324 11.2745C45.1495 10.9217 45.1217 10.5368 44.9551 10.2045C44.7884 9.87221 44.4966 9.61974 44.1438 9.50262L41.0484 8.47178C40.7609 8.37588 40.45 8.37588 40.1625 8.47178L15.5668 16.6693L2.12735 8.6003C1.88674 8.45378 1.60751 8.38326 1.32618 8.39795ZM57.3836 8.40069C57.3891 8.40066 57.3945 8.40066 57.4 8.40069C57.7713 8.40069 58.1274 8.54819 58.3899 8.81073C58.6525 9.07328 58.8 9.42937 58.8 9.80067C58.8 10.0769 58.7183 10.3469 58.5651 10.5767C58.412 10.8066 58.1943 10.986 57.9395 11.0924C57.6846 11.1989 57.404 11.2275 57.1329 11.1748C56.8617 11.1221 56.6123 10.9904 56.4158 10.7963C56.2194 10.6021 56.0848 10.3542 56.0289 10.0837C55.9731 9.81323 55.9985 9.53227 56.1019 9.27619C56.2054 9.02011 56.3823 8.80035 56.6103 8.64456C56.8384 8.48878 57.1074 8.40392 57.3836 8.40069ZM39.2 11.7448V33.6331L33.2035 32.7472L34.3766 31.9651C34.5683 31.8373 34.7256 31.6641 34.8343 31.4609C34.9431 31.2577 35 31.0308 35 30.8003V26.6004C35 26.3404 34.9277 26.0855 34.791 25.8643C34.6543 25.6431 34.4587 25.4644 34.2262 25.3481L25.8262 21.1481C25.6127 21.0414 25.3755 20.991 25.1371 21.0017C24.8987 21.0124 24.667 21.0839 24.4639 21.2094C24.2609 21.3349 24.0934 21.5102 23.9772 21.7186C23.861 21.9271 23.8 22.1618 23.8 22.4005V27.4207L19.7668 31.4538C18.2464 29.3735 17.3684 28.1899 16.8 27.5109V19.2095L39.2 11.7448ZM47.6 16.8005C47.2287 16.8005 46.8726 16.948 46.6101 17.2106C46.3475 17.4731 46.2 17.8292 46.2 18.2005C46.2 18.5718 46.3475 18.9279 46.6101 19.1905C46.8726 19.453 47.2287 19.6005 47.6 19.6005C47.9713 19.6005 48.3274 19.453 48.59 19.1905C48.8525 18.9279 49 18.5718 49 18.2005C49 17.8292 48.8525 17.4731 48.59 17.2106C48.3274 16.948 47.9713 16.8005 47.6 16.8005ZM10.7707 17.0576L14 18.9935V27.3113C13.2076 27.9091 11.6201 29.0925 10.2047 30.1523L7.36368 25.4164L10.7899 21.9903C10.9382 21.8421 11.0513 21.6624 11.1209 21.4646C11.1904 21.2667 11.2147 21.0558 11.1918 20.8474L10.7707 17.0576ZM33.6 18.2005C33.2287 18.2005 32.8726 18.348 32.6101 18.6106C32.3475 18.8731 32.2 19.2292 32.2 19.6005C32.2 19.9718 32.3475 20.3279 32.6101 20.5904C32.8726 20.853 33.2287 21.0005 33.6 21.0005C33.9713 21.0005 34.3274 20.853 34.59 20.5904C34.8525 20.3279 35 19.9718 35 19.6005C35 19.2292 34.8525 18.8731 34.59 18.6106C34.3274 18.348 33.9713 18.2005 33.6 18.2005ZM81.2 21.3095V38.3361L76.3738 40.7478C76.1413 40.8641 75.9457 41.0429 75.809 41.264C75.6723 41.4852 75.6 41.7401 75.6 42.0001V47.6L72.2394 45.079C71.9972 44.8975 71.7027 44.7994 71.4 44.7994C71.0973 44.7994 70.8028 44.8975 70.5605 45.079L67.2 47.6V38.749L73.3195 36.3018C73.4958 36.2307 73.6559 36.1249 73.7903 35.9905C73.9246 35.8561 74.0305 35.696 74.1016 35.5198L76.9016 28.5199C76.9667 28.3544 77.0001 28.1782 77 28.0004V22.1489L81.2 21.3095ZM70 25.2004C69.6287 25.2004 69.2726 25.3479 69.01 25.6104C68.7475 25.873 68.6 26.2291 68.6 26.6004C68.6 26.9717 68.7475 27.3278 69.01 27.5903C69.2726 27.8529 69.6287 28.0004 70 28.0004C70.3713 28.0004 70.7274 27.8529 70.99 27.5903C71.2525 27.3278 71.4 26.9717 71.4 26.6004C71.4 26.2291 71.2525 25.873 70.99 25.6104C70.7274 25.3479 70.3713 25.2004 70 25.2004ZM54.6 26.6004C54.2287 26.6004 53.8726 26.7479 53.6101 27.0104C53.3475 27.273 53.2 27.6291 53.2 28.0004C53.2 28.3717 53.3475 28.7277 53.6101 28.9903C53.8726 29.2528 54.2287 29.4003 54.6 29.4003C54.9713 29.4003 55.3274 29.2528 55.59 28.9903C55.8525 28.7277 56 28.3717 56 28.0004C56 27.6291 55.8525 27.273 55.59 27.0104C55.3274 26.7479 54.9713 26.6004 54.6 26.6004ZM47.5125 40.8791L51.2039 43.6489L46.9273 49H42V44.1931L47.5125 40.8791ZM23.8 42.0001C23.4287 42.0001 23.0726 42.1476 22.8101 42.4102C22.5475 42.6727 22.4 43.0288 22.4 43.4001C22.4 43.7714 22.5475 44.1275 22.8101 44.39C23.0726 44.6526 23.4287 44.8001 23.8 44.8001C24.1713 44.8001 24.5274 44.6526 24.79 44.39C25.0525 44.1275 25.2 43.7714 25.2 43.4001C25.2 43.0288 25.0525 42.6727 24.79 42.4102C24.5274 42.1476 24.1713 42.0001 23.8 42.0001ZM34.0758 43.731L39.2 44.5868V48.3328L34.784 46.5665L34.0758 43.731ZM2.80001 46.2001H5.99102L8.4711 53.6429C8.54929 53.8749 8.68694 54.0823 8.87032 54.2445L14 58.8135V80.1276L2.80001 73.4066V46.2001ZM60.2 49.6672L64.4 51.3488V62.7209L60.7797 64.0853L56.2242 56.7983L58.4664 57.3589C58.6725 57.4094 58.8873 57.4125 59.0948 57.3678C59.3022 57.3231 59.4967 57.2319 59.6637 57.101C59.8307 56.9701 59.9658 56.8029 60.0587 56.6122C60.1516 56.4214 60.1999 56.2121 60.2 55.9999V49.6672ZM71.4 54.5999C71.0287 54.5999 70.6726 54.7474 70.41 55.01C70.1475 55.2725 70 55.6286 70 55.9999C70 56.3712 70.1475 56.7273 70.41 56.9898C70.6726 57.2524 71.0287 57.3999 71.4 57.3999C71.7713 57.3999 72.1274 57.2524 72.3899 56.9898C72.6525 56.7273 72.8 56.3712 72.8 55.9999C72.8 55.6286 72.6525 55.2725 72.3899 55.01C72.1274 54.7474 71.7713 54.5999 71.4 54.5999ZM42 59.3795L47.6 64.9794V69.9997C47.5998 70.3227 47.7114 70.6358 47.9157 70.886C48.12 71.1361 48.4046 71.3079 48.7211 71.3723L54.6848 72.5645L55.0867 77.5546L42 73.1906V59.3795ZM8.40001 60.0139C8.0287 60.0139 7.67261 60.1614 7.41006 60.4239C7.14751 60.6865 7.00001 61.0426 7.00001 61.4139C7.00001 61.7852 7.14751 62.1413 7.41006 62.4038C7.67261 62.6663 8.0287 62.8138 8.40001 62.8138C8.77131 62.8138 9.12741 62.6663 9.38996 62.4038C9.65251 62.1413 9.80001 61.7852 9.80001 61.4139C9.80001 61.0426 9.65251 60.6865 9.38996 60.4239C9.12741 60.1614 8.77131 60.0139 8.40001 60.0139ZM74.5664 64.9302L77.1996 69.3215C77.3636 69.5946 77.6158 69.8035 77.9146 69.9139C78.2134 70.0242 78.5408 70.0294 78.843 69.9286L81.2 69.1438V73.3355L67.2 80.3354V66.9892L70.3063 70.8746C70.4375 71.0386 70.604 71.1709 70.7933 71.2618C70.9826 71.3526 71.19 71.3998 71.4 71.3996C71.4825 71.3999 71.5649 71.3926 71.6461 71.3778C71.894 71.3337 72.1254 71.2235 72.316 71.059C72.5065 70.8944 72.6492 70.6815 72.7289 70.4426L74.5664 64.9302ZM33.6 67.1997C33.2287 67.1997 32.8726 67.3472 32.6101 67.6097C32.3475 67.8723 32.2 68.2284 32.2 68.5997C32.2 68.971 32.3475 69.3271 32.6101 69.5896C32.8726 69.8522 33.2287 69.9997 33.6 69.9997C33.9713 69.9997 34.3274 69.8522 34.59 69.5896C34.8525 69.3271 35 68.971 35 68.5997C35 68.2284 34.8525 67.8723 34.59 67.6097C34.3274 67.3472 33.9713 67.1997 33.6 67.1997ZM9.80001 69.9997C9.4287 69.9997 9.07261 70.1472 8.81006 70.4097C8.54751 70.6722 8.40001 71.0283 8.40001 71.3996C8.40001 71.7709 8.54751 72.127 8.81006 72.3896C9.07261 72.6521 9.4287 72.7996 9.80001 72.7996C10.1713 72.7996 10.5274 72.6521 10.79 72.3896C11.0525 72.127 11.2 71.7709 11.2 71.3996C11.2 71.0283 11.0525 70.6722 10.79 70.4097C10.5274 70.1472 10.1713 69.9997 9.80001 69.9997ZM22.4 69.9997C22.0287 69.9997 21.6726 70.1472 21.4101 70.4097C21.1475 70.6722 21 71.0283 21 71.3996C21 71.7709 21.1475 72.127 21.4101 72.3896C21.6726 72.6521 22.0287 72.7996 22.4 72.7996C22.7713 72.7996 23.1274 72.6521 23.39 72.3896C23.6525 72.127 23.8 71.7709 23.8 71.3996C23.8 71.0283 23.6525 70.6722 23.39 70.4097C23.1274 70.1472 22.7713 69.9997 22.4 69.9997Z" fill="#324176"/>
</svg>
