<svg width="12" height="12" viewBox="0 0 12 12" fill="none" xmlns="http://www.w3.org/2000/svg">
<path d="M10 11H9V10C9 9.60218 8.84196 9.22064 8.56066 8.93934C8.27936 8.65804 7.89782 8.5 7.5 8.5H4.5C4.10218 8.5 3.72064 8.65804 3.43934 8.93934C3.15804 9.22064 3 9.60218 3 10V11H2V10C2 9.33696 2.26339 8.70107 2.73223 8.23223C3.20107 7.76339 3.83696 7.5 4.5 7.5H7.5C8.16304 7.5 8.79893 7.76339 9.26777 8.23223C9.73661 8.70107 10 9.33696 10 10V11ZM6 6.5C5.60603 6.5 5.21593 6.4224 4.85195 6.27164C4.48797 6.12087 4.15726 5.8999 3.87868 5.62132C3.6001 5.34274 3.37913 5.01203 3.22836 4.64805C3.0776 4.28407 3 3.89397 3 3.5C3 3.10603 3.0776 2.71593 3.22836 2.35195C3.37913 1.98797 3.6001 1.65726 3.87868 1.37868C4.15726 1.1001 4.48797 0.879125 4.85195 0.728361C5.21593 0.577597 5.60603 0.5 6 0.5C6.79565 0.5 7.55871 0.81607 8.12132 1.37868C8.68393 1.94129 9 2.70435 9 3.5C9 4.29565 8.68393 5.05871 8.12132 5.62132C7.55871 6.18393 6.79565 6.5 6 6.5ZM6 5.5C6.53043 5.5 7.03914 5.28929 7.41421 4.91421C7.78929 4.53914 8 4.03043 8 3.5C8 2.96957 7.78929 2.46086 7.41421 2.08579C7.03914 1.71071 6.53043 1.5 6 1.5C5.46957 1.5 4.96086 1.71071 4.58579 2.08579C4.21071 2.46086 4 2.96957 4 3.5C4 4.03043 4.21071 4.53914 4.58579 4.91421C4.96086 5.28929 5.46957 5.5 6 5.5Z" fill="#3C5097"/>
</svg>
