<svg width="341" height="541" viewBox="0 0 341 541" fill="none" xmlns="http://www.w3.org/2000/svg">
<g clip-path="url(#clip0_536_33963)">
<path d="M-18.6609 95.9382C-29.7555 121.605 -59.564 133.416 -85.2402 122.318C-110.916 111.219 -122.737 81.4147 -111.642 55.7474C-100.548 30.0801 -70.7393 18.2696 -45.0632 29.368C-19.387 40.4664 -7.56633 70.2709 -18.6609 95.9382Z" fill="#FAFCFF"/>
<path d="M52.2236 378.728C41.1291 404.395 11.3205 416.206 -14.3556 405.108C-40.0317 394.009 -51.8524 364.205 -40.7579 338.537C-29.6633 312.87 0.145245 301.06 25.8214 312.158C51.4975 323.256 63.3182 353.061 52.2236 378.728Z" fill="#FAFCFF"/>
<path d="M30.8628 369.495C24.8658 383.369 8.75325 389.753 -5.12562 383.754C-19.0045 377.755 -25.394 361.645 -19.397 347.77C-13.4 333.896 2.7126 327.512 16.5915 333.511C30.4703 339.511 36.8598 355.621 30.8628 369.495Z" fill="#EEF3FC"/>
<path d="M197.384 83.9313C190.45 99.9734 171.819 107.355 155.772 100.418C139.724 93.4819 132.336 74.8541 139.27 58.8121C146.204 42.77 164.835 35.3885 180.882 42.3249C196.93 49.2614 204.318 67.8892 197.384 83.9313Z" fill="#FAFCFF"/>
<path d="M184.032 78.1603C180.284 86.8313 170.214 90.8211 161.541 87.0718C152.867 83.3226 148.873 73.254 152.621 64.583C156.369 55.912 166.439 51.9222 175.113 55.6715C183.787 59.4207 187.78 69.4893 184.032 78.1603Z" fill="#EEF3FC"/>
<path d="M58.9915 196.481C55.2436 205.151 45.1736 209.141 36.4996 205.392C27.8257 201.643 23.8324 191.574 27.5804 182.903C31.3284 174.232 41.3983 170.242 50.0723 173.992C58.7462 177.741 62.7395 187.81 58.9915 196.481Z" fill="#EEF3FC"/>
<path d="M173.435 287.317C169.687 295.988 159.617 299.977 150.943 296.228C142.269 292.479 138.276 282.41 142.024 273.739C145.772 265.068 155.842 261.079 164.516 264.828C173.19 268.577 177.183 278.646 173.435 287.317Z" fill="#EEF3FC"/>
<path d="M-64.4565 69.7612L-61.5798 71.955L106.801 -148.774L103.924 -150.968L-64.4565 69.7612Z" fill="#EEF3FC"/>
<path d="M-65.0044 87.5872L44.648 194.08L47.1683 191.486L-62.484 84.9933L-65.0044 87.5872Z" fill="#EEF3FC"/>
<path d="M42.1588 191.12L159.203 285.057L161.467 282.237L44.423 188.3L42.1588 191.12Z" fill="#EEF3FC"/>
<path d="M107.599 -135.86L166.129 70.6767L169.61 69.6916L111.08 -136.845L107.599 -135.86Z" fill="#EEF3FC"/>
<path d="M39.1478 195.033L41.6789 197.62L164.611 77.4125L162.08 74.8253L39.1478 195.033Z" fill="#EEF3FC"/>
<path d="M-148.191 286.19L-149.626 289.51L23.0541 364.15L24.489 360.83L-148.191 286.19Z" fill="#EEF3FC"/>
<path d="M-169.78 415.248L-168.742 418.713L0.967301 367.924L-0.0708724 364.459L-169.78 415.248Z" fill="#EEF3FC"/>
<path d="M168.108 69.7332L170.887 72.0461L273.395 -51.0773L270.615 -53.3902L168.108 69.7332Z" fill="#EEF3FC"/>
</g>
<defs>
<clipPath id="clip0_536_33963">
<rect width="697" height="377" fill="white" transform="matrix(-0.396766 0.91792 0.91792 0.396766 -5.45398 -249)"/>
</clipPath>
</defs>
</svg>
