<svg width="22" height="20" viewBox="0 0 22 20" fill="none" xmlns="http://www.w3.org/2000/svg">
    <path fill-rule="evenodd" clip-rule="evenodd"
          d="M18.6788 2.26272C15.8654 2.68648 15.3844 4.50475 12.993 1.69782C10.2566 -0.167728 7.24477 0.628929 4.46722 0.0661829C1.68967 -0.496563 1.35331 2.67788 3.06412 3.96887C4.77456 5.25985 7.60119 3.27645 7.00657 4.59717C6.4123 5.91753 4.84477 7.97472 2.33803 6.34773C-0.169078 4.72075 0.175878 9.14606 0.00357921 11.6002C-0.169078 14.0542 5.95845 13.8859 6.77086 13.8855C7.58292 13.8855 4.7563 8.34117 6.52585 10.7362C8.49134 11.367 9.27403 20.157 11.7156 19.2407C14.3498 18.2517 19.8777 15.549 19.8462 12.7676C19.8143 9.98571 17.1761 11.4375 15.3733 11.2083C13.6685 8.03812 12.1623 8.10224 16.4697 10.0187C20.7775 11.9354 22.2122 9.92087 21.0133 8.09866C19.8143 6.27645 21.4922 1.8386 18.6788 2.26272ZM18.8687 3.74391C18.8876 3.81591 18.9063 3.89723 18.9159 3.96206C18.9693 4.33102 18.9797 4.74869 18.9919 5.17711C19.0306 6.55693 19.1577 7.9937 19.7663 8.91896C19.8258 9.00923 19.8756 9.14893 19.9028 9.23705C19.8104 9.26248 19.6589 9.2983 19.5371 9.30153C18.9159 9.31836 18.1032 9.11168 17.0765 8.65496C15.1415 7.79382 14.2936 7.30236 14.1073 7.2497C13.6141 7.11108 13.2741 7.22965 13.0821 7.31203C12.6763 7.48612 12.4173 7.77556 12.2722 8.15311C12.2146 8.30248 11.976 9.00493 12.6197 9.80409C12.8536 10.0946 13.4432 10.7705 14.0586 11.915C14.2872 12.3399 14.7066 12.6279 15.1848 12.6888C15.84 12.7722 16.5872 12.6913 17.3119 12.6017C17.6267 12.5627 18.0974 12.5501 18.3313 12.5465C18.3424 12.621 18.3528 12.7099 18.3535 12.7844C18.3568 13.053 18.2164 13.3067 18.0373 13.5656C17.7407 13.9955 17.313 14.4053 16.8226 14.7986C15.2378 16.0699 13.023 17.123 11.5343 17.7108C11.3538 17.4125 10.9881 16.7849 10.7889 16.2784C10.1072 14.545 9.50758 12.3492 8.79868 11.0507C8.41791 10.3529 7.96298 9.8589 7.50089 9.56338C7.03916 9.00815 6.68382 8.80756 6.54018 8.75132C5.81731 8.46797 5.30471 8.7069 4.93504 9.04935C4.7151 9.25317 4.37767 9.6712 4.44824 10.3959C4.47331 10.6538 4.63952 11.2233 4.86913 11.8731C4.92 12.0178 4.97731 12.1908 5.03534 12.3717C4.2283 12.3338 3.27833 12.2406 2.46161 12.0228C2.20119 11.9533 1.95653 11.8713 1.74483 11.7671C1.66495 11.7277 1.55749 11.6521 1.49803 11.6077C1.55928 10.6552 1.54818 9.42833 1.66137 8.38344C1.68215 8.19287 1.72979 7.95932 1.77743 7.75514C2.78256 8.34475 3.69098 8.49806 4.48191 8.42248C6.41194 8.23765 7.77636 6.52326 8.36776 5.20971C8.73313 4.39765 8.55868 3.84851 8.38997 3.52612C8.21946 3.20051 7.96083 2.94618 7.59295 2.78356C7.29098 2.64994 6.6763 2.59048 5.89289 2.74988C5.54042 2.82188 5.09767 2.92899 4.64346 2.93508C4.41098 2.9383 4.16418 2.92935 3.96286 2.77747C3.73862 2.60839 3.59964 2.36194 3.54125 2.11084C3.49182 1.89985 3.44059 1.65985 3.59964 1.53985C3.72824 1.44242 3.92239 1.4786 4.17062 1.52875C5.62101 1.82284 7.13158 1.77305 8.63785 1.88194C9.77409 1.96433 10.9146 2.1438 11.9982 2.82977C13.1373 4.11932 14.03 4.56027 14.7894 4.68493C15.4119 4.78702 16.0026 4.69138 16.6492 4.46212C17.2238 4.25866 17.8821 3.89794 18.8687 3.74391Z"
          fill="#E56934"/>
</svg>
