<svg width="24" height="24" viewBox="0 0 24 24" fill="none" xmlns="http://www.w3.org/2000/svg">
<path d="M11.3895 3.4874C11.3975 3.78454 11.4852 4.07749 11.6424 4.32866C12.0774 5.02364 12.7385 5.49421 13.2705 5.87116C13.4093 5.96979 13.5447 6.06507 13.665 6.16078C13.7373 6.22722 13.8163 6.29409 13.8961 6.35928L13.958 6.40692C14.0303 6.48006 14.1089 6.54525 14.1937 6.60251C14.533 6.83319 14.9246 6.95397 15.3237 6.95397C15.5507 6.95397 15.7801 6.91594 16.0053 6.83821C16.2318 6.76173 16.437 6.63134 16.6063 6.45958L16.6865 6.37684L16.7684 6.29409C16.7898 6.27194 16.8098 6.24979 16.8315 6.22722C16.9285 6.11606 17.015 5.99821 17.0919 5.87576C17.2708 6.35761 17.5315 6.83487 17.9261 7.20555C18.1467 7.42161 18.4087 7.60131 18.6862 7.73003C18.7276 7.77642 18.7987 7.8717 18.8526 7.94484C18.9311 8.0514 19.0206 8.17218 19.133 8.30591C19.2024 8.5366 19.3352 8.85922 19.6186 9.14716C19.7022 9.23158 19.8301 9.34107 20.001 9.43803C20.1769 9.92949 20.4452 10.2446 20.6178 10.4498C20.65 10.4878 20.6872 10.5259 20.7148 10.5672C20.7549 10.6387 20.8013 10.7072 20.8518 10.7724C20.8815 10.8104 20.892 10.8234 20.9062 10.9124C20.9292 11.0507 20.9676 11.1811 21.0215 11.3036C21.0462 11.4549 21.0541 11.714 20.9847 11.8903C20.9137 12.0859 20.8552 12.2911 20.7996 12.498C20.7457 12.6969 20.6947 12.8845 20.6391 12.9736C20.6132 13.0162 20.5886 13.0609 20.5668 13.1056L20.0829 14.0915C20.0348 14.1884 19.9797 14.2774 19.9241 14.3681C19.7991 14.575 19.6432 14.8341 19.5045 15.1634C19.4786 15.2253 19.4552 15.2888 19.4385 15.354C19.3754 15.5801 19.349 15.7882 19.3411 15.9729C18.9391 16.2495 18.7121 16.6533 18.5997 16.8522L18.5968 16.8584C18.5876 16.8681 18.578 16.8777 18.5688 16.8873C18.438 16.8969 18.2407 16.9032 17.9444 16.9032C17.7397 16.9032 17.5407 16.8998 17.3727 16.8981L17.1166 16.8952C17.0798 16.8873 17.0321 16.876 16.9766 16.8664C16.9377 16.8555 16.8992 16.8426 16.8608 16.8317C16.8545 16.83 16.8499 16.8284 16.8437 16.8267C16.7885 16.6612 16.7066 16.4547 16.577 16.2416C16.4847 16.0761 16.3781 15.9395 16.2828 15.8266C16.2243 15.5132 16.0747 15.2219 15.8511 14.9946C15.8047 14.9469 15.7245 14.8658 15.6138 14.7814C15.6459 14.5925 15.6631 14.3999 15.6631 14.2089C15.6631 13.5682 15.2899 12.9894 14.7165 12.7429C14.5268 12.6601 14.3249 12.6187 14.1243 12.6187C13.7269 12.6187 13.3366 12.778 13.0424 13.0768C13.0315 13.0864 13.0206 13.0977 13.0114 13.1069C12.296 12.4424 11.2942 12.0717 10.1333 12.0717C9.64934 12.0717 9.16038 12.1386 8.67937 12.269C8.6288 12.2736 8.57949 12.2752 8.53017 12.2752C8.4328 12.2752 8.3371 12.2706 8.24181 12.2644C8.09513 12.2577 7.95053 12.2497 7.80092 12.2497C7.53555 12.2497 7.2919 12.2706 7.05787 12.3149C6.98683 12.3279 6.85728 12.3659 6.7879 12.3897C6.53841 12.4691 6.11883 12.6045 5.76277 12.9669C5.70092 13.0291 5.64701 13.0943 5.59937 13.1578C5.5931 13.1578 5.5885 13.1579 5.58223 13.1562C5.44516 13.1499 5.30975 13.1436 5.17393 13.1436C4.98253 13.1436 4.79155 13.1562 4.5525 13.1976C4.20271 13.2678 3.85584 13.3919 3.4442 13.5904C3.36731 13.6142 3.29167 13.6397 3.21602 13.6669C3.28247 12.6919 3.1897 11.7169 2.71495 10.6374C2.86916 10.2333 2.89674 9.77695 2.78432 9.32352C2.73334 9.11206 2.6811 8.94197 2.61925 8.75266C3.24068 8.41875 3.72462 8.20728 4.35984 7.99415C4.8162 7.86209 5.50534 7.66358 6.09417 7.06555C6.29017 6.86663 6.47196 6.59958 6.63996 6.26567C6.67214 6.25773 6.70307 6.24812 6.73399 6.23851C6.8017 6.21469 6.86981 6.18752 6.93459 6.15409C7.34289 5.94597 7.54808 5.65803 7.65758 5.50215C7.68349 5.46579 7.71901 5.41648 7.77292 5.34627C7.89161 5.19373 7.98564 5.04245 8.07381 4.88991C8.38516 5.07421 8.81686 5.28901 9.36725 5.28901C9.51811 5.28901 9.6694 5.27146 9.81734 5.23803C10.3443 5.1206 10.7731 4.72442 10.9474 4.1966C11.0134 3.99307 11.0381 3.78328 11.0243 3.57642C11.0259 3.57475 11.0289 3.57307 11.0305 3.57015C11.1555 3.55719 11.2742 3.52878 11.3895 3.4874ZM16.5495 1C16.2256 1.54872 16.2795 2.37075 16.2256 3.0277C16.1717 3.68591 16.1178 4.67218 15.6861 5.1649C15.6321 5.21922 15.5782 5.27481 15.5243 5.32872C15.4579 5.35128 15.3902 5.36549 15.3237 5.36549C15.2297 5.36549 15.1344 5.33833 15.0404 5.27481C14.9321 5.1649 14.7704 5.0554 14.6626 4.94549C14.1231 4.50836 13.3152 4.06913 12.9375 3.46651C12.8835 3.4126 13.0992 3.4126 13.1531 3.35701C13.2613 3.30269 13.2613 3.08328 13.1531 3.0277C13.0992 3.0277 12.9914 2.97379 12.9914 2.91779C12.9914 2.8083 13.0453 2.75397 13.1531 2.69839C13.3152 2.64448 13.477 2.64448 13.5848 2.5889C13.7469 2.47898 13.8009 2.31516 13.7469 2.20567C13.6926 2.15134 13.5848 2.09576 13.477 2.09576C13.0453 2.04185 12.4518 2.09576 12.0218 1.98585C11.7255 1.83666 11.4313 1.59636 11.1367 1.59636C11.1074 1.59636 11.0798 1.59803 11.0506 1.60263C10.9967 1.60263 10.9428 1.60263 10.9428 1.65696C10.8884 1.71087 10.9967 1.82078 10.9428 1.93027C10.921 1.97331 10.8855 1.99087 10.8425 1.99087C10.7731 1.99087 10.6853 1.9449 10.6189 1.87636C10.5725 1.78107 10.4446 1.64567 10.3431 1.64567C10.3259 1.64567 10.3105 1.64901 10.2967 1.65696C10.1349 1.65696 10.1349 1.82078 10.1349 1.98585C10.1349 2.09576 10.1349 2.36949 9.9728 2.36949C9.37937 2.64281 9.21764 3.35534 9.48719 3.68466C9.44582 3.69552 9.40695 3.69887 9.36725 3.69887C8.92928 3.69887 8.52516 3.18818 8.03035 3.13761C7.70689 3.13761 7.38301 3.30101 7.16737 3.52084C6.84516 3.79582 6.79083 4.06913 6.57519 4.34286C6.35955 4.6166 6.35955 4.67218 6.25131 4.72609C6.24086 4.72943 6.22999 4.7311 6.2208 4.7311C6.07746 4.7311 5.98635 4.38884 6.03567 4.28728C6.01101 4.26346 5.98175 4.25385 5.94916 4.25385C5.83841 4.25385 5.69967 4.38089 5.65788 4.50836C5.65788 4.61785 5.60396 4.72776 5.55005 4.83725C5.44223 5.16657 5.22617 5.71361 5.01053 5.93301C4.68665 6.26233 4.25495 6.37224 3.87883 6.48173C3.07101 6.75546 2.47758 7.02878 1.77632 7.412C1.56026 7.52191 1.39853 7.6314 1.2368 7.79522C0.912919 8.17886 0.96683 8.72716 1.12856 9.16639C1.18247 9.33021 1.2368 9.49528 1.29071 9.7151C1.34462 9.93451 1.29071 10.0983 1.18247 10.2078C0.859009 10.5371 1.12856 10.9204 1.12856 10.9204C1.83023 12.2355 1.77632 13.2774 1.50635 14.8675C1.47417 14.85 1.43698 14.842 1.4002 14.842C1.19961 14.842 0.976024 15.0744 1.02074 15.3047C1.02074 15.5245 1.29071 15.7439 1.56026 15.7978H1.83023C2.53149 15.7978 3.33931 15.2491 3.98665 15.0853C4.31053 14.9214 4.5805 14.8119 4.85005 14.7564C4.95787 14.7388 5.06611 14.7321 5.17393 14.7321C5.38958 14.7321 5.60564 14.7564 5.82128 14.7564C6.14516 14.7564 6.52295 14.6464 6.68468 14.3727C6.73859 14.2632 6.7925 14.1533 6.84641 14.0994C6.95465 13.9895 7.17029 13.9356 7.33202 13.88C7.49417 13.8495 7.64964 13.8403 7.80092 13.8403C8.04749 13.8403 8.28319 13.8641 8.5285 13.8641C8.68104 13.8641 8.83692 13.8545 9.00032 13.8244C9.3777 13.7145 9.75549 13.6606 10.1316 13.6606C11.1028 13.6606 12.0724 14.0438 12.4502 14.9758C12.5041 15.0853 12.558 15.2491 12.6662 15.3047C12.7047 15.3143 12.7402 15.3193 12.7757 15.3193C12.9391 15.3193 13.0716 15.2207 13.2041 15.0853C13.528 14.7564 13.7975 14.5365 14.1214 14.2089C14.1214 14.702 13.9058 15.1952 13.5819 15.5245C13.528 15.5784 13.528 15.634 13.4741 15.6879C13.258 15.8517 13.2041 16.2366 13.2041 16.4004C13.4741 16.4004 13.7436 16.3465 13.9597 16.2366C14.1369 16.1016 14.3141 16.003 14.4912 16.003C14.5301 16.003 14.5686 16.0076 14.6053 16.0172C14.6592 16.0172 14.7132 16.0715 14.7675 16.1271V16.3465C14.7675 16.5659 15.1449 16.8396 15.2531 17.059C15.4687 17.3879 15.4148 17.7712 15.7387 18.0449C16.0083 18.2643 16.3321 18.3186 16.6556 18.4281C16.7638 18.4281 16.8717 18.482 17.0334 18.482C17.2277 18.482 17.5775 18.4916 17.9432 18.4916C18.4936 18.4916 19.0824 18.4728 19.2441 18.3742C19.4598 18.2643 19.568 18.1005 19.7298 17.935C19.8915 17.8255 20.0536 17.2768 20.2693 17.2768C20.3834 17.3148 20.4975 17.3545 20.6132 17.3545C20.6609 17.3545 20.7072 17.3482 20.7549 17.3324C20.8627 17.2229 20.9166 17.059 20.9166 16.8936C20.9709 16.4547 20.8088 16.181 20.9166 15.7978C21.0788 15.4146 21.2944 15.1396 21.4566 14.8119C21.6183 14.4826 21.78 14.1533 21.9422 13.8257C22.2117 13.3869 22.2656 12.8937 22.4274 12.4549C22.7512 11.6329 22.4817 10.6466 22.4274 10.6466C22.3735 10.3177 22.2656 10.044 22.05 9.77069C21.8339 9.38746 21.5105 9.22197 21.4022 8.72884C21.4022 8.50943 21.4022 8.18012 21.1866 8.07063C21.1494 8.05767 21.1109 8.05475 21.0708 8.05475C20.9985 8.05475 20.9246 8.06728 20.8581 8.06728C20.7967 8.06728 20.7428 8.05642 20.7027 8.0163C20.5944 7.90681 20.5944 7.74298 20.5405 7.57749C20.5405 7.52358 20.4866 7.468 20.4327 7.41367C20.0549 7.03045 19.8932 6.59164 19.4075 6.31791C19.2458 6.264 19.0837 6.15409 18.9758 6.0446C18.4902 5.60537 18.3285 4.61952 18.2207 4.0169C18.2207 3.90698 18.1124 3.35827 17.9507 3.35827C17.9507 3.30436 17.8968 3.24878 17.8429 3.19487C17.809 3.17063 17.7718 3.16269 17.7334 3.16269C17.6302 3.16269 17.5161 3.22663 17.4112 3.22663C17.3727 3.22663 17.3372 3.21869 17.3017 3.19487C17.2478 3.14054 17.1939 3.08495 17.1939 2.97504C17.0861 2.53624 16.9778 2.0991 16.8161 1.6043C16.7651 1.43881 16.6573 1.10991 16.5495 1ZM19.2688 20.0835C19.1146 20.0835 19.1146 20.2427 18.9604 20.3221H18.5751C18.4443 20.389 18.3005 20.4144 18.1542 20.4144C17.9536 20.4144 17.7505 20.3685 17.5729 20.3221C17.2649 20.2427 16.9565 20.0835 16.6481 20.0835H16.4939C16.417 20.1633 16.417 20.2427 16.417 20.3221C16.5712 20.7199 16.725 21.1174 16.9565 21.5148C17.2649 22.1509 17.5729 22.7075 18.1898 23.1848C18.2666 23.2642 18.344 23.2642 18.4209 23.2642C18.5751 23.2642 18.8062 23.1848 18.8835 23.1054C19.1146 22.7873 19.1146 22.3895 19.2688 21.9921C19.3457 21.9127 19.3457 21.8328 19.423 21.674C19.4999 21.4354 19.4999 21.2762 19.4999 21.038V20.4813C19.4999 20.3221 19.423 20.0835 19.2688 20.0835Z" fill="#E56934"/>
</svg>
