<svg width="16" height="16" viewBox="0 0 16 16" fill="none" xmlns="http://www.w3.org/2000/svg">
<path fill-rule="evenodd" clip-rule="evenodd" d="M10.1161 10.177L10.4081 9.804C10.9481 9.16 11.6211 8.51501 11.6831 7.70101C11.7351 7.01001 10.326 7.03 10.587 6.258C10.837 5.517 11.864 5.744 12.23 5.153C12.41 4.863 12.0441 4.46 11.9301 4.325C11.8151 4.188 12.741 3.62301 12.842 3.58501C13.851 3.19901 13.86 4.145 14.915 4.017C15.049 4 15.3371 2.85701 15.2151 2.79801C14.9531 2.67201 14.4711 2.20201 14.1891 2.12601C13.4191 1.91701 12.6491 2.04401 11.8521 2.04201C11.1571 2.04101 10.524 2.119 9.83204 1.998C8.66204 1.793 7.53807 1.13 6.33607 1.122C5.66407 1.118 5.03009 1.82701 4.41309 2.07001C3.04509 2.77001 3.40208 4.274 2.69508 5.411C2.30708 6.036 0.845045 6.232 0.764045 6.903C0.695045 7.474 1.06709 7.815 1.24409 8.308C1.40709 8.763 1.40408 9.249 1.67408 9.664C1.77708 9.823 2.10905 10.258 2.32105 10.282C2.41005 10.292 2.72005 9.747 2.78205 9.663C3.25305 9.022 3.8921 8.57899 4.4051 7.98599C4.5381 7.83099 4.6261 7.663 4.6681 7.461C4.6881 7.366 4.58505 7.119 4.66505 7.172C4.82205 7.277 4.90808 7.693 4.95508 7.862C5.13508 8.506 5.36308 9.157 5.49708 9.812C5.52108 9.932 5.56108 10.664 5.76008 10.713C5.82808 10.73 6.23505 10.343 6.29005 10.301C6.89105 9.842 7.29207 9.366 7.80207 8.856C7.82107 8.837 8.24805 9.584 8.27705 9.663C8.44405 10.106 8.85908 10.338 9.16108 10.711C9.22408 10.789 9.40306 11.126 9.49006 11.153C9.55706 11.175 9.96905 10.399 10.019 10.32C10.05 10.272 10.0821 10.224 10.1161 10.177ZM9.88508 7.355L8.42109 8.06101C7.85409 7.58701 7.20504 8.038 7.09504 8.149C6.81904 8.425 6.57807 8.692 6.31507 8.95C6.19107 8.495 6.0441 8.042 5.9181 7.593C5.8741 7.436 5.79608 7.122 5.68708 6.898C5.56208 6.641 5.38804 6.452 5.22004 6.34C4.70904 5.999 4.32709 6.181 4.10609 6.321C3.94709 6.422 3.80609 6.567 3.71509 6.782C3.69009 6.842 3.68108 7.092 3.67908 7.286C3.67208 7.303 3.66108 7.318 3.64808 7.332C3.24808 7.795 2.77504 8.17301 2.35804 8.61701C2.31104 8.40101 2.26107 8.18299 2.18507 7.97099C2.11407 7.77299 2.02305 7.593 1.92805 7.418C1.88605 7.341 1.82406 7.273 1.78706 7.194C1.93006 7.113 2.15908 6.98701 2.31708 6.90801C2.84108 6.64601 3.30607 6.322 3.54407 5.939C3.88507 5.392 4.03805 4.78001 4.18305 4.18201C4.29405 3.72401 4.35008 3.249 4.83008 2.981L4.83509 2.978C5.12609 2.854 5.42405 2.66 5.72205 2.459C5.84905 2.374 5.97609 2.287 6.10609 2.216C6.18209 2.174 6.25108 2.122 6.33008 2.122C6.82608 2.125 7.3031 2.276 7.7801 2.435C8.4051 2.643 9.02704 2.872 9.66004 2.983C10.4 3.113 11.0771 3.04301 11.8181 3.04201C11.7081 3.11501 11.6011 3.192 11.5081 3.267C11.2091 3.508 11.0371 3.781 10.9821 3.94C10.8771 4.236 10.8991 4.49401 11.0021 4.71401C10.9281 4.74101 10.8571 4.767 10.8021 4.789C10.2721 4.997 9.84604 5.327 9.63904 5.938C9.43404 6.54701 9.57108 6.992 9.88508 7.355Z" fill="#E56934"/>
<path fill-rule="evenodd" clip-rule="evenodd" d="M7.86094 10.529C7.63594 10.963 7.68389 11.538 7.90989 11.956C8.43189 12.926 9.36694 13.696 10.8299 13.976C11.3059 14.068 11.9939 14.066 12.3999 13.815C13.2829 14.144 14.0119 13.734 13.9769 13.696C13.7579 13.456 14.2429 12.69 14.4029 12.38C14.7789 11.652 12.8479 11.664 13.6379 11.326C13.8019 11.256 13.2209 10.719 13.1699 10.685C12.6529 10.338 11.8729 10.245 11.3129 10.571C11.0589 10.718 10.8329 10.927 10.7379 11.159C10.6219 11.439 10.7909 11.708 10.7559 11.988C10.6099 12.296 10.2779 12.116 9.93193 12.075C9.76093 11.993 9.24189 11.675 9.10789 11.561C8.90689 11.39 8.64994 11.107 8.51994 10.901C8.30894 10.567 8.08294 10.522 7.86094 10.529Z" fill="#E56934"/>
</svg>
