<svg width="16" height="16" viewBox="0 0 16 16" fill="none" xmlns="http://www.w3.org/2000/svg">
<path fill-rule="evenodd" clip-rule="evenodd" d="M9.06753 3.00277C7.75791 1.70581 4.06382 2.85924 2.124 1.68718C0.183943 0.515362 0.326988 5.19691 2.32914 5.39727C4.33105 5.59787 5.19935 4.04778 6.46024 7.38509C6.9806 10.7804 6.40412 9.24277 6.30454 9.87059C6.20496 10.4986 7.81547 13.4964 7.64591 14.1127C7.47636 14.7289 10.39 14.6286 11.3018 11.8601C12.2138 9.0916 12.5675 10.7823 12.9539 9.50139C13.34 8.22044 11.9576 7.771 13.4513 6.43823C14.9448 5.10545 15.6247 4.46545 14.8567 3.6793C13.4647 3.38653 13.7283 3.79894 12.4545 2.17674C11.9272 1.55536 9.93988 3.867 9.06753 3.00277ZM1.77296 2.63094C2.86621 3.21148 4.37761 3.27118 5.8169 3.29315C6.42944 3.30247 7.02406 3.3113 7.54084 3.39656C7.87445 3.45172 8.17248 3.51691 8.36735 3.70963C8.99994 4.3365 9.9609 4.29733 10.9417 3.79035C11.2574 3.627 11.7176 3.37196 12.0072 3.20957C12.5763 3.90402 12.8762 4.16862 13.1592 4.31309C13.3806 4.42581 13.6065 4.46091 13.9982 4.52897C13.9475 4.59369 13.8919 4.66032 13.8391 4.71572C13.5695 4.99799 13.2134 5.31679 12.7888 5.69578C12.1082 6.30306 11.8661 6.8196 11.7813 7.25566C11.7147 7.5993 11.7429 7.91691 11.8224 8.23214C11.8599 8.38115 11.9105 8.52993 11.9585 8.68396C12.0039 8.83035 12.0612 8.98796 12.0075 9.19071C11.8742 9.23632 11.7187 9.30175 11.5972 9.38629C11.2985 9.59453 10.8433 10.0719 10.3568 11.5489C10.0352 12.5252 9.388 13.0613 8.80173 13.2929C8.72508 13.3232 8.63982 13.3469 8.55672 13.365C8.46908 13.0317 8.31935 12.6128 8.14382 12.1684C7.91051 11.5783 7.59505 10.726 7.42167 10.2536C7.50024 10.1476 7.57141 10.0074 7.61845 9.81518C7.67935 9.56659 7.7006 8.90963 7.44365 7.23441C7.43314 7.16563 7.41547 7.09853 7.39087 7.03357C6.81081 5.49757 6.21857 4.82199 5.6772 4.50963C5.2046 4.23668 4.7215 4.17721 4.18299 4.23262C3.70203 4.28229 3.14729 4.4793 2.42824 4.40742C2.24412 4.3888 2.13403 4.22808 2.03684 4.06283C1.85224 3.74999 1.75767 3.35238 1.74239 2.98653C1.73785 2.87763 1.75361 2.74462 1.77296 2.63094Z" fill="#E56934"/>
<path fill-rule="evenodd" clip-rule="evenodd" d="M14.4146 8.33316C13.6299 8.68635 13.4562 9.94701 12.8537 10.4251C12.1228 10.3547 13.0706 12.55 13.627 12.1027C14.1832 11.6554 14.4177 10.3351 14.6011 9.64898C14.7845 8.96313 14.5963 7.96564 14.4146 8.33316Z" fill="#E56934"/>
</svg>
