<svg width="24" height="24" viewBox="0 0 24 24" fill="none" xmlns="http://www.w3.org/2000/svg">
    <path fill-rule="evenodd" clip-rule="evenodd"
          d="M12.3898 5.093C11.7834 2.75139 11.6021 -0.503655 4.36808 1.77169C0.597576 3.02721 2.14432 8.31975 3.46611 8.5884C4.78826 8.85706 6.09143 12.773 7.5042 12.0258C9.21787 10.7556 7.80689 13.5195 8.53584 14.8091C9.26444 16.0986 9.13692 19.6614 11.2446 19.4848C14.3141 18.4363 10.9978 16.3085 14.581 14.5884C18.1641 12.8686 15.8759 10.046 20.4083 11.7353C20.7318 11.6235 21.8852 9.29479 22.8764 6.31628C22.545 4.90673 16.8882 8.41897 12.3898 5.093ZM20.7766 7.67318C20.3969 8.60022 20.0154 9.41945 19.7528 9.96142C18.2258 9.56846 17.3893 9.77443 16.8484 10.0961C16.4508 10.3329 16.1399 10.6642 15.872 11.0937C15.5284 11.645 15.3275 12.5746 13.9351 13.243C11.769 14.2828 11.3725 15.5043 11.2582 16.5976C11.2299 16.8673 11.2274 17.1335 11.2274 17.3932C11.2274 17.5343 11.2113 17.774 11.2052 17.8599L11.0859 17.9266C11.0659 17.8983 11.0465 17.8682 11.0333 17.8438C10.9376 17.6672 10.8642 17.4637 10.7972 17.2506C10.4412 16.114 10.2373 14.7865 9.83507 14.0747C9.77381 13.9662 9.80032 13.8215 9.80068 13.68C9.8014 13.3053 9.85155 12.9238 9.87483 12.6093C9.9214 11.9789 9.83149 11.472 9.69178 11.1797C9.4611 10.6968 9.09716 10.407 8.62969 10.2734C8.35173 10.1939 7.8642 10.1416 7.20546 10.4633C7.03961 10.2809 6.80999 10.0191 6.65883 9.81097C6.12474 9.07592 5.58062 8.28321 5.05334 7.81324C4.71984 7.51628 4.37381 7.3139 4.03459 7.19963C3.94289 7.03234 3.67137 6.51437 3.5854 6.11819C3.35901 5.07366 3.44498 3.66411 4.82193 3.19378C6.42778 2.68942 7.63352 2.47449 8.55698 2.49384C9.18062 2.50673 9.62444 2.61993 9.93071 2.86566C10.2223 3.09921 10.3709 3.43055 10.4935 3.77121C10.693 4.32679 10.8044 4.92428 10.9452 5.46733C11.0308 5.79831 11.2278 6.08954 11.5025 6.293C14.5985 8.58231 18.1581 8.14781 20.6046 7.70291L20.7766 7.67318Z"
          fill="#E56934"/>
    <path fill-rule="evenodd" clip-rule="evenodd"
          d="M14.7866 17.3946C14.2081 20.1764 12.239 20.2162 14.62 22.2859C17.0007 24.3556 18.4016 19.9375 17.4689 18.3252C16.5361 16.7125 15.3651 14.6131 14.7866 17.3946ZM15.9604 18.7167C16.0403 18.8428 16.1141 18.9639 16.1772 19.0724C16.2545 19.206 16.2628 19.3926 16.2671 19.5886C16.2778 20.0614 16.1686 20.5919 15.9558 21.0114C15.9117 21.0988 15.8279 21.2098 15.7692 21.2829C15.7161 21.2489 15.6499 21.2038 15.5994 21.1597C15.3658 20.9566 15.1495 20.7155 15.0316 20.5769C15.1118 20.4336 15.2397 20.2047 15.3407 20.0281C15.5499 19.6627 15.7717 19.2386 15.9604 18.7167Z"
          fill="#E56934"/>
</svg>
