<svg width="16" height="16" viewBox="0 0 16 16" fill="none" xmlns="http://www.w3.org/2000/svg">
<path d="M4.15659 4.302C3.30661 5.18419 2.78625 6.3321 2.68297 7.55278C2.57968 8.77345 2.89977 9.99247 3.58942 11.0049C4.27908 12.0174 5.29626 12.7616 6.46999 13.1124C7.64372 13.4632 8.90245 13.3993 10.0346 12.9313C10.1113 12.4313 9.94325 11.9513 9.87459 11.7833C9.72125 11.41 9.21592 10.772 8.37259 9.88733C8.14725 9.65067 8.16192 9.46867 8.24259 8.92933L8.25125 8.86867C8.30592 8.49933 8.39792 8.28067 9.64125 8.08333C10.2733 7.98333 10.4393 8.23533 10.6693 8.58533L10.7466 8.7C10.9653 9.02 11.1273 9.09333 11.3719 9.204C11.4819 9.254 11.6186 9.31733 11.8019 9.42067C12.2366 9.66933 12.2366 9.95 12.2366 10.5647V10.6347C12.2366 10.8953 12.2113 11.1247 12.1713 11.324C12.6828 10.6819 13.0393 9.93049 13.213 9.12813C13.3866 8.32576 13.3728 7.49415 13.1725 6.69802C12.9722 5.90189 12.5908 5.16274 12.0581 4.53809C11.5254 3.91345 10.8558 3.42017 10.1013 3.09667C9.73259 3.34533 9.22659 3.698 9.04992 3.94C8.95992 4.06333 8.83192 4.69467 8.41659 4.74667C8.30859 4.76 8.16259 4.75067 8.00792 4.74067C7.59325 4.714 7.02659 4.67733 6.84525 5.17C6.72992 5.482 6.70992 6.33 7.08259 6.77C7.14259 6.84 7.15392 6.97 7.11325 7.116C7.05992 7.30733 6.95259 7.424 6.91859 7.448C6.85459 7.41067 6.72659 7.262 6.63925 7.16133C6.43059 6.918 6.16925 6.61467 5.83192 6.52133C5.70925 6.48733 5.57459 6.45933 5.44325 6.43133C5.07725 6.35467 4.66325 6.26733 4.56659 6.062C4.49592 5.91133 4.49659 5.704 4.49659 5.48533C4.49659 5.20733 4.49659 4.89333 4.36059 4.58867C4.31331 4.47994 4.24382 4.38229 4.15659 4.302ZM7.99992 14.6667C4.31792 14.6667 1.33325 11.682 1.33325 8C1.33325 4.318 4.31792 1.33333 7.99992 1.33333C11.6819 1.33333 14.6666 4.318 14.6666 8C14.6666 11.682 11.6819 14.6667 7.99992 14.6667Z" fill="#E56934"/>
</svg>
