<svg width="423" height="265" viewBox="0 0 423 265" fill="none" xmlns="http://www.w3.org/2000/svg">
<path d="M392.273 117.226C375.303 117.226 361.546 103.487 361.546 86.5382C361.546 69.5899 375.303 55.8506 392.273 55.8506C409.243 55.8506 423 69.5899 423 86.5382C423 103.487 409.243 117.226 392.273 117.226Z" fill="#FFFBFA"/>
<path d="M392.273 103.126C383.1 103.126 375.664 95.6993 375.664 86.5381C375.664 77.3769 383.1 69.9503 392.273 69.9503C401.446 69.9503 408.882 77.3769 408.882 86.5381C408.882 95.6993 401.446 103.126 392.273 103.126Z" fill="#FFE6E3"/>
<path d="M227.664 75.5782C210.694 75.5782 196.937 61.8389 196.937 44.8906C196.937 27.9422 210.694 14.2029 227.664 14.2029C244.634 14.2029 258.391 27.9422 258.391 44.8906C258.391 61.8389 244.634 75.5782 227.664 75.5782Z" fill="#FFFBFA"/>
<path d="M227.664 61.4784C218.491 61.4784 211.055 54.0518 211.055 44.8906C211.055 35.7295 218.491 28.3029 227.664 28.3029C236.837 28.3029 244.273 35.7295 244.273 44.8906C244.273 54.0518 236.837 61.4784 227.664 61.4784Z" fill="#FFE6E3"/>
<path d="M87.1978 182.985C70.2278 182.985 56.4708 169.246 56.4708 152.298C56.4708 135.349 70.2278 121.61 87.1978 121.61C104.168 121.61 117.925 135.349 117.925 152.298C117.925 169.246 104.168 182.985 87.1978 182.985Z" fill="#FFFBFA"/>
<path d="M87.1979 168.885C78.0249 168.885 70.5888 161.459 70.5888 152.297C70.5888 143.136 78.0249 135.71 87.1979 135.71C96.3708 135.71 103.807 143.136 103.807 152.297C103.807 161.459 96.3708 168.885 87.1979 168.885Z" fill="#FFE6E3"/>
<path d="M286.375 192.849C275.768 192.849 267.17 184.262 267.17 173.669C267.17 163.077 275.768 154.489 286.375 154.49C296.981 154.49 305.579 163.077 305.579 173.669C305.579 184.262 296.981 192.849 286.375 192.849Z" fill="#FFFBFA"/>
<path d="M286.375 184.036C280.642 184.036 275.994 179.395 275.994 173.669C275.994 167.944 280.642 163.302 286.375 163.302C292.107 163.302 296.755 167.944 296.755 173.669C296.755 179.395 292.107 184.036 286.375 184.036Z" fill="#FFE6E3"/>
<path d="M91.0387 64.6184C80.4325 64.6184 71.8344 56.0313 71.8344 45.4386C71.8344 34.8459 80.4325 26.2588 91.0387 26.2588C101.645 26.2588 110.243 34.8459 110.243 45.4386C110.243 56.0313 101.645 64.6184 91.0387 64.6184Z" fill="#FFFBFA"/>
<path d="M91.0386 55.8056C85.3057 55.8056 80.6583 51.1641 80.6583 45.4386C80.6583 39.7131 85.3057 35.0717 91.0386 35.0717C96.7715 35.0717 101.419 39.7131 101.419 45.4386C101.419 51.1641 96.7715 55.8056 91.0386 55.8056Z" fill="#FFE6E3"/>
<path d="M336.855 20.7339C331.122 20.7339 326.474 16.0925 326.474 10.367C326.474 4.64144 331.122 -1.40773e-06 336.855 -9.06879e-07C342.588 -4.06023e-07 347.235 4.64144 347.235 10.367C347.235 16.0925 342.588 20.7339 336.855 20.7339Z" fill="#FFE6E3"/>
<path d="M190.353 142.937C184.62 142.937 179.972 138.295 179.972 132.57C179.972 126.844 184.62 122.203 190.353 122.203C196.086 122.203 200.733 126.844 200.733 132.57C200.733 138.295 196.086 142.937 190.353 142.937Z" fill="#FFE6E3"/>
<path d="M380.202 211.984C374.469 211.984 369.821 207.342 369.821 201.617C369.821 195.891 374.469 191.25 380.202 191.25C385.935 191.25 390.582 195.891 390.582 201.617C390.582 207.342 385.935 211.984 380.202 211.984Z" fill="#FFE6E3"/>
<path d="M167.307 228.424C161.575 228.424 156.927 223.782 156.927 218.057C156.927 212.331 161.575 207.69 167.307 207.69C173.04 207.69 177.688 212.331 177.688 218.057C177.688 223.782 173.04 228.424 167.307 228.424Z" fill="#FFE6E3"/>
<path d="M10.3803 78.2732C4.64742 78.2732 -1.40776e-06 73.6318 -9.06898e-07 67.9063C-4.06032e-07 62.1807 4.64742 57.5393 10.3803 57.5393C16.1131 57.5393 20.7606 62.1807 20.7606 67.9063C20.7606 73.6318 16.1131 78.2732 10.3803 78.2732Z" fill="#FFE6E3"/>
<path d="M231.219 43.8152L230.69 45.9425L394.197 86.5272L394.727 84.3999L231.219 43.8152Z" fill="#FFE6E3"/>
<path d="M221.157 47.7958L188.236 134.382L190.288 135.16L223.209 48.5739L221.157 47.7958Z" fill="#FFE6E3"/>
<path d="M189.286 132.286L165.139 219.965L167.255 220.546L191.402 132.867L189.286 132.286Z" fill="#FFE6E3"/>
<path d="M387.195 90.0756L286.233 172.28L287.619 173.979L388.582 91.7746L387.195 90.0756Z" fill="#FFE6E3"/>
<path d="M186.381 131.552L185.549 133.582L282.115 173.055L282.947 171.025L186.381 131.552Z" fill="#FFE6E3"/>
<path d="M341.53 8.75293L231.795 36.1487L232.327 38.2741L342.062 10.8783L341.53 8.75293Z" fill="#FFE6E3"/>
<path d="M219.982 43.7946L88.2951 43.7945L88.2951 45.9865L219.982 45.9865L219.982 43.7946Z" fill="#FFE6E3"/>
<path d="M90.4899 49.2745L88.2951 49.2745L88.295 163.257L90.4899 163.257L90.4899 49.2745Z" fill="#FFE6E3"/>
<path d="M13.3965 68.293L11.7164 69.7033L80.8746 151.88L82.5547 150.47L13.3965 68.293Z" fill="#FFE6E3"/>
<path d="M287.235 173.153L286.615 175.255L379.887 202.668L380.506 200.566L287.235 173.153Z" fill="#FFE6E3"/>
<path d="M166.271 231.275C214.612 231.275 253.8 191.888 253.8 143.302C253.8 94.715 214.612 55.3279 166.271 55.3279C117.93 55.3279 78.7416 94.715 78.7416 143.302C78.7416 191.888 117.93 231.275 166.271 231.275Z" fill="white"/>
<path d="M150.748 214.362C147.594 213.311 143.179 210.159 142.338 206.586C141.498 203.014 134.77 203.644 134.77 203.644C136.031 196.917 135.191 191.667 135.612 188.303C136.032 184.939 142.757 182.628 141.066 181.157C139.374 179.686 139.185 176.114 139.185 176.114C141.918 171.28 140.867 167.917 140.867 167.917C137.924 159.721 128.254 160.983 128.254 160.983C131.407 158.461 129.515 156.78 129.515 156.78C126.54 155.515 123.66 154.04 120.895 152.367C115.64 154.468 115.85 148.584 115.85 148.584C112.351 149.337 108.698 148.815 105.549 147.113C93.3566 148.584 84.7371 159.302 84.7371 159.302C86.6292 162.664 89.7816 165.607 91.2535 171.281C92.7255 176.955 96.0887 178.634 96.0887 178.634C96.0887 178.634 102.395 179.895 112.066 193.766C121.736 207.636 117.111 196.287 122.577 203.222C128.043 210.157 128.883 211.42 132.037 211.63C135.19 211.84 146.122 217.304 150.747 217.304C155.371 217.304 153.901 215.413 150.748 214.362Z" fill="#E56934"/>
<path d="M223.457 145.563C225.269 142.096 231.577 138.392 231.577 138.392C231.577 138.392 233.863 136.422 232.366 134.846C230.868 133.27 230.001 133.663 227.557 135.476C225.113 137.289 220.383 134.136 216.836 128.856C213.288 123.576 213.052 124.994 213.052 124.994C213.052 124.994 214.471 115.538 204.222 120.345C201.857 121.527 197.285 119.399 194.605 118.059C191.925 116.72 190.742 119.951 190.663 120.266C190.584 120.581 185.381 121.606 184.593 119.557C183.805 117.508 188.771 117.665 185.145 114.749C185.145 114.749 176.158 116.641 173.399 116.483C170.64 116.325 173.399 118.453 167.092 118.689C160.786 118.926 163.387 125.23 163.387 125.23C163.387 125.23 159.84 127.595 158.894 130.432C158.32 132.126 157.089 133.518 155.477 134.293V138.785C155.477 138.785 150.879 140.913 155.477 144.853C156.213 147.612 156.476 149.739 155.478 150.055C155.478 150.055 155.372 154.048 172.821 153.102C178.392 153.102 179.968 154.048 180.494 157.515C181.019 160.983 184.698 165.081 184.908 166.657C185.118 168.233 188.272 171.385 182.911 176.534C182.911 176.534 182.937 178.426 185.066 180.002C187.194 181.578 190.426 190.247 190.426 190.247C190.426 190.247 196.181 195.921 200.202 197.34C202.6 198.191 205.167 198.461 207.691 198.128C207.691 198.128 208.243 196.158 208.873 194.109C209.504 192.06 212.657 191.745 213.682 184.179C214.707 176.614 215.338 169.206 214.313 166.605C213.288 164.005 211.495 157.936 214.835 154.154C218.176 150.371 221.646 149.031 223.457 145.563Z" fill="#E56934"/>
<path d="M222.385 180.617C222.554 180.108 222.738 179.505 222.927 178.863C223.416 177.228 224.026 175.194 224.652 174.202C225.68 172.574 225.939 167.489 225.98 166.486C225.985 166.367 225.967 166.248 225.928 166.135C225.755 165.642 225.216 165.382 224.722 165.555C223.109 166.206 221.632 167.155 220.371 168.353C217.1 171.367 217.62 173.366 218.037 174.973C218.202 175.47 218.277 175.992 218.259 176.516C218.17 177.377 217.322 178.442 216.641 179.297C215.836 180.308 215.254 181.037 215.447 181.857C215.544 182.256 215.822 182.586 216.199 182.75C216.783 182.996 217.413 183.115 218.047 183.099C218.85 183.104 219.647 182.949 220.39 182.645C221.319 182.292 222.048 181.551 222.385 180.617Z" fill="#E56934"/>
<path d="M236.387 191.902C235.125 194.503 227.006 196.315 227.006 196.315C229.371 200.256 221.803 204.59 221.803 204.59C221.803 204.59 219.359 206.954 219.595 207.976C222.591 207.03 221.803 208.291 222.983 209.868C228.578 206.397 238.536 192.571 240.986 188.784C239.279 188.424 237.648 189.301 236.387 191.902Z" fill="#E56934"/>
<g clip-path="url(#clip0_635_17019)">
<path fill-rule="evenodd" clip-rule="evenodd" d="M82.7653 114.919C85.7055 106.972 90.5823 98.3177 92.1486 95.7354C94.3793 92.0581 104.162 76.0033 126.281 65.0194C148.4 54.0341 168.941 55.9891 168.941 55.9891C170.495 60.1978 164.976 62.8029 164.976 62.8029C164.976 62.8029 168.631 68.238 164.976 69.0148C161.322 69.791 155.738 73.8288 155.738 73.8288C155.738 73.8288 156.825 76.1585 152.988 79.8855C145.061 87.5882 136.94 85.1655 136.94 85.1655C139.736 80.6617 143.465 82.2147 142.843 80.0406C142.222 77.8666 144.863 73.8288 144.863 73.8288C144.863 73.8288 154.495 71.344 152.785 68.8591C151.075 66.3743 138.493 69.791 138.493 69.791C138.648 71.0337 136.007 77.4007 136.007 77.4007C136.007 77.4007 134.609 78.798 129.638 81.7488C124.667 84.6995 130.104 76.7796 127.929 76.4688C125.755 76.1585 125.133 72.7418 125.133 72.7418C125.133 72.7418 117.366 75.5369 118.143 78.0217C118.919 80.5066 108.356 84.6995 108.356 84.6995L108.822 93.8621C115.346 94.0173 116.744 87.6503 116.744 87.6503C116.744 87.6503 124.823 78.7985 123.735 86.7184C122.648 94.6384 128.706 86.7184 128.706 86.7184C129.949 88.4265 131.347 97.5892 131.347 97.5892C131.347 97.5892 124.512 99.6081 124.978 103.956C125.817 111.775 121.716 107.994 121.716 107.994C118.396 110.432 114.859 112.564 111.152 114.361C110.531 116.69 108.356 120.728 108.356 120.728C108.045 126.785 104.783 126.785 104.783 126.785C105.56 124.3 102.764 119.796 102.764 119.796C102.764 119.796 98.1032 123.057 95.9284 121.815C92.2842 119.734 90.491 121.97 89.4037 123.523L89.2637 123.679C88.6482 122.935 88.2299 121.818 88.0804 120.209C87.7418 116.565 85.4233 114.699 82.7653 114.919Z" fill="#D8E2F5"/>
<path fill-rule="evenodd" clip-rule="evenodd" d="M82.7652 114.919C85.4233 114.7 87.7418 116.565 88.0803 120.208C88.2298 121.818 88.6481 122.936 89.2637 123.679C88.0717 125.166 84.8421 126.374 83.345 127.871C83.345 127.871 82.5164 136.307 84.4844 134.911C89.7054 131.205 90.1801 131.081 90.1801 131.081C91.0092 132.634 86.8664 138.638 86.8664 138.638C91.6825 141.227 88.2647 145.213 88.2647 145.213C89.682 146.797 91.013 148.456 92.2522 150.182C92.2522 150.182 90.1801 154.893 90.0249 151.632C89.8697 148.37 87.8511 150.855 84.8478 148.991C81.8445 147.128 82.8798 144.643 83.5011 142.314C84.1224 139.984 80.2385 139.829 81.1707 137.965C82.1029 136.102 79.9286 132.841 80.451 124.123C80.6067 121.527 81.5088 118.286 82.7652 114.919Z" fill="#E56934"/>
</g>
<path fill-rule="evenodd" clip-rule="evenodd" d="M205.783 109.165L205.559 108.594C202.395 109.226 199.759 108.806 198.81 107.225C197.861 105.643 195.962 103.535 194.803 108.49C193.643 113.444 191.639 112.39 191.112 111.547C190.584 110.704 190.901 106.909 189.424 107.119C186.366 107.541 187.632 110.07 186.261 112.074C184.89 114.077 183.835 112.285 182.992 111.547C182.148 110.808 186.366 108.595 184.152 108.49C179.3 108.49 180.461 106.803 178.457 106.486C174.661 105.854 171.391 110.914 170.616 112.179C169.842 113.444 169.599 117.345 167.384 117.345C162.465 117.282 162.639 119.032 161.373 119.77C160.107 120.508 159.784 118.104 157.26 117.345C156.163 117.015 155.427 115.579 155.388 113.523C155.349 111.467 158.104 108.7 158.104 108.7C158.104 108.7 159.026 100.24 162.427 104.351C165.828 108.463 167.726 103.64 166.298 101.426C164.871 99.2123 165.353 97.789 165.353 97.789C165.353 97.789 167.805 98.1842 171.997 95.8912C176.189 93.5983 174.766 89.6453 175.003 86.4034C175.24 83.1616 176.585 83.794 176.901 86.3242C177.217 88.8544 180.46 88.6172 180.46 88.6172C180.46 88.6172 181.33 85.929 183.703 85.771C187.341 86.0082 187.499 81.1064 187.499 81.1064C187.499 81.1064 191.77 78.181 191.058 77.3901C190.347 76.5992 189.239 77.8645 186.867 78.9714C184.494 80.0783 183.228 78.2597 185.364 76.5205C187.499 74.7807 186.867 68.93 186.867 68.93C186.867 69.7208 183.15 72.409 181.251 73.9903C179.353 75.5716 181.41 76.2832 181.331 78.0225C180.302 82.45 177.218 82.7664 177.218 82.7664L176.427 77.4689L172.71 78.8922C172.71 78.8922 172.156 73.3579 176.19 72.6462C180.224 71.9346 180.145 69.5629 181.252 67.5859C182.359 65.6089 184.535 62.6835 187.224 62.7628C189.913 62.8415 191.693 66.8732 191.178 68.0992C190.664 69.3252 193.116 71.1038 193.63 68.5736C194.144 66.0435 196.833 63.6324 196.833 63.6324C195.157 63.3281 193.597 62.5669 192.325 61.4333C192.325 61.4333 189.715 58.6902 197.332 61.4333C204.947 64.1768 209.119 66.9044 216.801 71.7226C220.077 73.7774 223.247 76.4539 226.308 79.5066C225.196 80.7204 224.54 82.815 224.502 85.9937C224.453 90.0706 220.37 90.7191 222.711 94.8378C226.417 101.36 212.186 95.9146 209.732 98.0573C205.033 102.16 210.933 104.308 205.783 109.165Z" fill="#D8E2F5"/>
<path fill-rule="evenodd" clip-rule="evenodd" d="M226.308 79.5067C230.458 83.5788 234.422 88.3212 238.243 93.0904C244.906 101.407 250.137 116.911 250.927 119.513C251.717 122.113 251.169 123.457 251.168 128.098C251.168 132.736 249.059 131.681 248.321 128.783C247.846 124.355 244.841 123.959 244.05 121.509C243.259 119.057 243.022 118.109 241.44 117.792C239.858 117.476 240.57 115.341 238.988 115.341C237.406 115.341 234.875 117.634 233.33 117.714C231.784 117.792 230.209 114.63 229.26 115.341C228.311 116.053 228.469 116.685 230.13 119.753C234.639 119.657 233.689 120.402 237.486 124.829C235.667 129.731 231.554 128.07 230.051 129.019C227.995 130.917 228.074 131.707 225.464 133.684C222.854 135.66 221.668 130.205 221.668 128.386C219.611 127.2 216.21 121.35 214.154 119.955C212.097 118.56 210.753 116.606 209.329 115.736C208.169 115.028 206.397 110.734 205.783 109.165C210.933 104.308 205.033 102.16 209.732 98.0574C212.186 95.9147 226.417 101.36 222.711 94.838C220.37 90.7192 224.453 90.0707 224.501 85.9938C224.54 82.8151 225.196 80.7205 226.308 79.5067Z" fill="#E56934"/>
<path d="M165.405 88.2199C165.362 88.2611 161.176 92.3238 162.341 93.7735C162.535 94.0303 162.84 94.179 163.161 94.1746C163.694 94.1121 164.198 93.9048 164.62 93.5753C166.981 91.9992 167.008 89.0271 167.008 88.9011C167.008 88.6565 166.913 88.421 166.743 88.2446C166.38 87.8681 165.781 87.857 165.405 88.2199Z" fill="#D8E2F5"/>
<path d="M167.198 92.5931C167.255 92.9681 167.531 93.2724 167.899 93.3669C167.975 93.3863 168.054 93.3964 168.133 93.3964C168.428 93.3964 168.706 93.2588 168.885 93.0243C168.921 92.9769 172.446 88.326 171.074 87.072C170.259 86.3264 169.273 87.2271 168.851 87.6123C166.756 89.5266 167.179 92.4671 167.198 92.5931Z" fill="#D8E2F5"/>
<path d="M105.35 141.037C105.101 141.496 105.271 142.07 105.73 142.32C106.908 142.947 107.983 143.752 108.914 144.708C109.093 144.933 109.364 145.063 109.651 145.064V145.061C109.866 145.061 110.074 144.988 110.241 144.854C110.649 144.528 110.715 143.932 110.389 143.525C109.231 142.079 106.739 140.716 106.633 140.658C106.174 140.409 105.6 140.578 105.35 141.037Z" fill="#E56934"/>
<path d="M108.862 139.389C108.862 138.867 108.438 138.444 107.916 138.444C107.629 138.358 107.37 138.199 107.163 137.983C106.793 137.614 106.194 137.615 105.825 137.985C105.456 138.355 105.457 138.954 105.828 139.322C106.381 139.898 107.121 140.256 107.916 140.335C108.438 140.335 108.862 139.912 108.862 139.389Z" fill="#E56934"/>
<path d="M111.584 136.643C111.662 136.127 111.306 135.645 110.789 135.567C110.746 135.561 106.414 134.865 105.453 131.855C105.174 130.969 104.954 130.066 104.795 129.152C104.506 127.62 104.297 126.514 102.44 125.306C102.434 125.302 102.427 125.298 102.42 125.293C101.975 125.02 101.392 125.158 101.119 125.603C100.628 126.374 100.038 127.076 99.3636 127.692C98.9575 128.027 98.7355 128.536 98.7655 129.061C98.8305 130.231 100.131 131.317 100.769 131.781C101.567 133.312 103.336 136.415 104.76 136.831C106.526 137.23 108.329 137.443 110.139 137.465C110.342 137.468 110.545 137.461 110.747 137.443C111.176 137.398 111.52 137.069 111.584 136.643Z" fill="#E56934"/>
<path d="M159.153 78.7805C157.193 79.4414 155.345 80.3939 153.67 81.6062C153.435 81.785 153.297 82.0636 153.297 82.3591C153.297 82.8814 153.72 83.3049 154.243 83.3049C154.449 83.3049 154.649 83.2376 154.814 83.113C156.322 82.0321 157.981 81.1784 159.738 80.579C159.748 80.5756 159.759 80.5722 159.77 80.5683C160.264 80.3983 160.527 79.86 160.356 79.3663C160.185 78.8725 159.647 78.6104 159.153 78.7805Z" fill="#D8E2F5"/>
<path d="M320.56 131.206L180.269 155.348L199.168 265L339.459 240.858L320.56 131.206Z" fill="#FFE6E3"/>
<path d="M180.269 155.349L264.873 211.175L320.564 131.206L180.269 155.349Z" fill="#FFFBFA"/>
<defs>
<clipPath id="clip0_635_17019">
<rect width="97.42" height="97.3883" fill="white" transform="translate(75.9028 55.8535)"/>
</clipPath>
</defs>
</svg>
