<svg width="88" height="88" viewBox="0 0 88 88" fill="none" xmlns="http://www.w3.org/2000/svg">
<mask id="path-1-outside-1_352_17928" maskUnits="userSpaceOnUse" x="0" y="0" width="88" height="88" fill="black">
<rect fill="white" width="88" height="88"/>
<path d="M69.9137 1.00324C69.4116 1.01316 68.9102 1.04565 68.411 1.10061C68.1418 1.13215 67.8959 1.26876 67.7269 1.4807C67.558 1.69264 67.4795 1.96275 67.5087 2.23224C67.5379 2.50173 67.6724 2.74877 67.8829 2.91958C68.0934 3.0904 68.3628 3.17116 68.6325 3.14428C70.8218 2.90304 73.0372 3.15679 75.1152 3.88677C77.1933 4.61675 79.0807 5.80431 80.6381 7.3617C82.1955 8.9191 83.3831 10.8065 84.113 12.8845C84.843 14.9625 85.0968 17.178 84.8555 19.3672C84.8262 19.6383 84.9057 19.9099 85.0766 20.1223C85.2475 20.3348 85.4957 20.4706 85.7668 20.5C86.0378 20.5294 86.3095 20.4499 86.5219 20.279C86.7343 20.1081 86.8702 19.8598 86.8995 19.5887C87.1601 17.2202 86.9124 14.8233 86.1731 12.558C85.4339 10.2927 84.2199 8.21113 82.6124 6.4522C81.0049 4.69327 79.0407 3.29742 76.8509 2.35779C74.6611 1.41817 72.2961 0.956378 69.9137 1.00324ZM70.4915 5.29436C69.7818 5.27965 69.0721 5.32555 68.3702 5.43154C68.1005 5.4717 67.8578 5.61734 67.6955 5.83642C67.5332 6.05551 67.4646 6.33009 67.5048 6.59977C67.5449 6.86944 67.6906 7.11212 67.9097 7.27442C68.1287 7.43672 68.4033 7.50534 68.673 7.46518C70.287 7.2207 71.9358 7.35886 73.4866 7.86853C75.0374 8.3782 76.4468 9.24512 77.6011 10.3994C78.7553 11.5537 79.6223 12.963 80.1319 14.5138C80.6416 16.0646 80.7798 17.7134 80.5353 19.3274C80.5154 19.4609 80.522 19.597 80.5547 19.728C80.5874 19.8589 80.6456 19.9822 80.726 20.0906C80.8063 20.1991 80.9073 20.2907 81.023 20.3601C81.1387 20.4296 81.267 20.4756 81.4005 20.4955C81.4512 20.503 81.5023 20.5068 81.5534 20.5068C81.7996 20.5066 82.0376 20.4179 82.2239 20.257C82.4103 20.0962 82.5327 19.8737 82.5689 19.6302C82.8339 17.8761 82.7216 16.0856 82.2397 14.3783C81.7578 12.671 80.9173 11.086 79.7743 9.7293C78.6313 8.37256 77.2121 7.27519 75.6113 6.51042C74.0106 5.74566 72.2652 5.33108 70.4915 5.29436ZM70.3169 9.58649C69.6303 9.5789 68.9454 9.6577 68.2785 9.82103L68.2779 9.82036C68.013 9.88501 67.7847 10.0522 67.6431 10.2852C67.5016 10.5182 67.4584 10.7979 67.523 11.0627C67.5877 11.3275 67.7549 11.5559 67.9879 11.6974C68.2208 11.839 68.5005 11.8822 68.7654 11.8175C69.7895 11.5662 70.8612 11.5832 71.8768 11.8669C72.8925 12.1506 73.8178 12.6914 74.5635 13.437C75.3092 14.1827 75.85 15.108 76.1337 16.1236C76.4175 17.1393 76.4345 18.2109 76.1833 19.2351C76.1493 19.3668 76.1419 19.504 76.1613 19.6387C76.1808 19.7733 76.2268 19.9028 76.2967 20.0195C76.3666 20.1363 76.459 20.238 76.5685 20.3187C76.678 20.3995 76.8025 20.4577 76.9347 20.49C77.0668 20.5223 77.2041 20.528 77.3385 20.5069C77.4729 20.4857 77.6018 20.438 77.7177 20.3667C77.8335 20.2953 77.9341 20.2017 78.0134 20.0912C78.0928 19.9806 78.1495 19.8555 78.1801 19.7229C78.4736 18.5248 78.4926 17.2759 78.2357 16.0695C77.9789 14.863 77.4528 13.7301 76.6967 12.7555C75.9406 11.7809 74.9742 10.9896 73.8694 10.4409C72.7647 9.89216 71.5503 9.60008 70.3169 9.58649ZM11.0694 14.5508C10.799 14.5535 10.5405 14.6627 10.35 14.8546L1.29798 23.9842C1.1071 24.1767 1 24.4369 1 24.708C1 24.9791 1.1071 25.2392 1.29798 25.4317L22.0396 46.3513C22.1352 46.4476 22.2489 46.5241 22.3742 46.5764C22.4995 46.6286 22.6338 46.6554 22.7696 46.6554C22.9053 46.6554 23.0397 46.6286 23.1649 46.5764C23.2902 46.5241 23.4039 46.4476 23.4995 46.3513L24.3651 45.4773L26.0223 47.1392L18.053 55.2049C17.8627 55.3968 17.756 55.6562 17.7562 55.9264C17.7564 56.1967 17.8634 56.4559 18.054 56.6476L18.9694 57.5687L12.4221 64.1378C12.2304 64.3318 12.1227 64.5936 12.1223 64.8664C12.1219 65.1392 12.2289 65.4013 12.4201 65.5959L22.6131 75.8846C22.8037 76.0841 23.0654 76.2001 23.3412 76.2074H23.3429C23.6183 76.2006 23.8798 76.0853 24.0706 75.8866L30.6092 69.3082L31.5159 70.236C31.7074 70.4345 31.9699 70.549 32.2457 70.5542H32.2467C32.3835 70.5516 32.5184 70.522 32.6437 70.4671C32.7691 70.4123 32.8823 70.3333 32.9771 70.2347L40.9772 62.1319L42.2316 63.3889L41.2997 64.3285C41.1089 64.521 41.0018 64.7811 41.0018 65.0522C41.0018 65.3233 41.1089 65.5834 41.2997 65.7759L62.0411 86.6958C62.1366 86.7922 62.2503 86.8687 62.3756 86.9209C62.5009 86.9731 62.6353 87 62.771 87C62.9067 87 63.0411 86.9731 63.1664 86.9209C63.2916 86.8687 63.4053 86.7922 63.5009 86.6958L72.5533 77.5662C72.7441 77.3737 72.8512 77.1136 72.8512 76.8425C72.8512 76.5714 72.7441 76.3113 72.5533 76.1188L51.8109 55.1995C51.7154 55.1031 51.6017 55.0266 51.4764 54.9744C51.3511 54.9222 51.2167 54.8953 51.081 54.8953C50.9453 54.8953 50.8109 54.9222 50.6856 54.9744C50.5604 55.0266 50.4467 55.1031 50.3511 55.1995L49.6692 55.8874L48.3994 54.6146L55.2673 47.6595C55.4576 47.4662 55.5642 47.2057 55.5639 46.9344C55.5637 46.663 55.4566 46.4027 55.2659 46.2097L51.7407 42.6527L53.7378 40.6545C56.4096 42.1026 59.4656 42.684 62.4824 42.3181C65.4993 41.9523 68.3277 40.6573 70.5758 38.6125C70.6787 38.5192 70.7616 38.4061 70.8195 38.2799C70.8774 38.1537 70.9091 38.0171 70.9128 37.8783C70.9164 37.7395 70.8919 37.6014 70.8408 37.4723C70.7896 37.3432 70.7128 37.2259 70.615 37.1273L61.5964 28.0308L65.5439 24.0833C66.13 24.3314 66.7842 24.3678 67.3942 24.1865C68.0043 24.0051 68.5323 23.6172 68.8877 23.0892C69.2432 22.5613 69.4039 21.9261 69.3423 21.2926C69.2808 20.6592 69.0008 20.0668 68.5504 19.6172C68.1 19.1675 67.5072 18.8885 66.8736 18.8279C66.24 18.7674 65.6051 18.9291 65.0777 19.2854C64.5503 19.6417 64.1633 20.1703 63.9829 20.7807C63.8025 21.391 63.8401 22.0451 64.0891 22.6308L60.149 26.571L51.2308 17.5758C51.132 17.4762 51.0138 17.3978 50.8836 17.3456C50.7533 17.2933 50.6138 17.2683 50.4735 17.272C50.3332 17.2757 50.1952 17.3082 50.0679 17.3673C49.9406 17.4264 49.8268 17.5109 49.7335 17.6157C47.8055 19.7858 46.5508 22.4701 46.1223 25.3412C45.6939 28.2122 46.1103 31.1459 47.3207 33.7844L45.1261 35.9793L41.8046 32.6431C41.7084 32.5486 41.5943 32.4741 41.469 32.4242C41.3438 32.3742 41.2098 32.3497 41.0749 32.352H41.0739C40.9388 32.3496 40.8046 32.3741 40.6792 32.4243C40.5537 32.4745 40.4396 32.5492 40.3435 32.6441L33.4472 39.624L31.8027 37.9758L32.5508 37.2223C32.7417 37.0298 32.8488 36.7697 32.8488 36.4986C32.8488 36.2275 32.7417 35.9674 32.5508 35.7749L11.8098 14.8546C11.713 14.757 11.5976 14.6799 11.4704 14.6277C11.3432 14.5755 11.2069 14.5494 11.0694 14.5508ZM11.0801 17.0381L12.9424 18.9162L5.3375 26.5863L3.4755 24.7083L11.0801 17.0381ZM50.5739 19.8333L68.3675 37.7797C65.9289 39.642 62.8948 40.551 59.834 40.3366C56.7731 40.1221 53.8955 38.7988 51.7403 36.6147C49.5701 34.4199 48.2589 31.5195 48.0448 28.4403C47.8308 25.3611 48.7282 22.3073 50.5739 19.8333ZM14.3895 20.3764L30.3743 36.4976L28.7569 38.129L22.7082 32.0281C22.6126 31.9317 22.4989 31.8552 22.3736 31.803C22.2483 31.7508 22.114 31.724 21.9782 31.724C21.8425 31.724 21.7081 31.7508 21.5829 31.803C21.4576 31.8552 21.3439 31.9317 21.2483 32.0281L18.3257 34.9759C18.1348 35.1684 18.0277 35.4285 18.0277 35.6996C18.0277 35.9707 18.1348 36.2308 18.3257 36.4233L24.3868 42.5363L22.7694 44.1677L6.78528 28.0462L14.3895 20.3764ZM66.6123 20.8742C66.7478 20.8742 66.8803 20.9144 66.993 20.9897C67.1056 21.065 67.1935 21.172 67.2453 21.2972C67.2972 21.4224 67.3108 21.5602 67.2843 21.6931C67.2579 21.8261 67.1926 21.9482 67.0968 22.044C67.001 22.1398 66.8789 22.2051 66.7459 22.2315C66.613 22.258 66.4752 22.2444 66.35 22.1925C66.2248 22.1407 66.1178 22.0529 66.0425 21.9402C65.9672 21.8275 65.927 21.695 65.927 21.5595C65.927 21.3777 65.9992 21.2034 66.1277 21.0749C66.2562 20.9464 66.4305 20.8742 66.6123 20.8742ZM21.9781 34.212L27.3091 39.5889L25.8342 41.0765L20.5029 35.6999L21.9781 34.212ZM41.0762 34.8146L53.0904 46.9318L49.3082 50.7612L37.294 38.644L41.0762 34.8146ZM48.3516 35.6624C49.3151 37.1545 50.5381 38.4618 51.9628 39.5223L50.2939 41.1916L46.5742 37.4398L48.3516 35.6624ZM30.3559 39.436L32.0024 41.0865L27.4671 45.6777L25.8125 44.0182L30.3559 39.436ZM35.8502 40.1061L47.8638 52.224L32.2454 68.0371L20.2308 55.9199L35.8502 40.1061ZM34.1542 45.1802C34.0096 45.1742 33.8654 45.1989 33.731 45.2525C33.5966 45.3061 33.475 45.3875 33.3743 45.4914L28.3865 50.6327C28.2902 50.7291 28.214 50.8436 28.1624 50.9697C28.1108 51.0958 28.0847 51.2309 28.0858 51.3672C28.0868 51.5034 28.1149 51.6381 28.1685 51.7634C28.2221 51.8886 28.3 52.002 28.3978 52.0969C28.4956 52.1918 28.6113 52.2663 28.7381 52.316C28.865 52.3658 29.0004 52.3899 29.1367 52.3868C29.2729 52.3838 29.4071 52.3537 29.5316 52.2982C29.6561 52.2428 29.7683 52.1632 29.8617 52.0641L34.8498 46.9231C34.988 46.7807 35.082 46.6014 35.1205 46.4067C35.159 46.2121 35.1404 46.0105 35.0668 45.8262C34.9933 45.6419 34.868 45.4829 34.7061 45.3683C34.5441 45.2536 34.3524 45.1883 34.1542 45.1802ZM27.1706 52.3655C27.026 52.3604 26.8819 52.3858 26.7478 52.4402C26.6137 52.4946 26.4925 52.5766 26.3923 52.681L24.7348 54.4079C24.5477 54.6049 24.4463 54.8679 24.4526 55.1395C24.4589 55.4111 24.5725 55.6691 24.7685 55.8572C24.9645 56.0453 25.227 56.1482 25.4986 56.1433C25.7702 56.1384 26.0289 56.0262 26.218 55.8312L27.8756 54.1044C28.0129 53.9613 28.1059 53.7814 28.1433 53.5866C28.1808 53.3918 28.161 53.1904 28.0865 53.0065C28.012 52.8227 27.8858 52.6644 27.7233 52.5506C27.5608 52.4369 27.3688 52.3726 27.1706 52.3655ZM46.9567 56.0775L48.2231 57.3472L44.3716 61.2318L43.68 61.9295L42.423 60.6694L46.9567 56.0775ZM51.0829 57.3834L67.067 73.5049L59.4627 81.1744L43.4779 65.0529L45.0953 63.4217L51.113 69.4912C51.2085 69.5876 51.3223 69.6642 51.4476 69.7164C51.5729 69.7686 51.7073 69.7955 51.8431 69.7955C51.9788 69.7955 52.1132 69.7686 52.2385 69.7164C52.3638 69.6642 52.4776 69.5876 52.5731 69.4912L55.4955 66.5435C55.6863 66.351 55.7934 66.0908 55.7934 65.8197C55.7934 65.5486 55.6863 65.2885 55.4955 65.096L49.4654 59.0145L51.0829 57.3834ZM20.4175 59.0279L29.1618 67.8474L26.7313 70.2872L17.9861 61.4671L20.4175 59.0279ZM48.0177 60.475L53.3183 65.8197L51.8431 67.3077L46.5428 61.9626L48.0177 60.475ZM16.5343 62.9232L25.2795 71.7433L23.3456 73.6843L14.5997 64.8645L16.5343 62.9232ZM68.5137 74.9644L70.3761 76.8425L62.7711 84.5123L60.9088 82.6342L68.5137 74.9644Z"/>
</mask>
<path d="M69.9137 1.00324C69.4116 1.01316 68.9102 1.04565 68.411 1.10061C68.1418 1.13215 67.8959 1.26876 67.7269 1.4807C67.558 1.69264 67.4795 1.96275 67.5087 2.23224C67.5379 2.50173 67.6724 2.74877 67.8829 2.91958C68.0934 3.0904 68.3628 3.17116 68.6325 3.14428C70.8218 2.90304 73.0372 3.15679 75.1152 3.88677C77.1933 4.61675 79.0807 5.80431 80.6381 7.3617C82.1955 8.9191 83.3831 10.8065 84.113 12.8845C84.843 14.9625 85.0968 17.178 84.8555 19.3672C84.8262 19.6383 84.9057 19.9099 85.0766 20.1223C85.2475 20.3348 85.4957 20.4706 85.7668 20.5C86.0378 20.5294 86.3095 20.4499 86.5219 20.279C86.7343 20.1081 86.8702 19.8598 86.8995 19.5887C87.1601 17.2202 86.9124 14.8233 86.1731 12.558C85.4339 10.2927 84.2199 8.21113 82.6124 6.4522C81.0049 4.69327 79.0407 3.29742 76.8509 2.35779C74.6611 1.41817 72.2961 0.956378 69.9137 1.00324ZM70.4915 5.29436C69.7818 5.27965 69.0721 5.32555 68.3702 5.43154C68.1005 5.4717 67.8578 5.61734 67.6955 5.83642C67.5332 6.05551 67.4646 6.33009 67.5048 6.59977C67.5449 6.86944 67.6906 7.11212 67.9097 7.27442C68.1287 7.43672 68.4033 7.50534 68.673 7.46518C70.287 7.2207 71.9358 7.35886 73.4866 7.86853C75.0374 8.3782 76.4468 9.24512 77.6011 10.3994C78.7553 11.5537 79.6223 12.963 80.1319 14.5138C80.6416 16.0646 80.7798 17.7134 80.5353 19.3274C80.5154 19.4609 80.522 19.597 80.5547 19.728C80.5874 19.8589 80.6456 19.9822 80.726 20.0906C80.8063 20.1991 80.9073 20.2907 81.023 20.3601C81.1387 20.4296 81.267 20.4756 81.4005 20.4955C81.4512 20.503 81.5023 20.5068 81.5534 20.5068C81.7996 20.5066 82.0376 20.4179 82.2239 20.257C82.4103 20.0962 82.5327 19.8737 82.5689 19.6302C82.8339 17.8761 82.7216 16.0856 82.2397 14.3783C81.7578 12.671 80.9173 11.086 79.7743 9.7293C78.6313 8.37256 77.2121 7.27519 75.6113 6.51042C74.0106 5.74566 72.2652 5.33108 70.4915 5.29436ZM70.3169 9.58649C69.6303 9.5789 68.9454 9.6577 68.2785 9.82103L68.2779 9.82036C68.013 9.88501 67.7847 10.0522 67.6431 10.2852C67.5016 10.5182 67.4584 10.7979 67.523 11.0627C67.5877 11.3275 67.7549 11.5559 67.9879 11.6974C68.2208 11.839 68.5005 11.8822 68.7654 11.8175C69.7895 11.5662 70.8612 11.5832 71.8768 11.8669C72.8925 12.1506 73.8178 12.6914 74.5635 13.437C75.3092 14.1827 75.85 15.108 76.1337 16.1236C76.4175 17.1393 76.4345 18.2109 76.1833 19.2351C76.1493 19.3668 76.1419 19.504 76.1613 19.6387C76.1808 19.7733 76.2268 19.9028 76.2967 20.0195C76.3666 20.1363 76.459 20.238 76.5685 20.3187C76.678 20.3995 76.8025 20.4577 76.9347 20.49C77.0668 20.5223 77.2041 20.528 77.3385 20.5069C77.4729 20.4857 77.6018 20.438 77.7177 20.3667C77.8335 20.2953 77.9341 20.2017 78.0134 20.0912C78.0928 19.9806 78.1495 19.8555 78.1801 19.7229C78.4736 18.5248 78.4926 17.2759 78.2357 16.0695C77.9789 14.863 77.4528 13.7301 76.6967 12.7555C75.9406 11.7809 74.9742 10.9896 73.8694 10.4409C72.7647 9.89216 71.5503 9.60008 70.3169 9.58649ZM11.0694 14.5508C10.799 14.5535 10.5405 14.6627 10.35 14.8546L1.29798 23.9842C1.1071 24.1767 1 24.4369 1 24.708C1 24.9791 1.1071 25.2392 1.29798 25.4317L22.0396 46.3513C22.1352 46.4476 22.2489 46.5241 22.3742 46.5764C22.4995 46.6286 22.6338 46.6554 22.7696 46.6554C22.9053 46.6554 23.0397 46.6286 23.1649 46.5764C23.2902 46.5241 23.4039 46.4476 23.4995 46.3513L24.3651 45.4773L26.0223 47.1392L18.053 55.2049C17.8627 55.3968 17.756 55.6562 17.7562 55.9264C17.7564 56.1967 17.8634 56.4559 18.054 56.6476L18.9694 57.5687L12.4221 64.1378C12.2304 64.3318 12.1227 64.5936 12.1223 64.8664C12.1219 65.1392 12.2289 65.4013 12.4201 65.5959L22.6131 75.8846C22.8037 76.0841 23.0654 76.2001 23.3412 76.2074H23.3429C23.6183 76.2006 23.8798 76.0853 24.0706 75.8866L30.6092 69.3082L31.5159 70.236C31.7074 70.4345 31.9699 70.549 32.2457 70.5542H32.2467C32.3835 70.5516 32.5184 70.522 32.6437 70.4671C32.7691 70.4123 32.8823 70.3333 32.9771 70.2347L40.9772 62.1319L42.2316 63.3889L41.2997 64.3285C41.1089 64.521 41.0018 64.7811 41.0018 65.0522C41.0018 65.3233 41.1089 65.5834 41.2997 65.7759L62.0411 86.6958C62.1366 86.7922 62.2503 86.8687 62.3756 86.9209C62.5009 86.9731 62.6353 87 62.771 87C62.9067 87 63.0411 86.9731 63.1664 86.9209C63.2916 86.8687 63.4053 86.7922 63.5009 86.6958L72.5533 77.5662C72.7441 77.3737 72.8512 77.1136 72.8512 76.8425C72.8512 76.5714 72.7441 76.3113 72.5533 76.1188L51.8109 55.1995C51.7154 55.1031 51.6017 55.0266 51.4764 54.9744C51.3511 54.9222 51.2167 54.8953 51.081 54.8953C50.9453 54.8953 50.8109 54.9222 50.6856 54.9744C50.5604 55.0266 50.4467 55.1031 50.3511 55.1995L49.6692 55.8874L48.3994 54.6146L55.2673 47.6595C55.4576 47.4662 55.5642 47.2057 55.5639 46.9344C55.5637 46.663 55.4566 46.4027 55.2659 46.2097L51.7407 42.6527L53.7378 40.6545C56.4096 42.1026 59.4656 42.684 62.4824 42.3181C65.4993 41.9523 68.3277 40.6573 70.5758 38.6125C70.6787 38.5192 70.7616 38.4061 70.8195 38.2799C70.8774 38.1537 70.9091 38.0171 70.9128 37.8783C70.9164 37.7395 70.8919 37.6014 70.8408 37.4723C70.7896 37.3432 70.7128 37.2259 70.615 37.1273L61.5964 28.0308L65.5439 24.0833C66.13 24.3314 66.7842 24.3678 67.3942 24.1865C68.0043 24.0051 68.5323 23.6172 68.8877 23.0892C69.2432 22.5613 69.4039 21.9261 69.3423 21.2926C69.2808 20.6592 69.0008 20.0668 68.5504 19.6172C68.1 19.1675 67.5072 18.8885 66.8736 18.8279C66.24 18.7674 65.6051 18.9291 65.0777 19.2854C64.5503 19.6417 64.1633 20.1703 63.9829 20.7807C63.8025 21.391 63.8401 22.0451 64.0891 22.6308L60.149 26.571L51.2308 17.5758C51.132 17.4762 51.0138 17.3978 50.8836 17.3456C50.7533 17.2933 50.6138 17.2683 50.4735 17.272C50.3332 17.2757 50.1952 17.3082 50.0679 17.3673C49.9406 17.4264 49.8268 17.5109 49.7335 17.6157C47.8055 19.7858 46.5508 22.4701 46.1223 25.3412C45.6939 28.2122 46.1103 31.1459 47.3207 33.7844L45.1261 35.9793L41.8046 32.6431C41.7084 32.5486 41.5943 32.4741 41.469 32.4242C41.3438 32.3742 41.2098 32.3497 41.0749 32.352H41.0739C40.9388 32.3496 40.8046 32.3741 40.6792 32.4243C40.5537 32.4745 40.4396 32.5492 40.3435 32.6441L33.4472 39.624L31.8027 37.9758L32.5508 37.2223C32.7417 37.0298 32.8488 36.7697 32.8488 36.4986C32.8488 36.2275 32.7417 35.9674 32.5508 35.7749L11.8098 14.8546C11.713 14.757 11.5976 14.6799 11.4704 14.6277C11.3432 14.5755 11.2069 14.5494 11.0694 14.5508ZM11.0801 17.0381L12.9424 18.9162L5.3375 26.5863L3.4755 24.7083L11.0801 17.0381ZM50.5739 19.8333L68.3675 37.7797C65.9289 39.642 62.8948 40.551 59.834 40.3366C56.7731 40.1221 53.8955 38.7988 51.7403 36.6147C49.5701 34.4199 48.2589 31.5195 48.0448 28.4403C47.8308 25.3611 48.7282 22.3073 50.5739 19.8333ZM14.3895 20.3764L30.3743 36.4976L28.7569 38.129L22.7082 32.0281C22.6126 31.9317 22.4989 31.8552 22.3736 31.803C22.2483 31.7508 22.114 31.724 21.9782 31.724C21.8425 31.724 21.7081 31.7508 21.5829 31.803C21.4576 31.8552 21.3439 31.9317 21.2483 32.0281L18.3257 34.9759C18.1348 35.1684 18.0277 35.4285 18.0277 35.6996C18.0277 35.9707 18.1348 36.2308 18.3257 36.4233L24.3868 42.5363L22.7694 44.1677L6.78528 28.0462L14.3895 20.3764ZM66.6123 20.8742C66.7478 20.8742 66.8803 20.9144 66.993 20.9897C67.1056 21.065 67.1935 21.172 67.2453 21.2972C67.2972 21.4224 67.3108 21.5602 67.2843 21.6931C67.2579 21.8261 67.1926 21.9482 67.0968 22.044C67.001 22.1398 66.8789 22.2051 66.7459 22.2315C66.613 22.258 66.4752 22.2444 66.35 22.1925C66.2248 22.1407 66.1178 22.0529 66.0425 21.9402C65.9672 21.8275 65.927 21.695 65.927 21.5595C65.927 21.3777 65.9992 21.2034 66.1277 21.0749C66.2562 20.9464 66.4305 20.8742 66.6123 20.8742ZM21.9781 34.212L27.3091 39.5889L25.8342 41.0765L20.5029 35.6999L21.9781 34.212ZM41.0762 34.8146L53.0904 46.9318L49.3082 50.7612L37.294 38.644L41.0762 34.8146ZM48.3516 35.6624C49.3151 37.1545 50.5381 38.4618 51.9628 39.5223L50.2939 41.1916L46.5742 37.4398L48.3516 35.6624ZM30.3559 39.436L32.0024 41.0865L27.4671 45.6777L25.8125 44.0182L30.3559 39.436ZM35.8502 40.1061L47.8638 52.224L32.2454 68.0371L20.2308 55.9199L35.8502 40.1061ZM34.1542 45.1802C34.0096 45.1742 33.8654 45.1989 33.731 45.2525C33.5966 45.3061 33.475 45.3875 33.3743 45.4914L28.3865 50.6327C28.2902 50.7291 28.214 50.8436 28.1624 50.9697C28.1108 51.0958 28.0847 51.2309 28.0858 51.3672C28.0868 51.5034 28.1149 51.6381 28.1685 51.7634C28.2221 51.8886 28.3 52.002 28.3978 52.0969C28.4956 52.1918 28.6113 52.2663 28.7381 52.316C28.865 52.3658 29.0004 52.3899 29.1367 52.3868C29.2729 52.3838 29.4071 52.3537 29.5316 52.2982C29.6561 52.2428 29.7683 52.1632 29.8617 52.0641L34.8498 46.9231C34.988 46.7807 35.082 46.6014 35.1205 46.4067C35.159 46.2121 35.1404 46.0105 35.0668 45.8262C34.9933 45.6419 34.868 45.4829 34.7061 45.3683C34.5441 45.2536 34.3524 45.1883 34.1542 45.1802ZM27.1706 52.3655C27.026 52.3604 26.8819 52.3858 26.7478 52.4402C26.6137 52.4946 26.4925 52.5766 26.3923 52.681L24.7348 54.4079C24.5477 54.6049 24.4463 54.8679 24.4526 55.1395C24.4589 55.4111 24.5725 55.6691 24.7685 55.8572C24.9645 56.0453 25.227 56.1482 25.4986 56.1433C25.7702 56.1384 26.0289 56.0262 26.218 55.8312L27.8756 54.1044C28.0129 53.9613 28.1059 53.7814 28.1433 53.5866C28.1808 53.3918 28.161 53.1904 28.0865 53.0065C28.012 52.8227 27.8858 52.6644 27.7233 52.5506C27.5608 52.4369 27.3688 52.3726 27.1706 52.3655ZM46.9567 56.0775L48.2231 57.3472L44.3716 61.2318L43.68 61.9295L42.423 60.6694L46.9567 56.0775ZM51.0829 57.3834L67.067 73.5049L59.4627 81.1744L43.4779 65.0529L45.0953 63.4217L51.113 69.4912C51.2085 69.5876 51.3223 69.6642 51.4476 69.7164C51.5729 69.7686 51.7073 69.7955 51.8431 69.7955C51.9788 69.7955 52.1132 69.7686 52.2385 69.7164C52.3638 69.6642 52.4776 69.5876 52.5731 69.4912L55.4955 66.5435C55.6863 66.351 55.7934 66.0908 55.7934 65.8197C55.7934 65.5486 55.6863 65.2885 55.4955 65.096L49.4654 59.0145L51.0829 57.3834ZM20.4175 59.0279L29.1618 67.8474L26.7313 70.2872L17.9861 61.4671L20.4175 59.0279ZM48.0177 60.475L53.3183 65.8197L51.8431 67.3077L46.5428 61.9626L48.0177 60.475ZM16.5343 62.9232L25.2795 71.7433L23.3456 73.6843L14.5997 64.8645L16.5343 62.9232ZM68.5137 74.9644L70.3761 76.8425L62.7711 84.5123L60.9088 82.6342L68.5137 74.9644Z" fill="#324176"/>
<path d="M69.9137 1.00324C69.4116 1.01316 68.9102 1.04565 68.411 1.10061C68.1418 1.13215 67.8959 1.26876 67.7269 1.4807C67.558 1.69264 67.4795 1.96275 67.5087 2.23224C67.5379 2.50173 67.6724 2.74877 67.8829 2.91958C68.0934 3.0904 68.3628 3.17116 68.6325 3.14428C70.8218 2.90304 73.0372 3.15679 75.1152 3.88677C77.1933 4.61675 79.0807 5.80431 80.6381 7.3617C82.1955 8.9191 83.3831 10.8065 84.113 12.8845C84.843 14.9625 85.0968 17.178 84.8555 19.3672C84.8262 19.6383 84.9057 19.9099 85.0766 20.1223C85.2475 20.3348 85.4957 20.4706 85.7668 20.5C86.0378 20.5294 86.3095 20.4499 86.5219 20.279C86.7343 20.1081 86.8702 19.8598 86.8995 19.5887C87.1601 17.2202 86.9124 14.8233 86.1731 12.558C85.4339 10.2927 84.2199 8.21113 82.6124 6.4522C81.0049 4.69327 79.0407 3.29742 76.8509 2.35779C74.6611 1.41817 72.2961 0.956378 69.9137 1.00324ZM70.4915 5.29436C69.7818 5.27965 69.0721 5.32555 68.3702 5.43154C68.1005 5.4717 67.8578 5.61734 67.6955 5.83642C67.5332 6.05551 67.4646 6.33009 67.5048 6.59977C67.5449 6.86944 67.6906 7.11212 67.9097 7.27442C68.1287 7.43672 68.4033 7.50534 68.673 7.46518C70.287 7.2207 71.9358 7.35886 73.4866 7.86853C75.0374 8.3782 76.4468 9.24512 77.6011 10.3994C78.7553 11.5537 79.6223 12.963 80.1319 14.5138C80.6416 16.0646 80.7798 17.7134 80.5353 19.3274C80.5154 19.4609 80.522 19.597 80.5547 19.728C80.5874 19.8589 80.6456 19.9822 80.726 20.0906C80.8063 20.1991 80.9073 20.2907 81.023 20.3601C81.1387 20.4296 81.267 20.4756 81.4005 20.4955C81.4512 20.503 81.5023 20.5068 81.5534 20.5068C81.7996 20.5066 82.0376 20.4179 82.2239 20.257C82.4103 20.0962 82.5327 19.8737 82.5689 19.6302C82.8339 17.8761 82.7216 16.0856 82.2397 14.3783C81.7578 12.671 80.9173 11.086 79.7743 9.7293C78.6313 8.37256 77.2121 7.27519 75.6113 6.51042C74.0106 5.74566 72.2652 5.33108 70.4915 5.29436ZM70.3169 9.58649C69.6303 9.5789 68.9454 9.6577 68.2785 9.82103L68.2779 9.82036C68.013 9.88501 67.7847 10.0522 67.6431 10.2852C67.5016 10.5182 67.4584 10.7979 67.523 11.0627C67.5877 11.3275 67.7549 11.5559 67.9879 11.6974C68.2208 11.839 68.5005 11.8822 68.7654 11.8175C69.7895 11.5662 70.8612 11.5832 71.8768 11.8669C72.8925 12.1506 73.8178 12.6914 74.5635 13.437C75.3092 14.1827 75.85 15.108 76.1337 16.1236C76.4175 17.1393 76.4345 18.2109 76.1833 19.2351C76.1493 19.3668 76.1419 19.504 76.1613 19.6387C76.1808 19.7733 76.2268 19.9028 76.2967 20.0195C76.3666 20.1363 76.459 20.238 76.5685 20.3187C76.678 20.3995 76.8025 20.4577 76.9347 20.49C77.0668 20.5223 77.2041 20.528 77.3385 20.5069C77.4729 20.4857 77.6018 20.438 77.7177 20.3667C77.8335 20.2953 77.9341 20.2017 78.0134 20.0912C78.0928 19.9806 78.1495 19.8555 78.1801 19.7229C78.4736 18.5248 78.4926 17.2759 78.2357 16.0695C77.9789 14.863 77.4528 13.7301 76.6967 12.7555C75.9406 11.7809 74.9742 10.9896 73.8694 10.4409C72.7647 9.89216 71.5503 9.60008 70.3169 9.58649ZM11.0694 14.5508C10.799 14.5535 10.5405 14.6627 10.35 14.8546L1.29798 23.9842C1.1071 24.1767 1 24.4369 1 24.708C1 24.9791 1.1071 25.2392 1.29798 25.4317L22.0396 46.3513C22.1352 46.4476 22.2489 46.5241 22.3742 46.5764C22.4995 46.6286 22.6338 46.6554 22.7696 46.6554C22.9053 46.6554 23.0397 46.6286 23.1649 46.5764C23.2902 46.5241 23.4039 46.4476 23.4995 46.3513L24.3651 45.4773L26.0223 47.1392L18.053 55.2049C17.8627 55.3968 17.756 55.6562 17.7562 55.9264C17.7564 56.1967 17.8634 56.4559 18.054 56.6476L18.9694 57.5687L12.4221 64.1378C12.2304 64.3318 12.1227 64.5936 12.1223 64.8664C12.1219 65.1392 12.2289 65.4013 12.4201 65.5959L22.6131 75.8846C22.8037 76.0841 23.0654 76.2001 23.3412 76.2074H23.3429C23.6183 76.2006 23.8798 76.0853 24.0706 75.8866L30.6092 69.3082L31.5159 70.236C31.7074 70.4345 31.9699 70.549 32.2457 70.5542H32.2467C32.3835 70.5516 32.5184 70.522 32.6437 70.4671C32.7691 70.4123 32.8823 70.3333 32.9771 70.2347L40.9772 62.1319L42.2316 63.3889L41.2997 64.3285C41.1089 64.521 41.0018 64.7811 41.0018 65.0522C41.0018 65.3233 41.1089 65.5834 41.2997 65.7759L62.0411 86.6958C62.1366 86.7922 62.2503 86.8687 62.3756 86.9209C62.5009 86.9731 62.6353 87 62.771 87C62.9067 87 63.0411 86.9731 63.1664 86.9209C63.2916 86.8687 63.4053 86.7922 63.5009 86.6958L72.5533 77.5662C72.7441 77.3737 72.8512 77.1136 72.8512 76.8425C72.8512 76.5714 72.7441 76.3113 72.5533 76.1188L51.8109 55.1995C51.7154 55.1031 51.6017 55.0266 51.4764 54.9744C51.3511 54.9222 51.2167 54.8953 51.081 54.8953C50.9453 54.8953 50.8109 54.9222 50.6856 54.9744C50.5604 55.0266 50.4467 55.1031 50.3511 55.1995L49.6692 55.8874L48.3994 54.6146L55.2673 47.6595C55.4576 47.4662 55.5642 47.2057 55.5639 46.9344C55.5637 46.663 55.4566 46.4027 55.2659 46.2097L51.7407 42.6527L53.7378 40.6545C56.4096 42.1026 59.4656 42.684 62.4824 42.3181C65.4993 41.9523 68.3277 40.6573 70.5758 38.6125C70.6787 38.5192 70.7616 38.4061 70.8195 38.2799C70.8774 38.1537 70.9091 38.0171 70.9128 37.8783C70.9164 37.7395 70.8919 37.6014 70.8408 37.4723C70.7896 37.3432 70.7128 37.2259 70.615 37.1273L61.5964 28.0308L65.5439 24.0833C66.13 24.3314 66.7842 24.3678 67.3942 24.1865C68.0043 24.0051 68.5323 23.6172 68.8877 23.0892C69.2432 22.5613 69.4039 21.9261 69.3423 21.2926C69.2808 20.6592 69.0008 20.0668 68.5504 19.6172C68.1 19.1675 67.5072 18.8885 66.8736 18.8279C66.24 18.7674 65.6051 18.9291 65.0777 19.2854C64.5503 19.6417 64.1633 20.1703 63.9829 20.7807C63.8025 21.391 63.8401 22.0451 64.0891 22.6308L60.149 26.571L51.2308 17.5758C51.132 17.4762 51.0138 17.3978 50.8836 17.3456C50.7533 17.2933 50.6138 17.2683 50.4735 17.272C50.3332 17.2757 50.1952 17.3082 50.0679 17.3673C49.9406 17.4264 49.8268 17.5109 49.7335 17.6157C47.8055 19.7858 46.5508 22.4701 46.1223 25.3412C45.6939 28.2122 46.1103 31.1459 47.3207 33.7844L45.1261 35.9793L41.8046 32.6431C41.7084 32.5486 41.5943 32.4741 41.469 32.4242C41.3438 32.3742 41.2098 32.3497 41.0749 32.352H41.0739C40.9388 32.3496 40.8046 32.3741 40.6792 32.4243C40.5537 32.4745 40.4396 32.5492 40.3435 32.6441L33.4472 39.624L31.8027 37.9758L32.5508 37.2223C32.7417 37.0298 32.8488 36.7697 32.8488 36.4986C32.8488 36.2275 32.7417 35.9674 32.5508 35.7749L11.8098 14.8546C11.713 14.757 11.5976 14.6799 11.4704 14.6277C11.3432 14.5755 11.2069 14.5494 11.0694 14.5508ZM11.0801 17.0381L12.9424 18.9162L5.3375 26.5863L3.4755 24.7083L11.0801 17.0381ZM50.5739 19.8333L68.3675 37.7797C65.9289 39.642 62.8948 40.551 59.834 40.3366C56.7731 40.1221 53.8955 38.7988 51.7403 36.6147C49.5701 34.4199 48.2589 31.5195 48.0448 28.4403C47.8308 25.3611 48.7282 22.3073 50.5739 19.8333ZM14.3895 20.3764L30.3743 36.4976L28.7569 38.129L22.7082 32.0281C22.6126 31.9317 22.4989 31.8552 22.3736 31.803C22.2483 31.7508 22.114 31.724 21.9782 31.724C21.8425 31.724 21.7081 31.7508 21.5829 31.803C21.4576 31.8552 21.3439 31.9317 21.2483 32.0281L18.3257 34.9759C18.1348 35.1684 18.0277 35.4285 18.0277 35.6996C18.0277 35.9707 18.1348 36.2308 18.3257 36.4233L24.3868 42.5363L22.7694 44.1677L6.78528 28.0462L14.3895 20.3764ZM66.6123 20.8742C66.7478 20.8742 66.8803 20.9144 66.993 20.9897C67.1056 21.065 67.1935 21.172 67.2453 21.2972C67.2972 21.4224 67.3108 21.5602 67.2843 21.6931C67.2579 21.8261 67.1926 21.9482 67.0968 22.044C67.001 22.1398 66.8789 22.2051 66.7459 22.2315C66.613 22.258 66.4752 22.2444 66.35 22.1925C66.2248 22.1407 66.1178 22.0529 66.0425 21.9402C65.9672 21.8275 65.927 21.695 65.927 21.5595C65.927 21.3777 65.9992 21.2034 66.1277 21.0749C66.2562 20.9464 66.4305 20.8742 66.6123 20.8742ZM21.9781 34.212L27.3091 39.5889L25.8342 41.0765L20.5029 35.6999L21.9781 34.212ZM41.0762 34.8146L53.0904 46.9318L49.3082 50.7612L37.294 38.644L41.0762 34.8146ZM48.3516 35.6624C49.3151 37.1545 50.5381 38.4618 51.9628 39.5223L50.2939 41.1916L46.5742 37.4398L48.3516 35.6624ZM30.3559 39.436L32.0024 41.0865L27.4671 45.6777L25.8125 44.0182L30.3559 39.436ZM35.8502 40.1061L47.8638 52.224L32.2454 68.0371L20.2308 55.9199L35.8502 40.1061ZM34.1542 45.1802C34.0096 45.1742 33.8654 45.1989 33.731 45.2525C33.5966 45.3061 33.475 45.3875 33.3743 45.4914L28.3865 50.6327C28.2902 50.7291 28.214 50.8436 28.1624 50.9697C28.1108 51.0958 28.0847 51.2309 28.0858 51.3672C28.0868 51.5034 28.1149 51.6381 28.1685 51.7634C28.2221 51.8886 28.3 52.002 28.3978 52.0969C28.4956 52.1918 28.6113 52.2663 28.7381 52.316C28.865 52.3658 29.0004 52.3899 29.1367 52.3868C29.2729 52.3838 29.4071 52.3537 29.5316 52.2982C29.6561 52.2428 29.7683 52.1632 29.8617 52.0641L34.8498 46.9231C34.988 46.7807 35.082 46.6014 35.1205 46.4067C35.159 46.2121 35.1404 46.0105 35.0668 45.8262C34.9933 45.6419 34.868 45.4829 34.7061 45.3683C34.5441 45.2536 34.3524 45.1883 34.1542 45.1802ZM27.1706 52.3655C27.026 52.3604 26.8819 52.3858 26.7478 52.4402C26.6137 52.4946 26.4925 52.5766 26.3923 52.681L24.7348 54.4079C24.5477 54.6049 24.4463 54.8679 24.4526 55.1395C24.4589 55.4111 24.5725 55.6691 24.7685 55.8572C24.9645 56.0453 25.227 56.1482 25.4986 56.1433C25.7702 56.1384 26.0289 56.0262 26.218 55.8312L27.8756 54.1044C28.0129 53.9613 28.1059 53.7814 28.1433 53.5866C28.1808 53.3918 28.161 53.1904 28.0865 53.0065C28.012 52.8227 27.8858 52.6644 27.7233 52.5506C27.5608 52.4369 27.3688 52.3726 27.1706 52.3655ZM46.9567 56.0775L48.2231 57.3472L44.3716 61.2318L43.68 61.9295L42.423 60.6694L46.9567 56.0775ZM51.0829 57.3834L67.067 73.5049L59.4627 81.1744L43.4779 65.0529L45.0953 63.4217L51.113 69.4912C51.2085 69.5876 51.3223 69.6642 51.4476 69.7164C51.5729 69.7686 51.7073 69.7955 51.8431 69.7955C51.9788 69.7955 52.1132 69.7686 52.2385 69.7164C52.3638 69.6642 52.4776 69.5876 52.5731 69.4912L55.4955 66.5435C55.6863 66.351 55.7934 66.0908 55.7934 65.8197C55.7934 65.5486 55.6863 65.2885 55.4955 65.096L49.4654 59.0145L51.0829 57.3834ZM20.4175 59.0279L29.1618 67.8474L26.7313 70.2872L17.9861 61.4671L20.4175 59.0279ZM48.0177 60.475L53.3183 65.8197L51.8431 67.3077L46.5428 61.9626L48.0177 60.475ZM16.5343 62.9232L25.2795 71.7433L23.3456 73.6843L14.5997 64.8645L16.5343 62.9232ZM68.5137 74.9644L70.3761 76.8425L62.7711 84.5123L60.9088 82.6342L68.5137 74.9644Z" stroke="#324176" stroke-width="0.6" mask="url(#path-1-outside-1_352_17928)"/>
</svg>
