<?xml version="1.0" encoding="utf-8"?>
<!-- Generator: Adobe Illustrator 27.0.1, SVG Export Plug-In . SVG Version: 6.00 Build 0)  -->
<svg version="1.1" id="Calque_1" xmlns="http://www.w3.org/2000/svg" xmlns:xlink="http://www.w3.org/1999/xlink" x="0px" y="0px"
     viewBox="0 0 552.8 249.4" style="enable-background:new 0 0 552.8 249.4;" xml:space="preserve">
<style type="text/css">
    .st0{enable-background:new    ;}
    .st1{fill:#232322;}
    .st2{fill:none;stroke:#232322;stroke-width:0.73;stroke-miterlimit:10;}
    .st3{fill:url(#SVGID_1_);}
    .st4{fill:url(#SVGID_00000057126233930023875670000010984604465752659613_);}
</style>
<g>
    <g class="st0">
        <path class="st1" d="M284.3,196.4c-0.3,0-0.5-0.1-0.7-0.3s-0.3-0.4-0.3-0.7v-17c0-0.3,0.1-0.5,0.3-0.7c0.2-0.2,0.4-0.3,0.7-0.3
            c0.4,0,0.7,0.2,0.8,0.5l8.2,16.2h-0.8l8-16.2c0.2-0.3,0.5-0.5,0.8-0.5c0.3,0,0.5,0.1,0.7,0.3c0.2,0.2,0.3,0.4,0.3,0.7v17
            c0,0.3-0.1,0.5-0.3,0.7c-0.2,0.2-0.4,0.3-0.7,0.3c-0.3,0-0.5-0.1-0.7-0.3s-0.3-0.4-0.3-0.7v-14.6l0.4,0l-7.2,14.6
            c-0.2,0.3-0.5,0.5-0.8,0.5c-0.4,0-0.7-0.2-0.9-0.6l-7.2-14.4l0.5-0.1v14.6c0,0.3-0.1,0.5-0.3,0.7
            C284.8,196.3,284.6,196.4,284.3,196.4z"/>
    </g>
    <g class="st0">
        <path class="st1" d="M311.4,196.5c-1.2,0-2.4-0.3-3.3-0.9c-1-0.6-1.8-1.4-2.3-2.4c-0.6-1-0.9-2.2-0.9-3.4c0-1.3,0.3-2.4,0.9-3.5
            c0.6-1,1.4-1.8,2.4-2.4c1-0.6,2.2-0.9,3.4-0.9c1.3,0,2.4,0.3,3.4,0.9c1,0.6,1.8,1.4,2.4,2.4c0.6,1,0.9,2.2,0.9,3.5l-0.8,0.6
            c0,1.2-0.3,2.2-0.8,3.1s-1.3,1.7-2.2,2.2C313.6,196.3,312.6,196.5,311.4,196.5z M311.6,194.8c0.9,0,1.8-0.2,2.5-0.7
            c0.7-0.4,1.3-1,1.7-1.8c0.4-0.8,0.6-1.6,0.6-2.6c0-1-0.2-1.8-0.6-2.6c-0.4-0.8-1-1.4-1.7-1.8s-1.6-0.7-2.5-0.7
            c-0.9,0-1.8,0.2-2.5,0.7s-1.3,1-1.8,1.8s-0.7,1.6-0.7,2.6c0,1,0.2,1.8,0.7,2.6s1,1.4,1.8,1.8C309.9,194.6,310.7,194.8,311.6,194.8
            z M317.4,196.4c-0.3,0-0.5-0.1-0.7-0.3c-0.2-0.2-0.3-0.4-0.3-0.7v-4.1l0.5-1.9l1.4,0.4v5.7c0,0.3-0.1,0.5-0.3,0.7
            C317.9,196.3,317.7,196.4,317.4,196.4z"/>
    </g>
    <g class="st0">
        <path class="st1" d="M322,196.4c-0.3,0-0.5-0.1-0.7-0.3c-0.2-0.2-0.3-0.4-0.3-0.7v-11.4c0-0.3,0.1-0.5,0.3-0.7
            c0.2-0.2,0.4-0.3,0.7-0.3c0.3,0,0.5,0.1,0.7,0.3c0.2,0.2,0.3,0.4,0.3,0.7v11.4c0,0.3-0.1,0.5-0.3,0.7
            C322.5,196.3,322.2,196.4,322,196.4z M332.4,196.4c-0.3,0-0.5-0.1-0.7-0.3s-0.3-0.4-0.3-0.7v-6.3c0-1-0.2-1.8-0.6-2.5
            c-0.4-0.6-0.9-1.1-1.6-1.5s-1.4-0.5-2.2-0.5c-0.8,0-1.5,0.2-2.1,0.5c-0.6,0.3-1.1,0.7-1.5,1.3c-0.4,0.5-0.6,1.1-0.6,1.8h-1.3
            c0-1,0.3-1.9,0.8-2.7c0.5-0.8,1.2-1.4,2.1-1.9c0.9-0.5,1.8-0.7,2.9-0.7c1.1,0,2.2,0.2,3.1,0.7c0.9,0.5,1.6,1.2,2.1,2.1
            c0.5,0.9,0.8,2,0.8,3.4v6.3c0,0.3-0.1,0.5-0.3,0.7S332.6,196.4,332.4,196.4z"/>
    </g>
    <g class="st0">
        <path class="st1" d="M342,196.5c-1.3,0-2.4-0.3-3.4-0.9c-1-0.6-1.8-1.4-2.3-2.4c-0.6-1-0.8-2.2-0.8-3.5c0-1.3,0.3-2.5,0.9-3.5
            c0.6-1,1.4-1.8,2.4-2.4c1-0.6,2.2-0.9,3.5-0.9c1.3,0,2.5,0.3,3.5,0.9c1,0.6,1.8,1.4,2.4,2.4c0.6,1,0.9,2.2,0.9,3.5l-1.1,0.6
            c0,1.2-0.2,2.3-0.8,3.2c-0.5,0.9-1.2,1.7-2.1,2.2C344.2,196.3,343.2,196.5,342,196.5z M342.3,201.6c-1.3,0-2.4-0.2-3.4-0.7
            s-1.8-1.1-2.4-2c-0.2-0.2-0.3-0.4-0.2-0.6c0-0.2,0.1-0.4,0.4-0.6s0.4-0.2,0.7-0.1c0.3,0,0.5,0.2,0.6,0.4c0.5,0.6,1.1,1.1,1.8,1.4
            s1.6,0.5,2.6,0.5c0.9,0,1.7-0.2,2.4-0.7s1.3-1.1,1.7-1.8c0.4-0.8,0.6-1.7,0.6-2.8V191l0.7-1.4l1.1,0.2v4.9c0,1.3-0.3,2.5-0.9,3.5
            c-0.6,1-1.4,1.9-2.4,2.5C344.7,201.3,343.6,201.6,342.3,201.6z M342.2,194.8c1,0,1.8-0.2,2.5-0.6c0.7-0.4,1.3-1,1.7-1.8
            c0.4-0.8,0.6-1.6,0.6-2.6c0-1-0.2-1.9-0.6-2.6c-0.4-0.8-1-1.4-1.7-1.8c-0.7-0.4-1.6-0.6-2.5-0.6c-1,0-1.8,0.2-2.5,0.6
            c-0.7,0.4-1.3,1-1.7,1.8c-0.4,0.8-0.6,1.6-0.6,2.6c0,1,0.2,1.9,0.6,2.6c0.4,0.8,1,1.4,1.7,1.8S341.3,194.8,342.2,194.8z"/>
    </g>
    <g class="st0">
        <path class="st1" d="M352.5,196.4c-0.3,0-0.5-0.1-0.7-0.2c-0.2-0.2-0.2-0.4-0.2-0.7v-11.4c0-0.3,0.1-0.5,0.2-0.7
            c0.2-0.2,0.4-0.2,0.7-0.2s0.5,0.1,0.7,0.2c0.2,0.2,0.2,0.4,0.2,0.7v11.4c0,0.3-0.1,0.5-0.2,0.7
            C353.1,196.3,352.8,196.4,352.5,196.4z M352.4,188.2c0-1,0.3-1.9,0.8-2.7c0.5-0.8,1.1-1.4,1.9-1.9c0.8-0.5,1.6-0.7,2.6-0.7
            c0.7,0,1.3,0.1,1.7,0.3c0.4,0.2,0.6,0.5,0.5,0.9c-0.1,0.2-0.2,0.4-0.3,0.5c-0.2,0.1-0.3,0.1-0.6,0.1c-0.2,0-0.5,0-0.7,0
            c-0.9-0.1-1.7,0-2.4,0.3s-1.3,0.7-1.7,1.2c-0.4,0.5-0.6,1.2-0.6,2H352.4z"/>
    </g>
    <g class="st0">
        <path class="st1" d="M366.8,196.5c-1.3,0-2.4-0.3-3.5-0.9c-1-0.6-1.8-1.4-2.4-2.4c-0.6-1-0.9-2.2-0.9-3.5c0-1.3,0.3-2.5,0.9-3.5
            c0.6-1,1.4-1.8,2.4-2.4c1-0.6,2.2-0.9,3.5-0.9s2.4,0.3,3.5,0.9s1.8,1.4,2.4,2.4c0.6,1,0.9,2.2,0.9,3.5c0,1.3-0.3,2.4-0.9,3.5
            c-0.6,1-1.4,1.8-2.4,2.4C369.2,196.2,368.1,196.5,366.8,196.5z M366.8,194.8c0.9,0,1.8-0.2,2.5-0.7c0.7-0.4,1.3-1,1.7-1.8
            c0.4-0.8,0.6-1.6,0.6-2.6s-0.2-1.8-0.6-2.6c-0.4-0.8-1-1.4-1.7-1.8c-0.7-0.4-1.6-0.7-2.5-0.7s-1.8,0.2-2.5,0.7s-1.3,1-1.8,1.8
            c-0.4,0.8-0.6,1.6-0.6,2.6s0.2,1.8,0.6,2.6c0.4,0.8,1,1.4,1.8,1.8C365,194.6,365.8,194.8,366.8,194.8z"/>
    </g>
    <g class="st0">
        <path class="st1" d="M380.1,196.4c-0.4,0-0.7-0.2-0.9-0.6l-5.4-11.4c-0.1-0.2-0.1-0.4,0-0.6c0.1-0.2,0.2-0.4,0.5-0.5
            c0.2-0.1,0.4-0.1,0.7,0c0.2,0.1,0.4,0.2,0.5,0.4l5.2,11.2h-1l5.1-11.2c0.1-0.2,0.3-0.4,0.5-0.4c0.2-0.1,0.5-0.1,0.7,0
            c0.2,0.1,0.4,0.3,0.5,0.5c0.1,0.2,0.1,0.4,0,0.6l-5.3,11.4C380.8,196.2,380.5,196.4,380.1,196.4z"/>
    </g>
    <g class="st0">
        <path class="st1" d="M393.4,196.5c-1.3,0-2.5-0.3-3.5-0.9c-1-0.6-1.8-1.4-2.4-2.4c-0.6-1-0.9-2.2-0.9-3.5c0-1.3,0.3-2.5,0.8-3.5
            c0.5-1,1.3-1.8,2.2-2.4c1-0.6,2.1-0.9,3.3-0.9c1.2,0,2.3,0.3,3.2,0.8c0.9,0.6,1.6,1.3,2.1,2.3c0.5,1,0.8,2.1,0.8,3.4
            c0,0.3-0.1,0.5-0.2,0.6c-0.2,0.2-0.4,0.2-0.6,0.2h-10.3v-1.6h10.5l-1,0.8c0-0.9-0.2-1.8-0.5-2.5s-0.9-1.3-1.5-1.7
            c-0.7-0.4-1.4-0.6-2.3-0.6c-0.9,0-1.7,0.2-2.4,0.7c-0.7,0.4-1.2,1-1.6,1.8c-0.4,0.8-0.6,1.6-0.6,2.6c0,1,0.2,1.9,0.6,2.6
            c0.4,0.8,1,1.4,1.8,1.8s1.6,0.7,2.6,0.7c0.6,0,1.2-0.1,1.8-0.3c0.6-0.2,1.1-0.5,1.4-0.8c0.2-0.1,0.4-0.2,0.6-0.2
            c0.2,0,0.4,0.1,0.6,0.2c0.2,0.2,0.3,0.4,0.3,0.6c0,0.2-0.1,0.4-0.3,0.6c-0.5,0.5-1.2,0.8-2,1.1C395,196.4,394.2,196.5,393.4,196.5
            z"/>
    </g>
    <g class="st0">
        <path class="st1" d="M284.3,220.6c-0.3,0-0.5-0.1-0.7-0.3s-0.3-0.4-0.3-0.7v-17c0-0.3,0.1-0.5,0.3-0.7c0.2-0.2,0.4-0.3,0.7-0.3
            c0.4,0,0.7,0.2,0.8,0.5l8.2,16.2h-0.8l8-16.2c0.2-0.3,0.5-0.5,0.8-0.5c0.3,0,0.5,0.1,0.7,0.3c0.2,0.2,0.3,0.4,0.3,0.7v17
            c0,0.3-0.1,0.5-0.3,0.7c-0.2,0.2-0.4,0.3-0.7,0.3c-0.3,0-0.5-0.1-0.7-0.3s-0.3-0.4-0.3-0.7v-14.6l0.4,0l-7.2,14.6
            c-0.2,0.3-0.5,0.5-0.8,0.5c-0.4,0-0.7-0.2-0.9-0.6l-7.2-14.4l0.5-0.1v14.6c0,0.3-0.1,0.5-0.3,0.7
            C284.8,220.5,284.6,220.6,284.3,220.6z"/>
    </g>
    <g class="st0">
        <path class="st1" d="M311.4,220.8c-1.2,0-2.4-0.3-3.3-0.9c-1-0.6-1.8-1.4-2.3-2.4c-0.6-1-0.9-2.2-0.9-3.4c0-1.3,0.3-2.4,0.9-3.5
            c0.6-1,1.4-1.8,2.4-2.4c1-0.6,2.2-0.9,3.4-0.9c1.3,0,2.4,0.3,3.4,0.9c1,0.6,1.8,1.4,2.4,2.4c0.6,1,0.9,2.2,0.9,3.5l-0.8,0.6
            c0,1.2-0.3,2.2-0.8,3.1s-1.3,1.7-2.2,2.2C313.6,220.5,312.6,220.8,311.4,220.8z M311.6,219.1c0.9,0,1.8-0.2,2.5-0.7
            c0.7-0.4,1.3-1,1.7-1.8c0.4-0.8,0.6-1.6,0.6-2.6c0-1-0.2-1.8-0.6-2.6c-0.4-0.8-1-1.4-1.7-1.8s-1.6-0.7-2.5-0.7
            c-0.9,0-1.8,0.2-2.5,0.7s-1.3,1-1.8,1.8s-0.7,1.6-0.7,2.6c0,1,0.2,1.8,0.7,2.6s1,1.4,1.8,1.8C309.9,218.8,310.7,219.1,311.6,219.1
            z M317.4,220.6c-0.3,0-0.5-0.1-0.7-0.3c-0.2-0.2-0.3-0.4-0.3-0.7v-4.1l0.5-1.9l1.4,0.4v5.7c0,0.3-0.1,0.5-0.3,0.7
            C317.9,220.6,317.7,220.6,317.4,220.6z"/>
    </g>
    <g class="st0">
        <path class="st1" d="M321.9,226.3c-0.3,0-0.5-0.1-0.7-0.3c-0.2-0.2-0.3-0.4-0.3-0.7v-11.4c0-1.3,0.3-2.4,0.9-3.4
            c0.6-1,1.4-1.8,2.4-2.4s2.1-0.9,3.4-0.9c1.3,0,2.4,0.3,3.5,0.9c1,0.6,1.8,1.4,2.4,2.4c0.6,1,0.9,2.2,0.9,3.5
            c0,1.3-0.3,2.4-0.9,3.4c-0.6,1-1.4,1.8-2.3,2.4c-1,0.6-2.1,0.9-3.3,0.9c-1.1,0-2.1-0.2-2.9-0.7c-0.9-0.5-1.6-1.1-2.1-1.8v7.1
            c0,0.3-0.1,0.5-0.3,0.7C322.4,226.2,322.2,226.3,321.9,226.3z M327.6,219.1c0.9,0,1.8-0.2,2.5-0.7c0.7-0.4,1.3-1,1.8-1.8
            c0.4-0.8,0.6-1.6,0.6-2.6c0-1-0.2-1.8-0.6-2.6c-0.4-0.8-1-1.4-1.8-1.8s-1.6-0.7-2.5-0.7c-0.9,0-1.8,0.2-2.5,0.7s-1.3,1-1.7,1.8
            s-0.6,1.6-0.6,2.6c0,1,0.2,1.8,0.6,2.6s1,1.4,1.7,1.8C325.9,218.8,326.7,219.1,327.6,219.1z"/>
    </g>
    <g class="st0">
        <path class="st1" d="M337.6,226.3c-0.3,0-0.5-0.1-0.7-0.3c-0.2-0.2-0.3-0.4-0.3-0.7v-11.4c0-1.3,0.3-2.4,0.9-3.4s1.4-1.8,2.4-2.4
            s2.1-0.9,3.4-0.9c1.3,0,2.4,0.3,3.5,0.9c1,0.6,1.8,1.4,2.4,2.4c0.6,1,0.9,2.2,0.9,3.5c0,1.3-0.3,2.4-0.9,3.4
            c-0.6,1-1.4,1.8-2.3,2.4c-1,0.6-2.1,0.9-3.3,0.9c-1.1,0-2.1-0.2-2.9-0.7c-0.9-0.5-1.6-1.1-2.1-1.8v7.1c0,0.3-0.1,0.5-0.3,0.7
            C338.1,226.2,337.9,226.3,337.6,226.3z M343.4,219.1c0.9,0,1.8-0.2,2.5-0.7c0.7-0.4,1.3-1,1.8-1.8c0.4-0.8,0.6-1.6,0.6-2.6
            c0-1-0.2-1.8-0.6-2.6c-0.4-0.8-1-1.4-1.8-1.8s-1.6-0.7-2.5-0.7c-0.9,0-1.8,0.2-2.5,0.7s-1.3,1-1.7,1.8s-0.6,1.6-0.6,2.6
            c0,1,0.2,1.8,0.6,2.6s1,1.4,1.7,1.8C341.6,218.8,342.4,219.1,343.4,219.1z"/>
    </g>
    <g class="st0">
        <path class="st1" d="M353.6,204.9c-0.4,0-0.7-0.1-0.9-0.4c-0.3-0.3-0.4-0.6-0.4-0.9c0-0.4,0.1-0.7,0.4-1c0.3-0.2,0.6-0.4,0.9-0.4
            c0.3,0,0.6,0.1,0.9,0.4c0.3,0.2,0.4,0.6,0.4,1c0,0.4-0.1,0.7-0.4,0.9S353.9,204.9,353.6,204.9z M353.6,220.6
            c-0.3,0-0.5-0.1-0.7-0.3c-0.2-0.2-0.3-0.4-0.3-0.7v-11.4c0-0.3,0.1-0.5,0.3-0.7c0.2-0.2,0.4-0.3,0.7-0.3c0.3,0,0.5,0.1,0.7,0.3
            c0.2,0.2,0.3,0.4,0.3,0.7v11.4c0,0.3-0.1,0.5-0.3,0.7C354.1,220.6,353.9,220.6,353.6,220.6z"/>
    </g>
    <g class="st0">
        <path class="st1" d="M358.8,220.6c-0.3,0-0.5-0.1-0.7-0.3c-0.2-0.2-0.3-0.4-0.3-0.7v-11.4c0-0.3,0.1-0.5,0.3-0.7
            c0.2-0.2,0.4-0.3,0.7-0.3c0.3,0,0.5,0.1,0.7,0.3c0.2,0.2,0.3,0.4,0.3,0.7v11.4c0,0.3-0.1,0.5-0.3,0.7
            C359.3,220.6,359.1,220.6,358.8,220.6z M369.2,220.6c-0.3,0-0.5-0.1-0.7-0.3s-0.3-0.4-0.3-0.7v-6.3c0-1-0.2-1.8-0.6-2.5
            c-0.4-0.6-0.9-1.1-1.6-1.5s-1.4-0.5-2.2-0.5c-0.8,0-1.5,0.2-2.1,0.5c-0.6,0.3-1.1,0.7-1.5,1.3c-0.4,0.5-0.6,1.1-0.6,1.8h-1.3
            c0-1,0.3-1.9,0.8-2.7c0.5-0.8,1.2-1.4,2.1-1.9c0.9-0.5,1.8-0.7,2.9-0.7c1.1,0,2.2,0.2,3.1,0.7c0.9,0.5,1.6,1.2,2.1,2.1
            c0.5,0.9,0.8,2,0.8,3.4v6.3c0,0.3-0.1,0.5-0.3,0.7S369.5,220.6,369.2,220.6z"/>
    </g>
    <g class="st0">
        <path class="st1" d="M378.9,220.8c-1.3,0-2.4-0.3-3.4-0.9c-1-0.6-1.8-1.4-2.3-2.4s-0.8-2.2-0.8-3.5c0-1.3,0.3-2.5,0.9-3.5
            c0.6-1,1.4-1.8,2.4-2.4c1-0.6,2.2-0.9,3.5-0.9c1.3,0,2.5,0.3,3.5,0.9c1,0.6,1.8,1.4,2.4,2.4c0.6,1,0.9,2.2,0.9,3.5l-1.1,0.6
            c0,1.2-0.3,2.3-0.8,3.2c-0.5,0.9-1.2,1.7-2.1,2.2C381,220.5,380,220.8,378.9,220.8z M379.1,225.9c-1.3,0-2.4-0.2-3.4-0.7
            s-1.8-1.1-2.4-2c-0.2-0.2-0.3-0.4-0.2-0.6c0-0.2,0.1-0.4,0.4-0.6c0.2-0.1,0.4-0.2,0.7-0.1s0.5,0.2,0.6,0.4
            c0.5,0.6,1.1,1.1,1.8,1.4s1.6,0.5,2.6,0.5c0.9,0,1.7-0.2,2.4-0.7c0.7-0.4,1.3-1.1,1.7-1.8c0.4-0.8,0.6-1.7,0.6-2.8v-3.7l0.7-1.4
            l1.1,0.2v4.9c0,1.3-0.3,2.5-0.9,3.5s-1.4,1.9-2.4,2.5C381.5,225.6,380.4,225.9,379.1,225.9z M379,219.1c1,0,1.8-0.2,2.5-0.6
            s1.3-1,1.7-1.8c0.4-0.8,0.6-1.6,0.6-2.6c0-1-0.2-1.9-0.6-2.6c-0.4-0.8-1-1.4-1.7-1.8c-0.7-0.4-1.6-0.6-2.5-0.6
            c-1,0-1.8,0.2-2.5,0.6c-0.7,0.4-1.3,1-1.7,1.8c-0.4,0.8-0.6,1.6-0.6,2.6c0,1,0.2,1.9,0.6,2.6c0.4,0.8,1,1.4,1.7,1.8
            S378.1,219.1,379,219.1z"/>
        <path class="st1" d="M398.1,220.8c-1.1,0-2-0.2-2.7-0.6c-0.8-0.4-1.3-0.9-1.8-1.6c-0.4-0.7-0.6-1.5-0.6-2.4c0-1,0.3-2,1-2.9
            s1.6-1.8,2.9-2.8l2-1.6c0.7-0.5,1.2-1.1,1.6-1.7c0.3-0.6,0.5-1.2,0.5-1.8c0-0.7-0.2-1.2-0.7-1.7c-0.5-0.5-1.1-0.7-1.9-0.7
            c-0.7,0-1.3,0.2-1.8,0.7c-0.5,0.5-0.7,1-0.7,1.6c0,0.5,0.1,1,0.3,1.4c0.2,0.4,0.5,0.9,0.9,1.3l10.9,10.9c0.2,0.2,0.3,0.4,0.3,0.6
            s0,0.4-0.2,0.6c-0.4,0.4-0.8,0.4-1.2,0l-11-11c-0.5-0.5-0.9-1.1-1.2-1.7c-0.3-0.6-0.4-1.3-0.4-2c0-0.7,0.2-1.4,0.6-2
            s0.9-1,1.5-1.4c0.6-0.3,1.3-0.5,2.2-0.5c0.8,0,1.6,0.2,2.2,0.5s1.2,0.8,1.5,1.4c0.4,0.6,0.6,1.3,0.6,2.1c0,0.6-0.1,1.2-0.4,1.7
            s-0.6,1-1,1.5s-1,1-1.6,1.4l-2,1.6c-0.7,0.5-1.3,1.1-1.7,1.6s-0.8,1-1,1.5c-0.2,0.5-0.3,1-0.3,1.5c0,0.9,0.3,1.6,0.9,2.1
            c0.6,0.5,1.4,0.8,2.5,0.8c0.8,0,1.6-0.2,2.3-0.6c0.7-0.4,1.4-1,2.1-1.8l3.7-3.9c0.2-0.2,0.4-0.3,0.6-0.4c0.2,0,0.4,0,0.6,0.2
            c0.2,0.2,0.3,0.4,0.3,0.6c0,0.2-0.1,0.4-0.3,0.6l-3.7,3.9c-0.8,0.9-1.7,1.6-2.6,2.2C400.2,220.5,399.2,220.8,398.1,220.8z"/>
    </g>
    <g class="st0">
        <path class="st1" d="M417.4,220.6c-0.3,0-0.5-0.1-0.7-0.3c-0.2-0.2-0.3-0.4-0.3-0.7v-17c0-0.3,0.1-0.5,0.3-0.7
            c0.2-0.2,0.4-0.3,0.7-0.3c0.4,0,0.7,0.2,0.8,0.5l8.2,16.2h-0.8l8-16.2c0.2-0.3,0.5-0.5,0.8-0.5c0.3,0,0.5,0.1,0.7,0.3
            c0.2,0.2,0.3,0.4,0.3,0.7v17c0,0.3-0.1,0.5-0.3,0.7s-0.4,0.3-0.7,0.3c-0.3,0-0.5-0.1-0.7-0.3c-0.2-0.2-0.3-0.4-0.3-0.7v-14.6
            l0.4,0l-7.2,14.6c-0.2,0.3-0.5,0.5-0.8,0.5c-0.4,0-0.7-0.2-0.9-0.6l-7.2-14.4l0.5-0.1v14.6c0,0.3-0.1,0.5-0.3,0.7
            S417.7,220.6,417.4,220.6z"/>
    </g>
    <g class="st0">
        <path class="st1" d="M444.7,220.8c-1.3,0-2.4-0.3-3.5-0.9c-1-0.6-1.8-1.4-2.4-2.4c-0.6-1-0.9-2.2-0.9-3.5c0-1.3,0.3-2.5,0.9-3.5
            c0.6-1,1.4-1.8,2.4-2.4c1-0.6,2.2-0.9,3.5-0.9s2.4,0.3,3.5,0.9s1.8,1.4,2.4,2.4c0.6,1,0.9,2.2,0.9,3.5c0,1.3-0.3,2.4-0.9,3.5
            c-0.6,1-1.4,1.8-2.4,2.4C447.2,220.5,446,220.8,444.7,220.8z M444.7,219.1c0.9,0,1.8-0.2,2.5-0.7c0.7-0.4,1.3-1,1.7-1.8
            c0.4-0.8,0.6-1.6,0.6-2.6s-0.2-1.8-0.6-2.6c-0.4-0.8-1-1.4-1.7-1.8c-0.7-0.4-1.6-0.7-2.5-0.7s-1.8,0.2-2.5,0.7s-1.3,1-1.8,1.8
            c-0.4,0.8-0.6,1.6-0.6,2.6s0.2,1.8,0.6,2.6c0.4,0.8,1,1.4,1.8,1.8C442.9,218.8,443.8,219.1,444.7,219.1z"/>
    </g>
    <g class="st0">
        <path class="st1" d="M454.8,220.6c-0.3,0-0.5-0.1-0.7-0.3c-0.2-0.2-0.3-0.4-0.3-0.7v-11.4c0-0.3,0.1-0.5,0.3-0.7
            c0.2-0.2,0.4-0.3,0.7-0.3c0.3,0,0.5,0.1,0.7,0.3c0.2,0.2,0.3,0.4,0.3,0.7v11.4c0,0.3-0.1,0.5-0.3,0.7
            C455.3,220.6,455.1,220.6,454.8,220.6z M465.2,220.6c-0.3,0-0.5-0.1-0.7-0.3s-0.3-0.4-0.3-0.7v-6.3c0-1-0.2-1.8-0.6-2.5
            c-0.4-0.6-0.9-1.1-1.6-1.5s-1.4-0.5-2.2-0.5c-0.8,0-1.5,0.2-2.1,0.5c-0.6,0.3-1.1,0.7-1.5,1.3c-0.4,0.5-0.6,1.1-0.6,1.8h-1.3
            c0-1,0.3-1.9,0.8-2.7c0.5-0.8,1.2-1.4,2.1-1.9c0.9-0.5,1.8-0.7,2.9-0.7c1.1,0,2.2,0.2,3.1,0.7c0.9,0.5,1.6,1.2,2.1,2.1
            c0.5,0.9,0.8,2,0.8,3.4v6.3c0,0.3-0.1,0.5-0.3,0.7S465.5,220.6,465.2,220.6z"/>
    </g>
    <g class="st0">
        <path class="st1" d="M470.1,204.9c-0.4,0-0.7-0.1-0.9-0.4s-0.4-0.6-0.4-0.9c0-0.4,0.1-0.7,0.4-1c0.3-0.2,0.6-0.4,0.9-0.4
            c0.3,0,0.6,0.1,0.9,0.4c0.3,0.2,0.4,0.6,0.4,1c0,0.4-0.1,0.7-0.4,0.9C470.8,204.7,470.5,204.9,470.1,204.9z M470.1,220.6
            c-0.3,0-0.5-0.1-0.7-0.3c-0.2-0.2-0.3-0.4-0.3-0.7v-11.4c0-0.3,0.1-0.5,0.3-0.7s0.4-0.3,0.7-0.3c0.3,0,0.5,0.1,0.7,0.3
            s0.3,0.4,0.3,0.7v11.4c0,0.3-0.1,0.5-0.3,0.7C470.6,220.6,470.4,220.6,470.1,220.6z"/>
    </g>
    <g class="st0">
        <path class="st1" d="M473.6,209.5c-0.2,0-0.4-0.1-0.6-0.2c-0.2-0.2-0.2-0.3-0.2-0.6c0-0.2,0.1-0.4,0.2-0.6
            c0.2-0.2,0.4-0.2,0.6-0.2h6.2c0.2,0,0.4,0.1,0.6,0.2c0.2,0.2,0.2,0.4,0.2,0.6c0,0.2-0.1,0.4-0.2,0.6c-0.2,0.2-0.4,0.2-0.6,0.2
            H473.6z M479.6,220.6c-0.9,0-1.6-0.2-2.3-0.6c-0.7-0.4-1.2-1-1.6-1.7c-0.4-0.7-0.6-1.5-0.6-2.4v-11.9c0-0.3,0.1-0.5,0.3-0.7
            c0.2-0.2,0.4-0.3,0.7-0.3s0.5,0.1,0.7,0.3s0.3,0.4,0.3,0.7V216c0,0.8,0.2,1.5,0.7,2c0.5,0.5,1.1,0.8,1.9,0.8h0.7
            c0.3,0,0.5,0.1,0.6,0.3c0.2,0.2,0.2,0.4,0.2,0.7s-0.1,0.5-0.3,0.7c-0.2,0.2-0.4,0.3-0.7,0.3H479.6z"/>
    </g>
    <g class="st0">
        <path class="st1" d="M488.2,220.8c-1.3,0-2.4-0.3-3.5-0.9c-1-0.6-1.8-1.4-2.4-2.4c-0.6-1-0.9-2.2-0.9-3.5c0-1.3,0.3-2.5,0.9-3.5
            c0.6-1,1.4-1.8,2.4-2.4c1-0.6,2.2-0.9,3.5-0.9s2.4,0.3,3.5,0.9s1.8,1.4,2.4,2.4c0.6,1,0.9,2.2,0.9,3.5c0,1.3-0.3,2.4-0.9,3.5
            c-0.6,1-1.4,1.8-2.4,2.4C490.6,220.5,489.5,220.8,488.2,220.8z M488.2,219.1c0.9,0,1.8-0.2,2.5-0.7c0.7-0.4,1.3-1,1.7-1.8
            c0.4-0.8,0.6-1.6,0.6-2.6s-0.2-1.8-0.6-2.6c-0.4-0.8-1-1.4-1.7-1.8c-0.7-0.4-1.6-0.7-2.5-0.7s-1.8,0.2-2.5,0.7s-1.3,1-1.8,1.8
            c-0.4,0.8-0.6,1.6-0.6,2.6s0.2,1.8,0.6,2.6c0.4,0.8,1,1.4,1.8,1.8C486.4,218.8,487.3,219.1,488.2,219.1z"/>
    </g>
    <g class="st0">
        <path class="st1" d="M498.2,220.6c-0.3,0-0.5-0.1-0.7-0.2c-0.2-0.2-0.2-0.4-0.2-0.7v-11.4c0-0.3,0.1-0.5,0.2-0.7
            c0.2-0.2,0.4-0.2,0.7-0.2c0.3,0,0.5,0.1,0.7,0.2c0.2,0.2,0.2,0.4,0.2,0.7v11.4c0,0.3-0.1,0.5-0.2,0.7
            C498.8,220.6,498.5,220.6,498.2,220.6z M498.1,212.5c0-1,0.3-1.9,0.8-2.7s1.1-1.4,1.9-1.9c0.8-0.5,1.6-0.7,2.6-0.7
            c0.7,0,1.3,0.1,1.7,0.3c0.4,0.2,0.6,0.5,0.5,0.9c-0.1,0.2-0.2,0.4-0.3,0.5s-0.3,0.1-0.6,0.1c-0.2,0-0.5,0-0.7,0
            c-0.9-0.1-1.7,0-2.4,0.3s-1.3,0.7-1.7,1.2c-0.4,0.5-0.6,1.2-0.6,2H498.1z"/>
    </g>
    <g class="st0">
        <path class="st1" d="M508.2,204.9c-0.4,0-0.7-0.1-0.9-0.4c-0.3-0.3-0.4-0.6-0.4-0.9c0-0.4,0.1-0.7,0.4-1c0.3-0.2,0.6-0.4,0.9-0.4
            c0.3,0,0.6,0.1,0.9,0.4c0.3,0.2,0.4,0.6,0.4,1c0,0.4-0.1,0.7-0.4,0.9S508.6,204.9,508.2,204.9z M508.3,220.6
            c-0.3,0-0.5-0.1-0.7-0.3c-0.2-0.2-0.3-0.4-0.3-0.7v-11.4c0-0.3,0.1-0.5,0.3-0.7c0.2-0.2,0.4-0.3,0.7-0.3c0.3,0,0.5,0.1,0.7,0.3
            c0.2,0.2,0.3,0.4,0.3,0.7v11.4c0,0.3-0.1,0.5-0.3,0.7C508.8,220.6,508.5,220.6,508.3,220.6z"/>
    </g>
    <g class="st0">
        <path class="st1" d="M513.4,220.6c-0.3,0-0.5-0.1-0.7-0.3c-0.2-0.2-0.3-0.4-0.3-0.7v-11.4c0-0.3,0.1-0.5,0.3-0.7s0.4-0.3,0.7-0.3
            c0.3,0,0.5,0.1,0.7,0.3s0.3,0.4,0.3,0.7v11.4c0,0.3-0.1,0.5-0.3,0.7C513.9,220.6,513.7,220.6,513.4,220.6z M523.9,220.6
            c-0.3,0-0.5-0.1-0.7-0.3c-0.2-0.2-0.3-0.4-0.3-0.7v-6.3c0-1-0.2-1.8-0.6-2.5c-0.4-0.6-0.9-1.1-1.6-1.5c-0.7-0.3-1.4-0.5-2.2-0.5
            c-0.8,0-1.5,0.2-2.1,0.5c-0.6,0.3-1.1,0.7-1.5,1.3c-0.4,0.5-0.6,1.1-0.6,1.8H513c0-1,0.3-1.9,0.8-2.7s1.2-1.4,2.1-1.9
            s1.8-0.7,2.9-0.7c1.1,0,2.2,0.2,3.1,0.7s1.6,1.2,2.1,2.1s0.8,2,0.8,3.4v6.3c0,0.3-0.1,0.5-0.3,0.7S524.1,220.6,523.9,220.6z"/>
    </g>
    <g class="st0">
        <path class="st1" d="M533.5,220.8c-1.3,0-2.4-0.3-3.4-0.9c-1-0.6-1.8-1.4-2.3-2.4s-0.8-2.2-0.8-3.5c0-1.3,0.3-2.5,0.9-3.5
            c0.6-1,1.4-1.8,2.4-2.4c1-0.6,2.2-0.9,3.5-0.9c1.3,0,2.5,0.3,3.5,0.9c1,0.6,1.8,1.4,2.4,2.4c0.6,1,0.9,2.2,0.9,3.5l-1.1,0.6
            c0,1.2-0.3,2.3-0.8,3.2c-0.5,0.9-1.2,1.7-2.1,2.2C535.6,220.5,534.6,220.8,533.5,220.8z M533.7,225.9c-1.3,0-2.4-0.2-3.4-0.7
            c-1-0.5-1.8-1.1-2.4-2c-0.2-0.2-0.3-0.4-0.2-0.6c0-0.2,0.1-0.4,0.4-0.6s0.4-0.2,0.7-0.1c0.3,0,0.5,0.2,0.6,0.4
            c0.5,0.6,1.1,1.1,1.8,1.4c0.7,0.4,1.6,0.5,2.6,0.5c0.9,0,1.7-0.2,2.4-0.7c0.7-0.4,1.3-1.1,1.7-1.8s0.6-1.7,0.6-2.8v-3.7l0.7-1.4
            l1.1,0.2v4.9c0,1.3-0.3,2.5-0.9,3.5c-0.6,1-1.4,1.9-2.4,2.5C536.2,225.6,535,225.9,533.7,225.9z M533.7,219.1c1,0,1.8-0.2,2.5-0.6
            c0.7-0.4,1.3-1,1.7-1.8c0.4-0.8,0.6-1.6,0.6-2.6c0-1-0.2-1.9-0.6-2.6c-0.4-0.8-1-1.4-1.7-1.8c-0.7-0.4-1.6-0.6-2.5-0.6
            s-1.8,0.2-2.5,0.6c-0.7,0.4-1.3,1-1.7,1.8c-0.4,0.8-0.6,1.6-0.6,2.6c0,1,0.2,1.9,0.6,2.6c0.4,0.8,1,1.4,1.7,1.8
            C531.9,218.8,532.7,219.1,533.7,219.1z"/>
    </g>
    <g class="st0">
        <path class="st2" d="M284.3,196.4c-0.3,0-0.5-0.1-0.7-0.3s-0.3-0.4-0.3-0.7v-17c0-0.3,0.1-0.5,0.3-0.7c0.2-0.2,0.4-0.3,0.7-0.3
            c0.4,0,0.7,0.2,0.8,0.5l8.2,16.2h-0.8l8-16.2c0.2-0.3,0.5-0.5,0.8-0.5c0.3,0,0.5,0.1,0.7,0.3c0.2,0.2,0.3,0.4,0.3,0.7v17
            c0,0.3-0.1,0.5-0.3,0.7c-0.2,0.2-0.4,0.3-0.7,0.3c-0.3,0-0.5-0.1-0.7-0.3s-0.3-0.4-0.3-0.7v-14.6l0.4,0l-7.2,14.6
            c-0.2,0.3-0.5,0.5-0.8,0.5c-0.4,0-0.7-0.2-0.9-0.6l-7.2-14.4l0.5-0.1v14.6c0,0.3-0.1,0.5-0.3,0.7
            C284.8,196.3,284.6,196.4,284.3,196.4z"/>
    </g>
    <g class="st0">
        <path class="st2" d="M311.4,196.5c-1.2,0-2.4-0.3-3.3-0.9c-1-0.6-1.8-1.4-2.3-2.4c-0.6-1-0.9-2.2-0.9-3.4c0-1.3,0.3-2.4,0.9-3.5
            c0.6-1,1.4-1.8,2.4-2.4c1-0.6,2.2-0.9,3.4-0.9c1.3,0,2.4,0.3,3.4,0.9c1,0.6,1.8,1.4,2.4,2.4c0.6,1,0.9,2.2,0.9,3.5l-0.8,0.6
            c0,1.2-0.3,2.2-0.8,3.1s-1.3,1.7-2.2,2.2C313.6,196.3,312.6,196.5,311.4,196.5z M311.6,194.8c0.9,0,1.8-0.2,2.5-0.7
            c0.7-0.4,1.3-1,1.7-1.8c0.4-0.8,0.6-1.6,0.6-2.6c0-1-0.2-1.8-0.6-2.6c-0.4-0.8-1-1.4-1.7-1.8s-1.6-0.7-2.5-0.7
            c-0.9,0-1.8,0.2-2.5,0.7s-1.3,1-1.8,1.8s-0.7,1.6-0.7,2.6c0,1,0.2,1.8,0.7,2.6s1,1.4,1.8,1.8C309.9,194.6,310.7,194.8,311.6,194.8
            z M317.4,196.4c-0.3,0-0.5-0.1-0.7-0.3c-0.2-0.2-0.3-0.4-0.3-0.7v-4.1l0.5-1.9l1.4,0.4v5.7c0,0.3-0.1,0.5-0.3,0.7
            C317.9,196.3,317.7,196.4,317.4,196.4z"/>
    </g>
    <g class="st0">
        <path class="st2" d="M322,196.4c-0.3,0-0.5-0.1-0.7-0.3c-0.2-0.2-0.3-0.4-0.3-0.7v-11.4c0-0.3,0.1-0.5,0.3-0.7
            c0.2-0.2,0.4-0.3,0.7-0.3c0.3,0,0.5,0.1,0.7,0.3c0.2,0.2,0.3,0.4,0.3,0.7v11.4c0,0.3-0.1,0.5-0.3,0.7
            C322.5,196.3,322.2,196.4,322,196.4z M332.4,196.4c-0.3,0-0.5-0.1-0.7-0.3s-0.3-0.4-0.3-0.7v-6.3c0-1-0.2-1.8-0.6-2.5
            c-0.4-0.6-0.9-1.1-1.6-1.5s-1.4-0.5-2.2-0.5c-0.8,0-1.5,0.2-2.1,0.5c-0.6,0.3-1.1,0.7-1.5,1.3c-0.4,0.5-0.6,1.1-0.6,1.8h-1.3
            c0-1,0.3-1.9,0.8-2.7c0.5-0.8,1.2-1.4,2.1-1.9c0.9-0.5,1.8-0.7,2.9-0.7c1.1,0,2.2,0.2,3.1,0.7c0.9,0.5,1.6,1.2,2.1,2.1
            c0.5,0.9,0.8,2,0.8,3.4v6.3c0,0.3-0.1,0.5-0.3,0.7S332.6,196.4,332.4,196.4z"/>
    </g>
    <g class="st0">
        <path class="st2" d="M342,196.5c-1.3,0-2.4-0.3-3.4-0.9c-1-0.6-1.8-1.4-2.3-2.4c-0.6-1-0.8-2.2-0.8-3.5c0-1.3,0.3-2.5,0.9-3.5
            c0.6-1,1.4-1.8,2.4-2.4c1-0.6,2.2-0.9,3.5-0.9c1.3,0,2.5,0.3,3.5,0.9c1,0.6,1.8,1.4,2.4,2.4c0.6,1,0.9,2.2,0.9,3.5l-1.1,0.6
            c0,1.2-0.2,2.3-0.8,3.2c-0.5,0.9-1.2,1.7-2.1,2.2C344.2,196.3,343.2,196.5,342,196.5z M342.3,201.6c-1.3,0-2.4-0.2-3.4-0.7
            s-1.8-1.1-2.4-2c-0.2-0.2-0.3-0.4-0.2-0.6c0-0.2,0.1-0.4,0.4-0.6s0.4-0.2,0.7-0.1c0.3,0,0.5,0.2,0.6,0.4c0.5,0.6,1.1,1.1,1.8,1.4
            s1.6,0.5,2.6,0.5c0.9,0,1.7-0.2,2.4-0.7s1.3-1.1,1.7-1.8c0.4-0.8,0.6-1.7,0.6-2.8V191l0.7-1.4l1.1,0.2v4.9c0,1.3-0.3,2.5-0.9,3.5
            c-0.6,1-1.4,1.9-2.4,2.5C344.7,201.3,343.6,201.6,342.3,201.6z M342.2,194.8c1,0,1.8-0.2,2.5-0.6c0.7-0.4,1.3-1,1.7-1.8
            c0.4-0.8,0.6-1.6,0.6-2.6c0-1-0.2-1.9-0.6-2.6c-0.4-0.8-1-1.4-1.7-1.8c-0.7-0.4-1.6-0.6-2.5-0.6c-1,0-1.8,0.2-2.5,0.6
            c-0.7,0.4-1.3,1-1.7,1.8c-0.4,0.8-0.6,1.6-0.6,2.6c0,1,0.2,1.9,0.6,2.6c0.4,0.8,1,1.4,1.7,1.8S341.3,194.8,342.2,194.8z"/>
    </g>
    <g class="st0">
        <path class="st2" d="M352.5,196.4c-0.3,0-0.5-0.1-0.7-0.2c-0.2-0.2-0.2-0.4-0.2-0.7v-11.4c0-0.3,0.1-0.5,0.2-0.7
            c0.2-0.2,0.4-0.2,0.7-0.2s0.5,0.1,0.7,0.2c0.2,0.2,0.2,0.4,0.2,0.7v11.4c0,0.3-0.1,0.5-0.2,0.7
            C353.1,196.3,352.8,196.4,352.5,196.4z M352.4,188.2c0-1,0.3-1.9,0.8-2.7c0.5-0.8,1.1-1.4,1.9-1.9c0.8-0.5,1.6-0.7,2.6-0.7
            c0.7,0,1.3,0.1,1.7,0.3c0.4,0.2,0.6,0.5,0.5,0.9c-0.1,0.2-0.2,0.4-0.3,0.5c-0.2,0.1-0.3,0.1-0.6,0.1c-0.2,0-0.5,0-0.7,0
            c-0.9-0.1-1.7,0-2.4,0.3s-1.3,0.7-1.7,1.2c-0.4,0.5-0.6,1.2-0.6,2H352.4z"/>
    </g>
    <g class="st0">
        <path class="st2" d="M366.8,196.5c-1.3,0-2.4-0.3-3.5-0.9c-1-0.6-1.8-1.4-2.4-2.4c-0.6-1-0.9-2.2-0.9-3.5c0-1.3,0.3-2.5,0.9-3.5
            c0.6-1,1.4-1.8,2.4-2.4c1-0.6,2.2-0.9,3.5-0.9s2.4,0.3,3.5,0.9s1.8,1.4,2.4,2.4c0.6,1,0.9,2.2,0.9,3.5c0,1.3-0.3,2.4-0.9,3.5
            c-0.6,1-1.4,1.8-2.4,2.4C369.2,196.2,368.1,196.5,366.8,196.5z M366.8,194.8c0.9,0,1.8-0.2,2.5-0.7c0.7-0.4,1.3-1,1.7-1.8
            c0.4-0.8,0.6-1.6,0.6-2.6s-0.2-1.8-0.6-2.6c-0.4-0.8-1-1.4-1.7-1.8c-0.7-0.4-1.6-0.7-2.5-0.7s-1.8,0.2-2.5,0.7s-1.3,1-1.8,1.8
            c-0.4,0.8-0.6,1.6-0.6,2.6s0.2,1.8,0.6,2.6c0.4,0.8,1,1.4,1.8,1.8C365,194.6,365.8,194.8,366.8,194.8z"/>
    </g>
    <g class="st0">
        <path class="st2" d="M380.1,196.4c-0.4,0-0.7-0.2-0.9-0.6l-5.4-11.4c-0.1-0.2-0.1-0.4,0-0.6c0.1-0.2,0.2-0.4,0.5-0.5
            c0.2-0.1,0.4-0.1,0.7,0c0.2,0.1,0.4,0.2,0.5,0.4l5.2,11.2h-1l5.1-11.2c0.1-0.2,0.3-0.4,0.5-0.4c0.2-0.1,0.5-0.1,0.7,0
            c0.2,0.1,0.4,0.3,0.5,0.5c0.1,0.2,0.1,0.4,0,0.6l-5.3,11.4C380.8,196.2,380.5,196.4,380.1,196.4z"/>
    </g>
    <g class="st0">
        <path class="st2" d="M393.4,196.5c-1.3,0-2.5-0.3-3.5-0.9c-1-0.6-1.8-1.4-2.4-2.4c-0.6-1-0.9-2.2-0.9-3.5c0-1.3,0.3-2.5,0.8-3.5
            c0.5-1,1.3-1.8,2.2-2.4c1-0.6,2.1-0.9,3.3-0.9c1.2,0,2.3,0.3,3.2,0.8c0.9,0.6,1.6,1.3,2.1,2.3c0.5,1,0.8,2.1,0.8,3.4
            c0,0.3-0.1,0.5-0.2,0.6c-0.2,0.2-0.4,0.2-0.6,0.2h-10.3v-1.6h10.5l-1,0.8c0-0.9-0.2-1.8-0.5-2.5s-0.9-1.3-1.5-1.7
            c-0.7-0.4-1.4-0.6-2.3-0.6c-0.9,0-1.7,0.2-2.4,0.7c-0.7,0.4-1.2,1-1.6,1.8c-0.4,0.8-0.6,1.6-0.6,2.6c0,1,0.2,1.9,0.6,2.6
            c0.4,0.8,1,1.4,1.8,1.8s1.6,0.7,2.6,0.7c0.6,0,1.2-0.1,1.8-0.3c0.6-0.2,1.1-0.5,1.4-0.8c0.2-0.1,0.4-0.2,0.6-0.2
            c0.2,0,0.4,0.1,0.6,0.2c0.2,0.2,0.3,0.4,0.3,0.6c0,0.2-0.1,0.4-0.3,0.6c-0.5,0.5-1.2,0.8-2,1.1C395,196.4,394.2,196.5,393.4,196.5
            z"/>
    </g>
    <g class="st0">
        <path class="st2" d="M284.3,220.6c-0.3,0-0.5-0.1-0.7-0.3s-0.3-0.4-0.3-0.7v-17c0-0.3,0.1-0.5,0.3-0.7c0.2-0.2,0.4-0.3,0.7-0.3
            c0.4,0,0.7,0.2,0.8,0.5l8.2,16.2h-0.8l8-16.2c0.2-0.3,0.5-0.5,0.8-0.5c0.3,0,0.5,0.1,0.7,0.3c0.2,0.2,0.3,0.4,0.3,0.7v17
            c0,0.3-0.1,0.5-0.3,0.7c-0.2,0.2-0.4,0.3-0.7,0.3c-0.3,0-0.5-0.1-0.7-0.3s-0.3-0.4-0.3-0.7v-14.6l0.4,0l-7.2,14.6
            c-0.2,0.3-0.5,0.5-0.8,0.5c-0.4,0-0.7-0.2-0.9-0.6l-7.2-14.4l0.5-0.1v14.6c0,0.3-0.1,0.5-0.3,0.7
            C284.8,220.5,284.6,220.6,284.3,220.6z"/>
    </g>
    <g class="st0">
        <path class="st2" d="M311.4,220.8c-1.2,0-2.4-0.3-3.3-0.9c-1-0.6-1.8-1.4-2.3-2.4c-0.6-1-0.9-2.2-0.9-3.4c0-1.3,0.3-2.4,0.9-3.5
            c0.6-1,1.4-1.8,2.4-2.4c1-0.6,2.2-0.9,3.4-0.9c1.3,0,2.4,0.3,3.4,0.9c1,0.6,1.8,1.4,2.4,2.4c0.6,1,0.9,2.2,0.9,3.5l-0.8,0.6
            c0,1.2-0.3,2.2-0.8,3.1s-1.3,1.7-2.2,2.2C313.6,220.5,312.6,220.8,311.4,220.8z M311.6,219.1c0.9,0,1.8-0.2,2.5-0.7
            c0.7-0.4,1.3-1,1.7-1.8c0.4-0.8,0.6-1.6,0.6-2.6c0-1-0.2-1.8-0.6-2.6c-0.4-0.8-1-1.4-1.7-1.8s-1.6-0.7-2.5-0.7
            c-0.9,0-1.8,0.2-2.5,0.7s-1.3,1-1.8,1.8s-0.7,1.6-0.7,2.6c0,1,0.2,1.8,0.7,2.6s1,1.4,1.8,1.8C309.9,218.8,310.7,219.1,311.6,219.1
            z M317.4,220.6c-0.3,0-0.5-0.1-0.7-0.3c-0.2-0.2-0.3-0.4-0.3-0.7v-4.1l0.5-1.9l1.4,0.4v5.7c0,0.3-0.1,0.5-0.3,0.7
            C317.9,220.6,317.7,220.6,317.4,220.6z"/>
    </g>
    <g class="st0">
        <path class="st2" d="M321.9,226.3c-0.3,0-0.5-0.1-0.7-0.3c-0.2-0.2-0.3-0.4-0.3-0.7v-11.4c0-1.3,0.3-2.4,0.9-3.4
            c0.6-1,1.4-1.8,2.4-2.4s2.1-0.9,3.4-0.9c1.3,0,2.4,0.3,3.5,0.9c1,0.6,1.8,1.4,2.4,2.4c0.6,1,0.9,2.2,0.9,3.5
            c0,1.3-0.3,2.4-0.9,3.4c-0.6,1-1.4,1.8-2.3,2.4c-1,0.6-2.1,0.9-3.3,0.9c-1.1,0-2.1-0.2-2.9-0.7c-0.9-0.5-1.6-1.1-2.1-1.8v7.1
            c0,0.3-0.1,0.5-0.3,0.7C322.4,226.2,322.2,226.3,321.9,226.3z M327.6,219.1c0.9,0,1.8-0.2,2.5-0.7c0.7-0.4,1.3-1,1.8-1.8
            c0.4-0.8,0.6-1.6,0.6-2.6c0-1-0.2-1.8-0.6-2.6c-0.4-0.8-1-1.4-1.8-1.8s-1.6-0.7-2.5-0.7c-0.9,0-1.8,0.2-2.5,0.7s-1.3,1-1.7,1.8
            s-0.6,1.6-0.6,2.6c0,1,0.2,1.8,0.6,2.6s1,1.4,1.7,1.8C325.9,218.8,326.7,219.1,327.6,219.1z"/>
    </g>
    <g class="st0">
        <path class="st2" d="M337.6,226.3c-0.3,0-0.5-0.1-0.7-0.3c-0.2-0.2-0.3-0.4-0.3-0.7v-11.4c0-1.3,0.3-2.4,0.9-3.4s1.4-1.8,2.4-2.4
            s2.1-0.9,3.4-0.9c1.3,0,2.4,0.3,3.5,0.9c1,0.6,1.8,1.4,2.4,2.4c0.6,1,0.9,2.2,0.9,3.5c0,1.3-0.3,2.4-0.9,3.4
            c-0.6,1-1.4,1.8-2.3,2.4c-1,0.6-2.1,0.9-3.3,0.9c-1.1,0-2.1-0.2-2.9-0.7c-0.9-0.5-1.6-1.1-2.1-1.8v7.1c0,0.3-0.1,0.5-0.3,0.7
            C338.1,226.2,337.9,226.3,337.6,226.3z M343.4,219.1c0.9,0,1.8-0.2,2.5-0.7c0.7-0.4,1.3-1,1.8-1.8c0.4-0.8,0.6-1.6,0.6-2.6
            c0-1-0.2-1.8-0.6-2.6c-0.4-0.8-1-1.4-1.8-1.8s-1.6-0.7-2.5-0.7c-0.9,0-1.8,0.2-2.5,0.7s-1.3,1-1.7,1.8s-0.6,1.6-0.6,2.6
            c0,1,0.2,1.8,0.6,2.6s1,1.4,1.7,1.8C341.6,218.8,342.4,219.1,343.4,219.1z"/>
    </g>
    <g class="st0">
        <path class="st2" d="M353.6,204.9c-0.4,0-0.7-0.1-0.9-0.4c-0.3-0.3-0.4-0.6-0.4-0.9c0-0.4,0.1-0.7,0.4-1c0.3-0.2,0.6-0.4,0.9-0.4
            c0.3,0,0.6,0.1,0.9,0.4c0.3,0.2,0.4,0.6,0.4,1c0,0.4-0.1,0.7-0.4,0.9S353.9,204.9,353.6,204.9z M353.6,220.6
            c-0.3,0-0.5-0.1-0.7-0.3c-0.2-0.2-0.3-0.4-0.3-0.7v-11.4c0-0.3,0.1-0.5,0.3-0.7c0.2-0.2,0.4-0.3,0.7-0.3c0.3,0,0.5,0.1,0.7,0.3
            c0.2,0.2,0.3,0.4,0.3,0.7v11.4c0,0.3-0.1,0.5-0.3,0.7C354.1,220.6,353.9,220.6,353.6,220.6z"/>
    </g>
    <g class="st0">
        <path class="st2" d="M358.8,220.6c-0.3,0-0.5-0.1-0.7-0.3c-0.2-0.2-0.3-0.4-0.3-0.7v-11.4c0-0.3,0.1-0.5,0.3-0.7
            c0.2-0.2,0.4-0.3,0.7-0.3c0.3,0,0.5,0.1,0.7,0.3c0.2,0.2,0.3,0.4,0.3,0.7v11.4c0,0.3-0.1,0.5-0.3,0.7
            C359.3,220.6,359.1,220.6,358.8,220.6z M369.2,220.6c-0.3,0-0.5-0.1-0.7-0.3s-0.3-0.4-0.3-0.7v-6.3c0-1-0.2-1.8-0.6-2.5
            c-0.4-0.6-0.9-1.1-1.6-1.5s-1.4-0.5-2.2-0.5c-0.8,0-1.5,0.2-2.1,0.5c-0.6,0.3-1.1,0.7-1.5,1.3c-0.4,0.5-0.6,1.1-0.6,1.8h-1.3
            c0-1,0.3-1.9,0.8-2.7c0.5-0.8,1.2-1.4,2.1-1.9c0.9-0.5,1.8-0.7,2.9-0.7c1.1,0,2.2,0.2,3.1,0.7c0.9,0.5,1.6,1.2,2.1,2.1
            c0.5,0.9,0.8,2,0.8,3.4v6.3c0,0.3-0.1,0.5-0.3,0.7S369.5,220.6,369.2,220.6z"/>
    </g>
    <g class="st0">
        <path class="st2" d="M378.9,220.8c-1.3,0-2.4-0.3-3.4-0.9c-1-0.6-1.8-1.4-2.3-2.4s-0.8-2.2-0.8-3.5c0-1.3,0.3-2.5,0.9-3.5
            c0.6-1,1.4-1.8,2.4-2.4c1-0.6,2.2-0.9,3.5-0.9c1.3,0,2.5,0.3,3.5,0.9c1,0.6,1.8,1.4,2.4,2.4c0.6,1,0.9,2.2,0.9,3.5l-1.1,0.6
            c0,1.2-0.3,2.3-0.8,3.2c-0.5,0.9-1.2,1.7-2.1,2.2C381,220.5,380,220.8,378.9,220.8z M379.1,225.9c-1.3,0-2.4-0.2-3.4-0.7
            s-1.8-1.1-2.4-2c-0.2-0.2-0.3-0.4-0.2-0.6c0-0.2,0.1-0.4,0.4-0.6c0.2-0.1,0.4-0.2,0.7-0.1s0.5,0.2,0.6,0.4
            c0.5,0.6,1.1,1.1,1.8,1.4s1.6,0.5,2.6,0.5c0.9,0,1.7-0.2,2.4-0.7c0.7-0.4,1.3-1.1,1.7-1.8c0.4-0.8,0.6-1.7,0.6-2.8v-3.7l0.7-1.4
            l1.1,0.2v4.9c0,1.3-0.3,2.5-0.9,3.5s-1.4,1.9-2.4,2.5C381.5,225.6,380.4,225.9,379.1,225.9z M379,219.1c1,0,1.8-0.2,2.5-0.6
            s1.3-1,1.7-1.8c0.4-0.8,0.6-1.6,0.6-2.6c0-1-0.2-1.9-0.6-2.6c-0.4-0.8-1-1.4-1.7-1.8c-0.7-0.4-1.6-0.6-2.5-0.6
            c-1,0-1.8,0.2-2.5,0.6c-0.7,0.4-1.3,1-1.7,1.8c-0.4,0.8-0.6,1.6-0.6,2.6c0,1,0.2,1.9,0.6,2.6c0.4,0.8,1,1.4,1.7,1.8
            S378.1,219.1,379,219.1z"/>
        <path class="st2" d="M398.1,220.8c-1.1,0-2-0.2-2.7-0.6c-0.8-0.4-1.3-0.9-1.8-1.6c-0.4-0.7-0.6-1.5-0.6-2.4c0-1,0.3-2,1-2.9
            s1.6-1.8,2.9-2.8l2-1.6c0.7-0.5,1.2-1.1,1.6-1.7c0.3-0.6,0.5-1.2,0.5-1.8c0-0.7-0.2-1.2-0.7-1.7c-0.5-0.5-1.1-0.7-1.9-0.7
            c-0.7,0-1.3,0.2-1.8,0.7c-0.5,0.5-0.7,1-0.7,1.6c0,0.5,0.1,1,0.3,1.4c0.2,0.4,0.5,0.9,0.9,1.3l10.9,10.9c0.2,0.2,0.3,0.4,0.3,0.6
            s0,0.4-0.2,0.6c-0.4,0.4-0.8,0.4-1.2,0l-11-11c-0.5-0.5-0.9-1.1-1.2-1.7c-0.3-0.6-0.4-1.3-0.4-2c0-0.7,0.2-1.4,0.6-2
            s0.9-1,1.5-1.4c0.6-0.3,1.3-0.5,2.2-0.5c0.8,0,1.6,0.2,2.2,0.5s1.2,0.8,1.5,1.4c0.4,0.6,0.6,1.3,0.6,2.1c0,0.6-0.1,1.2-0.4,1.7
            s-0.6,1-1,1.5s-1,1-1.6,1.4l-2,1.6c-0.7,0.5-1.3,1.1-1.7,1.6s-0.8,1-1,1.5c-0.2,0.5-0.3,1-0.3,1.5c0,0.9,0.3,1.6,0.9,2.1
            c0.6,0.5,1.4,0.8,2.5,0.8c0.8,0,1.6-0.2,2.3-0.6c0.7-0.4,1.4-1,2.1-1.8l3.7-3.9c0.2-0.2,0.4-0.3,0.6-0.4c0.2,0,0.4,0,0.6,0.2
            c0.2,0.2,0.3,0.4,0.3,0.6c0,0.2-0.1,0.4-0.3,0.6l-3.7,3.9c-0.8,0.9-1.7,1.6-2.6,2.2C400.2,220.5,399.2,220.8,398.1,220.8z"/>
    </g>
    <g class="st0">
        <path class="st2" d="M417.4,220.6c-0.3,0-0.5-0.1-0.7-0.3c-0.2-0.2-0.3-0.4-0.3-0.7v-17c0-0.3,0.1-0.5,0.3-0.7
            c0.2-0.2,0.4-0.3,0.7-0.3c0.4,0,0.7,0.2,0.8,0.5l8.2,16.2h-0.8l8-16.2c0.2-0.3,0.5-0.5,0.8-0.5c0.3,0,0.5,0.1,0.7,0.3
            c0.2,0.2,0.3,0.4,0.3,0.7v17c0,0.3-0.1,0.5-0.3,0.7s-0.4,0.3-0.7,0.3c-0.3,0-0.5-0.1-0.7-0.3c-0.2-0.2-0.3-0.4-0.3-0.7v-14.6
            l0.4,0l-7.2,14.6c-0.2,0.3-0.5,0.5-0.8,0.5c-0.4,0-0.7-0.2-0.9-0.6l-7.2-14.4l0.5-0.1v14.6c0,0.3-0.1,0.5-0.3,0.7
            S417.7,220.6,417.4,220.6z"/>
    </g>
    <g class="st0">
        <path class="st2" d="M444.7,220.8c-1.3,0-2.4-0.3-3.5-0.9c-1-0.6-1.8-1.4-2.4-2.4c-0.6-1-0.9-2.2-0.9-3.5c0-1.3,0.3-2.5,0.9-3.5
            c0.6-1,1.4-1.8,2.4-2.4c1-0.6,2.2-0.9,3.5-0.9s2.4,0.3,3.5,0.9s1.8,1.4,2.4,2.4c0.6,1,0.9,2.2,0.9,3.5c0,1.3-0.3,2.4-0.9,3.5
            c-0.6,1-1.4,1.8-2.4,2.4C447.2,220.5,446,220.8,444.7,220.8z M444.7,219.1c0.9,0,1.8-0.2,2.5-0.7c0.7-0.4,1.3-1,1.7-1.8
            c0.4-0.8,0.6-1.6,0.6-2.6s-0.2-1.8-0.6-2.6c-0.4-0.8-1-1.4-1.7-1.8c-0.7-0.4-1.6-0.7-2.5-0.7s-1.8,0.2-2.5,0.7s-1.3,1-1.8,1.8
            c-0.4,0.8-0.6,1.6-0.6,2.6s0.2,1.8,0.6,2.6c0.4,0.8,1,1.4,1.8,1.8C442.9,218.8,443.8,219.1,444.7,219.1z"/>
    </g>
    <g class="st0">
        <path class="st2" d="M454.8,220.6c-0.3,0-0.5-0.1-0.7-0.3c-0.2-0.2-0.3-0.4-0.3-0.7v-11.4c0-0.3,0.1-0.5,0.3-0.7
            c0.2-0.2,0.4-0.3,0.7-0.3c0.3,0,0.5,0.1,0.7,0.3c0.2,0.2,0.3,0.4,0.3,0.7v11.4c0,0.3-0.1,0.5-0.3,0.7
            C455.3,220.6,455.1,220.6,454.8,220.6z M465.2,220.6c-0.3,0-0.5-0.1-0.7-0.3s-0.3-0.4-0.3-0.7v-6.3c0-1-0.2-1.8-0.6-2.5
            c-0.4-0.6-0.9-1.1-1.6-1.5s-1.4-0.5-2.2-0.5c-0.8,0-1.5,0.2-2.1,0.5c-0.6,0.3-1.1,0.7-1.5,1.3c-0.4,0.5-0.6,1.1-0.6,1.8h-1.3
            c0-1,0.3-1.9,0.8-2.7c0.5-0.8,1.2-1.4,2.1-1.9c0.9-0.5,1.8-0.7,2.9-0.7c1.1,0,2.2,0.2,3.1,0.7c0.9,0.5,1.6,1.2,2.1,2.1
            c0.5,0.9,0.8,2,0.8,3.4v6.3c0,0.3-0.1,0.5-0.3,0.7S465.5,220.6,465.2,220.6z"/>
    </g>
    <g class="st0">
        <path class="st2" d="M470.1,204.9c-0.4,0-0.7-0.1-0.9-0.4s-0.4-0.6-0.4-0.9c0-0.4,0.1-0.7,0.4-1c0.3-0.2,0.6-0.4,0.9-0.4
            c0.3,0,0.6,0.1,0.9,0.4c0.3,0.2,0.4,0.6,0.4,1c0,0.4-0.1,0.7-0.4,0.9C470.8,204.7,470.5,204.9,470.1,204.9z M470.1,220.6
            c-0.3,0-0.5-0.1-0.7-0.3c-0.2-0.2-0.3-0.4-0.3-0.7v-11.4c0-0.3,0.1-0.5,0.3-0.7s0.4-0.3,0.7-0.3c0.3,0,0.5,0.1,0.7,0.3
            s0.3,0.4,0.3,0.7v11.4c0,0.3-0.1,0.5-0.3,0.7C470.6,220.6,470.4,220.6,470.1,220.6z"/>
    </g>
    <g class="st0">
        <path class="st2" d="M473.6,209.5c-0.2,0-0.4-0.1-0.6-0.2c-0.2-0.2-0.2-0.3-0.2-0.6c0-0.2,0.1-0.4,0.2-0.6
            c0.2-0.2,0.4-0.2,0.6-0.2h6.2c0.2,0,0.4,0.1,0.6,0.2c0.2,0.2,0.2,0.4,0.2,0.6c0,0.2-0.1,0.4-0.2,0.6c-0.2,0.2-0.4,0.2-0.6,0.2
            H473.6z M479.6,220.6c-0.9,0-1.6-0.2-2.3-0.6c-0.7-0.4-1.2-1-1.6-1.7c-0.4-0.7-0.6-1.5-0.6-2.4v-11.9c0-0.3,0.1-0.5,0.3-0.7
            c0.2-0.2,0.4-0.3,0.7-0.3s0.5,0.1,0.7,0.3s0.3,0.4,0.3,0.7V216c0,0.8,0.2,1.5,0.7,2c0.5,0.5,1.1,0.8,1.9,0.8h0.7
            c0.3,0,0.5,0.1,0.6,0.3c0.2,0.2,0.2,0.4,0.2,0.7s-0.1,0.5-0.3,0.7c-0.2,0.2-0.4,0.3-0.7,0.3H479.6z"/>
    </g>
    <g class="st0">
        <path class="st2" d="M488.2,220.8c-1.3,0-2.4-0.3-3.5-0.9c-1-0.6-1.8-1.4-2.4-2.4c-0.6-1-0.9-2.2-0.9-3.5c0-1.3,0.3-2.5,0.9-3.5
            c0.6-1,1.4-1.8,2.4-2.4c1-0.6,2.2-0.9,3.5-0.9s2.4,0.3,3.5,0.9s1.8,1.4,2.4,2.4c0.6,1,0.9,2.2,0.9,3.5c0,1.3-0.3,2.4-0.9,3.5
            c-0.6,1-1.4,1.8-2.4,2.4C490.6,220.5,489.5,220.8,488.2,220.8z M488.2,219.1c0.9,0,1.8-0.2,2.5-0.7c0.7-0.4,1.3-1,1.7-1.8
            c0.4-0.8,0.6-1.6,0.6-2.6s-0.2-1.8-0.6-2.6c-0.4-0.8-1-1.4-1.7-1.8c-0.7-0.4-1.6-0.7-2.5-0.7s-1.8,0.2-2.5,0.7s-1.3,1-1.8,1.8
            c-0.4,0.8-0.6,1.6-0.6,2.6s0.2,1.8,0.6,2.6c0.4,0.8,1,1.4,1.8,1.8C486.4,218.8,487.3,219.1,488.2,219.1z"/>
    </g>
    <g class="st0">
        <path class="st2" d="M498.2,220.6c-0.3,0-0.5-0.1-0.7-0.2c-0.2-0.2-0.2-0.4-0.2-0.7v-11.4c0-0.3,0.1-0.5,0.2-0.7
            c0.2-0.2,0.4-0.2,0.7-0.2c0.3,0,0.5,0.1,0.7,0.2c0.2,0.2,0.2,0.4,0.2,0.7v11.4c0,0.3-0.1,0.5-0.2,0.7
            C498.8,220.6,498.5,220.6,498.2,220.6z M498.1,212.5c0-1,0.3-1.9,0.8-2.7s1.1-1.4,1.9-1.9c0.8-0.5,1.6-0.7,2.6-0.7
            c0.7,0,1.3,0.1,1.7,0.3c0.4,0.2,0.6,0.5,0.5,0.9c-0.1,0.2-0.2,0.4-0.3,0.5s-0.3,0.1-0.6,0.1c-0.2,0-0.5,0-0.7,0
            c-0.9-0.1-1.7,0-2.4,0.3s-1.3,0.7-1.7,1.2c-0.4,0.5-0.6,1.2-0.6,2H498.1z"/>
    </g>
    <g class="st0">
        <path class="st2" d="M508.2,204.9c-0.4,0-0.7-0.1-0.9-0.4c-0.3-0.3-0.4-0.6-0.4-0.9c0-0.4,0.1-0.7,0.4-1c0.3-0.2,0.6-0.4,0.9-0.4
            c0.3,0,0.6,0.1,0.9,0.4c0.3,0.2,0.4,0.6,0.4,1c0,0.4-0.1,0.7-0.4,0.9S508.6,204.9,508.2,204.9z M508.3,220.6
            c-0.3,0-0.5-0.1-0.7-0.3c-0.2-0.2-0.3-0.4-0.3-0.7v-11.4c0-0.3,0.1-0.5,0.3-0.7c0.2-0.2,0.4-0.3,0.7-0.3c0.3,0,0.5,0.1,0.7,0.3
            c0.2,0.2,0.3,0.4,0.3,0.7v11.4c0,0.3-0.1,0.5-0.3,0.7C508.8,220.6,508.5,220.6,508.3,220.6z"/>
    </g>
    <g class="st0">
        <path class="st2" d="M513.4,220.6c-0.3,0-0.5-0.1-0.7-0.3c-0.2-0.2-0.3-0.4-0.3-0.7v-11.4c0-0.3,0.1-0.5,0.3-0.7s0.4-0.3,0.7-0.3
            c0.3,0,0.5,0.1,0.7,0.3s0.3,0.4,0.3,0.7v11.4c0,0.3-0.1,0.5-0.3,0.7C513.9,220.6,513.7,220.6,513.4,220.6z M523.9,220.6
            c-0.3,0-0.5-0.1-0.7-0.3c-0.2-0.2-0.3-0.4-0.3-0.7v-6.3c0-1-0.2-1.8-0.6-2.5c-0.4-0.6-0.9-1.1-1.6-1.5c-0.7-0.3-1.4-0.5-2.2-0.5
            c-0.8,0-1.5,0.2-2.1,0.5c-0.6,0.3-1.1,0.7-1.5,1.3c-0.4,0.5-0.6,1.1-0.6,1.8H513c0-1,0.3-1.9,0.8-2.7s1.2-1.4,2.1-1.9
            s1.8-0.7,2.9-0.7c1.1,0,2.2,0.2,3.1,0.7s1.6,1.2,2.1,2.1s0.8,2,0.8,3.4v6.3c0,0.3-0.1,0.5-0.3,0.7S524.1,220.6,523.9,220.6z"/>
    </g>
    <g class="st0">
        <path class="st2" d="M533.5,220.8c-1.3,0-2.4-0.3-3.4-0.9c-1-0.6-1.8-1.4-2.3-2.4s-0.8-2.2-0.8-3.5c0-1.3,0.3-2.5,0.9-3.5
            c0.6-1,1.4-1.8,2.4-2.4c1-0.6,2.2-0.9,3.5-0.9c1.3,0,2.5,0.3,3.5,0.9c1,0.6,1.8,1.4,2.4,2.4c0.6,1,0.9,2.2,0.9,3.5l-1.1,0.6
            c0,1.2-0.3,2.3-0.8,3.2c-0.5,0.9-1.2,1.7-2.1,2.2C535.6,220.5,534.6,220.8,533.5,220.8z M533.7,225.9c-1.3,0-2.4-0.2-3.4-0.7
            c-1-0.5-1.8-1.1-2.4-2c-0.2-0.2-0.3-0.4-0.2-0.6c0-0.2,0.1-0.4,0.4-0.6s0.4-0.2,0.7-0.1c0.3,0,0.5,0.2,0.6,0.4
            c0.5,0.6,1.1,1.1,1.8,1.4c0.7,0.4,1.6,0.5,2.6,0.5c0.9,0,1.7-0.2,2.4-0.7c0.7-0.4,1.3-1.1,1.7-1.8s0.6-1.7,0.6-2.8v-3.7l0.7-1.4
            l1.1,0.2v4.9c0,1.3-0.3,2.5-0.9,3.5c-0.6,1-1.4,1.9-2.4,2.5C536.2,225.6,535,225.9,533.7,225.9z M533.7,219.1c1,0,1.8-0.2,2.5-0.6
            c0.7-0.4,1.3-1,1.7-1.8c0.4-0.8,0.6-1.6,0.6-2.6c0-1-0.2-1.9-0.6-2.6c-0.4-0.8-1-1.4-1.7-1.8c-0.7-0.4-1.6-0.6-2.5-0.6
            s-1.8,0.2-2.5,0.6c-0.7,0.4-1.3,1-1.7,1.8c-0.4,0.8-0.6,1.6-0.6,2.6c0,1,0.2,1.9,0.6,2.6c0.4,0.8,1,1.4,1.7,1.8
            C531.9,218.8,532.7,219.1,533.7,219.1z"/>
    </g>
</g>
<path class="st1" d="M407.4,87.2c-4.7,0-8.9-1.1-12.6-3.4s-6.6-5.3-8.8-9.2c-2.2-3.9-3.2-8.3-3.2-13.2s1.1-9.4,3.4-13.3
    s5.3-7,9.2-9.2c3.9-2.3,8.3-3.4,13.2-3.4s9.2,1.1,13,3.4s6.9,5.3,9.2,9.2c2.3,3.9,3.4,8.3,3.5,13.3L431,63c0,4.6-1,8.7-3.1,12.3
    c-2.1,3.7-4.9,6.5-8.4,8.7C415.9,86.1,411.9,87.2,407.4,87.2L407.4,87.2z M408.5,80.1c3.5,0,6.5-0.8,9.2-2.5s4.8-3.9,6.4-6.7
    c1.6-2.8,2.4-6,2.4-9.6s-0.8-6.8-2.4-9.6s-3.7-5.1-6.4-6.7c-2.7-1.7-5.8-2.5-9.2-2.5s-6.5,0.8-9.2,2.5s-4.9,3.9-6.5,6.7
    c-1.6,2.8-2.4,6-2.4,9.6c0,3.6,0.8,6.7,2.4,9.6c1.6,2.8,3.8,5.1,6.5,6.7S405.1,80.1,408.5,80.1z M430.2,86.7c-1.1,0-2.1-0.3-2.8-1.1
    c-0.8-0.7-1.2-1.7-1.2-2.8V67.5l1.8-8.1l6.2,2v21.4c0,1.2-0.4,2.1-1.1,2.8S431.4,86.7,430.2,86.7L430.2,86.7z"/>
<path class="st1" d="M447.2,86.7c-1.2,0-2.2-0.3-2.9-1.1c-0.7-0.7-1.1-1.7-1.1-2.8V40c0-1.2,0.4-2.2,1.1-2.9
    c0.7-0.7,1.7-1.1,2.9-1.1s2.1,0.4,2.8,1.1s1.1,1.7,1.1,2.9v42.9c0,1.2-0.4,2.1-1.1,2.8C449.4,86.4,448.4,86.7,447.2,86.7z
     M486.6,86.7c-1.2,0-2.1-0.4-2.9-1.1c-0.7-0.7-1.1-1.7-1.1-2.8V59.2c0-3.8-0.7-6.8-2.1-9.2c-1.4-2.4-3.3-4.2-5.7-5.4
    c-2.4-1.2-5.2-1.8-8.3-1.8c-2.9,0-5.5,0.6-7.8,1.7c-2.3,1.1-4.2,2.7-5.5,4.6s-2,4.2-2,6.7h-5.4c0.1-3.9,1.2-7.4,3.1-10.4
    c2-3.1,4.6-5.5,7.8-7.3c3.3-1.8,6.9-2.7,11-2.7c4.3,0,8.2,0.9,11.6,2.7c3.4,1.8,6.2,4.5,8.2,8c2,3.5,3,7.9,3,13v23.7
    c0,1.1-0.4,2-1.1,2.8S487.7,86.7,486.6,86.7L486.6,86.7z"/>
<path class="st1" d="M522.4,87.2c-4.8,0-9.1-1.1-12.8-3.3c-3.7-2.2-6.6-5.2-8.7-9.1s-3.2-8.3-3.2-13.4s1.1-9.6,3.3-13.5
    c2.2-3.9,5.3-6.9,9.1-9.1c3.9-2.2,8.3-3.3,13.3-3.3s9.3,1.1,13.2,3.3c3.9,2.2,6.9,5.2,9.1,9.1s3.3,8.4,3.4,13.5l-4.6,1.6
    c0,4.7-0.9,8.9-2.8,12.5s-4.5,6.5-7.8,8.6S526.7,87.2,522.4,87.2L522.4,87.2z M523.5,107.1c-4.7,0-8.9-0.9-12.7-2.7
    c-3.7-1.8-6.9-4.3-9.4-7.5c-0.7-0.8-1-1.7-0.8-2.6c0.1-1,0.6-1.7,1.5-2.3c0.9-0.6,1.9-0.8,3-0.7c1,0.2,1.9,0.7,2.5,1.6
    c1.7,2.2,4,3.9,6.7,5.2c2.7,1.3,5.9,1.9,9.5,1.9c3.3,0,6.3-0.8,9-2.4s4.9-3.8,6.5-6.8s2.4-6.5,2.4-10.6V66.5l2.8-6.3l4.9,1.2v19.3
    c0,4.9-1.1,9.4-3.3,13.4c-2.2,4-5.3,7.1-9.1,9.5C532.9,105.9,528.5,107.1,523.5,107.1L523.5,107.1z M523.5,80.1
    c3.5,0,6.6-0.8,9.3-2.4c2.7-1.6,4.8-3.8,6.4-6.6s2.3-6.1,2.3-9.7s-0.8-6.9-2.3-9.7c-1.5-2.8-3.7-5.1-6.4-6.7
    c-2.7-1.6-5.8-2.4-9.3-2.4s-6.7,0.8-9.4,2.4c-2.7,1.6-4.9,3.8-6.5,6.7c-1.6,2.8-2.4,6.1-2.4,9.7c0,3.6,0.8,6.9,2.4,9.7
    c1.6,2.8,3.7,5,6.5,6.6C516.8,79.3,520,80.1,523.5,80.1z"/>
<path class="st1" d="M407.4,164.6c-4.7,0-8.9-1.1-12.6-3.4s-6.6-5.3-8.8-9.2c-2.2-3.9-3.2-8.3-3.2-13.2s1.1-9.4,3.4-13.3
    c2.3-3.9,5.3-7,9.2-9.2c3.9-2.3,8.3-3.4,13.2-3.4s9.2,1.1,13,3.4s6.9,5.3,9.2,9.2c2.3,3.9,3.4,8.3,3.5,13.3l-3.1,1.6
    c0,4.6-1,8.7-3.1,12.3c-2.1,3.6-4.9,6.5-8.4,8.7S411.9,164.6,407.4,164.6L407.4,164.6z M408.5,157.6c3.5,0,6.5-0.8,9.2-2.5
    s4.8-3.9,6.4-6.7c1.6-2.8,2.4-6,2.4-9.6s-0.8-6.8-2.4-9.6c-1.6-2.8-3.7-5.1-6.4-6.7c-2.7-1.7-5.8-2.5-9.2-2.5s-6.5,0.8-9.2,2.5
    c-2.8,1.7-4.9,3.9-6.5,6.7c-1.6,2.8-2.4,6-2.4,9.6s0.8,6.7,2.4,9.6c1.6,2.9,3.8,5.1,6.5,6.7S405.1,157.6,408.5,157.6z M430.2,164.2
    c-1.1,0-2.1-0.4-2.8-1.1s-1.2-1.7-1.2-2.8v-15.3l1.8-8.1l6.2,1.9v21.4c0,1.2-0.4,2.1-1.1,2.8S431.4,164.2,430.2,164.2L430.2,164.2z"
    />
<path class="st1" d="M349.4,20.8c-9,0-17,4.8-21.5,12c-4.5-7.2-12.5-12-21.5-12c-6.8,0-13,2.7-17.5,7.1v-3.2c0-2.2-1.8-4-4-4
    s-4,1.8-4,4v58.3c0,2.2,1.8,4,4,4s4-1.8,4-4V46.6c0-9.8,7.9-17.9,17.5-17.9s17.5,8,17.5,17.9v36.5c0,2.2,1.8,4,4,4s4-1.8,4-4V46.6
    c0-9.8,7.9-17.9,17.5-17.9s17.5,8,17.5,17.9v36.5c0,2.2,1.8,4,4,4s4-1.8,4-4V46.6C374.8,32.4,363.4,20.9,349.4,20.8L349.4,20.8z"/>
<path class="st1" d="M349.4,97.9c-9,0-17,4.8-21.5,12c-4.5-7.2-12.5-12-21.5-12c-6.8,0-13,2.7-17.5,7.1v-3.2c0-2.2-1.8-4-4-4
    s-4,1.8-4,4v58.3c0,2.2,1.8,4,4,4s4-1.8,4-4v-36.5c0-9.8,7.9-17.8,17.5-17.8s17.5,8,17.5,17.8v36.5c0,2.2,1.8,4,4,4s4-1.8,4-4v-36.5
    c0-9.8,7.9-17.8,17.5-17.8s17.5,8,17.5,17.8v36.5c0,2.2,1.8,4,4,4s4-1.8,4-4v-36.5C374.8,109.5,363.4,97.9,349.4,97.9L349.4,97.9z"
    />
<path class="st1" d="M447.2,188.7c-1.2,0-2.2-0.4-2.9-1.1s-1.1-1.7-1.1-2.9v-46.1c0.1-4.8,1.2-9.2,3.5-13s5.3-6.9,9.1-9.2
    c3.8-2.3,8.2-3.4,13-3.4s9.4,1.1,13.2,3.4c3.9,2.3,6.9,5.3,9.2,9.2s3.4,8.3,3.4,13.3s-1.1,9.3-3.2,13.2s-5.1,7-8.8,9.2
    c-3.7,2.3-7.9,3.4-12.6,3.4c-4,0-7.7-0.9-11-2.6s-5.9-3.9-8-6.7v29.4c0,1.2-0.4,2.2-1.1,2.9C449.3,188.3,448.4,188.7,447.2,188.7
    L447.2,188.7z M468.9,157.6c3.5,0,6.6-0.8,9.3-2.5c2.8-1.6,4.9-3.9,6.5-6.7c1.6-2.8,2.4-6,2.4-9.6s-0.8-6.8-2.4-9.6
    c-1.6-2.8-3.7-5.1-6.5-6.7c-2.8-1.7-5.9-2.5-9.3-2.5s-6.4,0.8-9.1,2.5c-2.8,1.7-4.9,3.9-6.5,6.7c-1.5,2.8-2.3,6-2.3,9.6
    s0.8,6.7,2.3,9.6c1.5,2.9,3.7,5.1,6.4,6.7S465.4,157.6,468.9,157.6L468.9,157.6z"/>
<g>

        <linearGradient id="SVGID_1_" gradientUnits="userSpaceOnUse" x1="125.565" y1="24.4" x2="125.565" y2="238.12" gradientTransform="matrix(1 0 0 -1 0 249.89)">
        <stop  offset="0.15" style="stop-color:#4160A5"/>
        <stop  offset="0.28" style="stop-color:#486C8C"/>
        <stop  offset="0.71" style="stop-color:#61923F"/>
    </linearGradient>
    <path class="st3" d="M41.6,120.4c18.5-4,18-11.1,30.3-13.7c14.8-3.2,15.8,0.6,25.2,0.6c5.7,0,9-2.9,12.4-1.1
        c2.4,1.3,4.5,3.7,5.2,5.8c0.1,0.8,0.2,1.6,0.2,2.4c1.2,11.3,2.7,26.4,3.3,42.8c-34,0.9-59.9,12.1-77.2,33.3
        c1.8,2.3,3.7,4.6,5.7,6.8c15.7-20,39.8-30.6,71.7-31.5c0.1,3.5,0.1,7.1,0,10.7c-20.9,5.7-40.9,21.1-50.5,38.6
        c2.4,1.6,4.9,3,7.4,4.4c8-14.8,25.1-28.3,42.8-33.9c-0.3,7.6-1,15.2-2,22.7c-10.2,2.5-17.1,8.6-21.6,19.3c2.8,0.9,5.6,1.6,8.5,2.2
        c2.7-5.9,6.3-9.8,11.5-11.9c-0.9,4.6-2,9-3.3,13.3c4.8,0.7,9.7,1,14.6,1c0.9,0,1.7,0,2.6-0.1c4.5-16.8,6.4-35.1,6.8-52.8
        c5.7,1.8,10.7,5.2,15,10.2c7.5,8.8,12.2,22.3,12.8,36.1c2.9-1.1,5.7-2.2,8.4-3.5c-0.8-9.6-3.3-18.9-7.3-26.9
        c11.2,1.8,19.8,7.1,25.9,15.7c2.3-1.7,4.5-3.6,6.7-5.5c-8.7-12-21.8-18.7-38.4-19.5c-0.5-0.7-1.1-1.3-1.6-2
        c-5.9-6.9-13.3-11.4-21.5-13.5c0-6.9-0.2-13.6-0.6-20.1c32.8,2.7,57.6,17,74.1,42.6c1.9-2.4,3.8-4.8,5.5-7.3
        c-18.1-26.4-45.4-41.4-80.1-44c-0.8-11-1.8-20.9-2.6-28.9c-0.1-0.8-0.2-1.5-0.2-2.3c0,0,0,0,0,0c-0.3-2.5-0.2-5.8,0-7.4
        c1.5-2,4.2-3.1,9.2-0.9c4.7,2,11.2,6.2,23.6,3.1c10.4-2.6,10.3-1.4,21.1,2.9c11.2,4.5,35.7,6.9,46.6-1.1
        c-8.6-50.9-52.8-89.6-106.1-89.6s-100.6,41.5-106.8,95C19.9,119,30.4,122.9,41.6,120.4z"/>

        <linearGradient id="SVGID_00000119819812105815289390000008694029596445340587_" gradientUnits="userSpaceOnUse" x1="125.96" y1="2.7754" x2="125.96" y2="247.5649" gradientTransform="matrix(1 0 0 -1 0 249.89)">
        <stop  offset="0" style="stop-color:#3D599A"/>
        <stop  offset="0.19" style="stop-color:#446488"/>
        <stop  offset="1" style="stop-color:#61923F"/>
    </linearGradient>
    <path style="fill:url(#SVGID_00000119819812105815289390000008694029596445340587_);" d="M126,247.1
        c-67.5,0-122.4-54.9-122.4-122.4C3.6,57.2,58.5,2.3,126,2.3s122.4,54.9,122.4,122.4C248.4,192.2,193.4,247.1,126,247.1z M126,13.1
        c-61.5,0-111.6,50.1-111.6,111.6S64.4,236.3,126,236.3s111.6-50.1,111.6-111.6S187.5,13.1,126,13.1z"/>
    <path class="st1" d="M41.6,120.4c18.5-4,18-11.1,30.3-13.7c14.8-3.2,15.8,0.6,25.2,0.6c5.7,0,9-2.9,12.4-1.1
        c2.4,1.3,4.5,3.7,5.2,5.8c0.1,0.8,0.2,1.6,0.2,2.4c1.2,11.3,2.7,26.4,3.3,42.8c-34,0.9-59.9,12.1-77.2,33.3
        c1.8,2.3,3.7,4.6,5.7,6.8c15.7-20,39.8-30.6,71.7-31.5c0.1,3.5,0.1,7.1,0,10.7c-20.9,5.7-40.9,21.1-50.5,38.6
        c2.4,1.6,4.9,3,7.4,4.4c8-14.8,25.1-28.3,42.8-33.9c-0.3,7.6-1,15.2-2,22.7c-10.2,2.5-17.1,8.6-21.6,19.3c2.8,0.9,5.6,1.6,8.5,2.2
        c2.7-5.9,6.3-9.8,11.5-11.9c-0.9,4.6-2,9-3.3,13.3c4.8,0.7,9.7,1,14.6,1c0.9,0,1.7,0,2.6-0.1c4.5-16.8,6.4-35.1,6.8-52.8
        c5.7,1.8,10.7,5.2,15,10.2c7.5,8.8,12.2,22.3,12.8,36.1c2.9-1.1,5.7-2.2,8.4-3.5c-0.8-9.6-3.3-18.9-7.3-26.9
        c11.2,1.8,19.8,7.1,25.9,15.7c2.3-1.7,4.5-3.6,6.7-5.5c-8.7-12-21.8-18.7-38.4-19.5c-0.5-0.7-1.1-1.3-1.6-2
        c-5.9-6.9-13.3-11.4-21.5-13.5c0-6.9-0.2-13.6-0.6-20.1c32.8,2.7,57.6,17,74.1,42.6c1.9-2.4,3.8-4.8,5.5-7.3
        c-18.1-26.4-45.4-41.4-80.1-44c-0.8-11-1.8-20.9-2.6-28.9c-0.1-0.8-0.2-1.5-0.2-2.3c0,0,0,0,0,0c-0.3-2.5-0.2-5.8,0-7.4
        c1.5-2,4.2-3.1,9.2-0.9c4.7,2,11.2,6.2,23.6,3.1c10.4-2.6,10.3-1.4,21.1,2.9c11.2,4.5,35.7,6.9,46.6-1.1
        c-8.6-50.9-52.8-89.6-106.1-89.6s-100.6,41.5-106.8,95C19.9,119,30.4,122.9,41.6,120.4z"/>
    <path class="st1" d="M126,247.1c-67.5,0-122.4-54.9-122.4-122.4C3.6,57.2,58.5,2.3,126,2.3s122.4,54.9,122.4,122.4
        C248.4,192.2,193.4,247.1,126,247.1z M126,13.1c-61.5,0-111.6,50.1-111.6,111.6S64.4,236.3,126,236.3s111.6-50.1,111.6-111.6
        S187.5,13.1,126,13.1z"/>
</g>
</svg>
