<svg width="16" height="16" viewBox="0 0 16 16" fill="none" xmlns="http://www.w3.org/2000/svg">
<path fill-rule="evenodd" clip-rule="evenodd" d="M6.56714 2.61325C7.96416 1.7717 10.1679 2.96119 11.8897 4.15212C13.6114 5.34304 13.2499 5.97826 12.4764 6.33767C11.7027 6.69731 11.706 7.05194 10.5289 6.14376C9.3521 5.23558 7.68404 5.00704 6.96858 4.97432C5.89538 4.8991 5.88822 3.16155 6.56714 2.61325ZM11.9386 5.49301C11.8128 5.55582 11.6883 5.62435 11.6012 5.67379C11.4925 5.60716 11.3108 5.49015 11.1369 5.35594C9.83282 4.34961 8.01455 4.04513 7.13144 3.98734C7.1164 3.91976 7.09395 3.80131 7.09897 3.72537C7.10613 3.61695 7.10828 3.49803 7.15962 3.42328L7.16106 3.42185C7.61311 3.20215 8.17717 3.34185 8.7675 3.55606C9.6327 3.86961 10.5318 4.42292 11.3237 4.9705C11.5704 5.14125 11.7896 5.34328 11.9386 5.49301Z" fill="#E56934"/>
<path fill-rule="evenodd" clip-rule="evenodd" d="M4.54759 6.24787C5.79583 5.06841 4.60705 4.75319 2.95809 4.98029C1.30914 5.20763 1.95224 6.94017 1.06269 7.27402C0.634274 9.68286 4.59463 8.58029 4.54066 9.33181C4.57027 10.4592 4.87905 11.6888 6.25386 11.7459C7.62842 11.803 7.99618 12.7472 8.65935 13.4784C9.32251 14.2099 9.03427 11.0596 10.6794 12.4719C11.5396 13.2955 13.0039 8.90172 10.1206 9.62602C9.33995 9.66089 7.90544 9.4068 7.67236 8.22853C8.14042 5.92931 5.90496 6.56525 4.73696 6.84919C3.56896 7.13337 4.1366 6.63617 4.54759 6.24787ZM3.47774 5.92358C3.32299 6.09814 3.19714 6.26555 3.1446 6.38614C2.9975 6.72334 3.03165 7.02041 3.12812 7.25301C3.23559 7.51211 3.43809 7.78149 3.88777 7.89062C4.05708 7.93169 4.39786 7.95581 4.97218 7.81611C5.19499 7.7619 5.45839 7.69384 5.73374 7.63796C6.04084 7.57563 6.56263 7.57659 6.72741 7.57898C6.73003 7.67522 6.73003 7.86937 6.69732 8.03032C6.67105 8.15928 6.67081 8.29229 6.69636 8.42172C6.84944 9.19617 7.30651 9.73635 7.8966 10.0919C8.61159 10.5225 9.54293 10.6479 10.1653 10.6199C10.2319 10.6168 10.2983 10.6073 10.363 10.591C10.4872 10.5598 10.5973 10.5418 10.6954 10.5402C10.7269 10.5395 10.7706 10.5449 10.7971 10.549C10.805 10.5793 10.8203 10.6431 10.8241 10.6849C10.8346 10.7969 10.8258 10.9151 10.8065 11.0319C10.7924 11.1162 10.7616 11.2136 10.7248 11.3072C10.3317 11.1109 9.99881 11.0858 9.73708 11.1219C9.34377 11.1756 9.01589 11.3729 8.75678 11.6876C8.71165 11.7426 8.66938 11.8035 8.62998 11.8684C8.096 11.2707 7.43857 10.7993 6.29493 10.7518C5.95941 10.7379 5.78412 10.5466 5.69171 10.3014C5.58281 10.0122 5.54747 9.67689 5.53672 9.35164C5.55009 8.95044 5.39415 8.62996 5.07009 8.38089C4.84872 8.2111 4.39666 8.06399 3.80801 8.0191C3.40395 7.98805 2.89338 7.98089 2.44442 7.87844C2.30472 7.84644 2.15642 7.83975 2.07165 7.75689C2.25601 7.5496 2.39189 7.29361 2.49362 6.99844C2.56192 6.80023 2.61326 6.57838 2.68299 6.35987C2.73792 6.18769 2.81171 6.00501 3.09398 5.96608C3.22604 5.94793 3.35427 5.93361 3.47774 5.92358ZM11.3421 11.7301C11.3464 11.734 11.3507 11.7375 11.355 11.7414C11.3593 11.7452 11.3633 11.7492 11.3676 11.7533L11.3421 11.7301Z" fill="#E56934"/>
<path fill-rule="evenodd" clip-rule="evenodd" d="M14.89 7.31677C14.6978 6.48 13.4868 6.11725 13.1396 6.60847C12.7033 6.77014 12.4537 6.86782 12.2185 7.02614C12.3563 7.50447 14.8552 8.15235 14.89 7.31677Z" fill="#E56934"/>
</svg>
