<svg width="24" height="24" viewBox="0 0 24 24" fill="none" xmlns="http://www.w3.org/2000/svg">
    <path fill-rule="evenodd" clip-rule="evenodd"
          d="M4.81469 9.3969C3.55308 10.9386 1.26413 12.7035 0.824247 11.0966C0.384367 9.48932 1.23511 8.49708 3.61362 5.72203C5.99249 2.94699 11.7794 2.8818 12.9532 3.35606C14.1271 3.83033 11.2739 6.02938 18.0373 5.19153C21.9005 3.47177 23.1819 9.96251 23.1675 10.2469C23.1607 10.3802 20.9595 9.80848 19.877 10.2158C18.6509 10.6775 19.3816 12.0548 17.6393 11.6486C15.8916 11.2413 14.794 10.0625 13.2652 10.4411C11.9241 10.7735 11.337 10.9483 10.3111 11.491C8.11523 12.6516 7.94401 10.1345 6.98723 9.57636C6.03046 9.01827 5.11774 9.02651 4.81469 9.3969ZM11.8213 4.62806C11.865 4.99236 11.9814 5.34484 12.2067 5.67188C12.4875 6.07953 12.9614 6.5169 13.9411 6.73147C14.7099 6.90018 16.0137 6.94639 18.2207 6.67272C18.3668 6.65481 18.5097 6.61505 18.6441 6.55523C19.6968 6.08669 20.3148 6.90592 20.7518 7.69218C20.9097 7.97696 21.0487 8.29541 21.1673 8.61099C20.5111 8.5938 19.8387 8.63571 19.3512 8.81911C18.8275 9.01648 18.4757 9.29911 18.2103 9.60645C18.0853 9.75188 17.9506 9.96968 17.8431 10.161C16.9247 9.91953 16.2014 9.44848 15.4732 9.18305C14.6529 8.88394 13.8305 8.76359 12.9063 8.99248C11.41 9.36323 10.7581 9.56633 9.61326 10.1713C9.54162 10.2093 9.45099 10.2441 9.38293 10.2681C9.28801 10.1348 9.09422 9.85756 8.9907 9.68562C8.62604 9.07953 8.21231 8.56299 7.73947 8.28717C6.66664 7.66138 5.61171 7.5575 4.91858 7.70866C4.35511 7.83153 3.93601 8.1138 3.65983 8.45159C3.30269 8.88824 2.8492 9.34818 2.38926 9.71141C2.47022 9.552 2.57732 9.38436 2.70628 9.19702C3.16192 8.53612 3.83965 7.752 4.74699 6.6935C5.72096 5.55726 7.42353 5.04323 8.97207 4.79427C10.0929 4.61409 11.1482 4.56538 11.8213 4.62806Z"
          fill="#E56934"/>
</svg>
