<svg width="15" height="12" viewBox="0 0 15 12" fill="none" xmlns="http://www.w3.org/2000/svg">
<path fill-rule="evenodd" clip-rule="evenodd" d="M7.56171 1.808C7.33771 2.87714 9.20112 5.10615 10.2631 5.92549C11.3251 6.74508 13.0831 5.68167 12.2516 4.39451C11.4201 3.10758 12.0348 4.03487 11.1916 3.14102C10.3481 2.24717 10.014 2.66412 10.1573 1.60573C10.2039 0.163822 8.11646 0.613016 7.56171 1.808ZM9.14333 1.72346C9.06356 2.6529 9.33676 2.9292 9.67467 3.20526C9.82631 3.32943 10.0935 3.42734 10.4677 3.82376C10.728 4.09958 10.9181 4.26269 11.0378 4.35367C11.1015 4.45063 11.2314 4.64884 11.4158 4.93445C11.4459 4.98125 11.4729 5.02114 11.4731 5.06317C11.4734 5.13887 11.3752 5.15511 11.3033 5.18281C11.1686 5.23487 11.002 5.23893 10.8711 5.13791C10.3032 4.6997 9.48147 3.80657 8.95562 2.95881C8.80112 2.70973 8.67264 2.46687 8.59479 2.24239C8.57664 2.19009 8.55443 2.14233 8.54225 2.09863L8.54201 2.09767C8.66834 1.93003 8.86416 1.81158 9.05497 1.74519C9.08052 1.73636 9.11133 1.72919 9.14333 1.72346Z" fill="#E56934"/>
<path fill-rule="evenodd" clip-rule="evenodd" d="M5.84274 5.07558C6.93289 3.42973 4.69886 3.52644 4.8013 2.272C3.43438 0.870444 3.75916 2.30232 3.45898 1.08656C3.15856 -0.128959 1.46996 -0.189616 0.966797 1.9231C0.988289 3.80489 1.59605 3.48465 1.95545 3.97206C2.3151 4.45922 2.6019 6.41958 3.32286 6.08931C4.04381 5.7588 3.70877 4.97313 4.53933 5.57397C5.6216 6.59438 5.29898 5.89659 5.84274 5.07558ZM2.45575 1.24035C2.46698 1.26018 2.48608 1.29743 2.49277 1.32513C2.67689 2.07021 2.8751 2.2794 2.95701 2.35319C3.09981 2.48191 3.4062 2.53731 3.64214 2.56095L3.61826 2.55952C3.61826 2.55952 3.71235 2.62782 3.83581 2.73241C3.92441 3.18853 4.17874 3.54627 4.51569 3.85409C4.64608 3.97325 4.79008 4.08382 4.93169 4.19343C4.98423 4.23403 5.05826 4.2985 5.11199 4.3465C5.08668 4.39952 5.05086 4.46925 5.01313 4.52609C4.98805 4.56406 4.96345 4.60394 4.93981 4.64501C4.49587 4.36895 4.18184 4.34579 3.9791 4.36394C3.71927 4.38686 3.50554 4.48215 3.31856 4.64L3.31545 4.64262C3.26769 4.52346 3.2228 4.4074 3.19008 4.31427C3.04942 3.9157 2.89707 3.57206 2.75617 3.38125C2.60859 3.18089 2.44477 3.04238 2.2702 2.92537C2.21408 2.88788 2.10924 2.82077 2.07175 2.79689C2.0622 2.77182 2.04023 2.71188 2.02948 2.66555C1.99295 2.50746 1.97169 2.30447 1.96429 2.03988C2.05575 1.7065 2.17969 1.46364 2.34232 1.31462C2.37098 1.28835 2.40011 1.26638 2.4302 1.25062L2.45575 1.24035Z" fill="#E56934"/>
<path fill-rule="evenodd" clip-rule="evenodd" d="M2.44807 6.66484C1.54061 7.4517 3.12867 9.35618 3.81667 10.5485C4.50467 11.7409 11.7546 11.9701 12.1957 11.3371C12.2862 10.2118 9.89978 10.0633 8.97703 9.51785C8.28425 9.10854 9.22921 8.26723 9.25476 7.42233C9.26766 6.99869 8.53715 6.52872 8.28306 6.20346C7.45798 5.32131 5.45201 7.19594 4.7461 6.89934C4.04019 6.60251 3.35721 5.87678 2.44807 6.66484ZM7.6347 6.97146C7.72855 7.07057 7.84127 7.17755 7.96067 7.28716C8.03972 7.35952 8.15721 7.48012 8.23315 7.55964C8.18634 7.72681 8.08915 7.88776 8.01894 8.04299C7.87088 8.37015 7.76151 8.68155 7.73619 8.95045C7.68246 9.51594 7.84891 10.0069 8.47076 10.3744C8.65942 10.486 8.90324 10.5848 9.17476 10.6792C7.92127 10.65 6.51184 10.5187 5.49309 10.2744C5.14849 10.1918 4.7301 10.0119 4.62909 9.96728C4.28903 9.39582 3.76509 8.67702 3.42025 8.00215C3.33619 7.83761 3.26407 7.67737 3.21584 7.52454C3.20103 7.47725 3.18861 7.41039 3.18073 7.36072C3.35339 7.26854 3.50169 7.37218 3.64378 7.44764C3.88497 7.57564 4.12234 7.7163 4.36043 7.8166C4.59494 7.91522 4.87912 7.95487 5.20557 7.904C5.55494 7.84931 6.01154 7.65636 6.4913 7.42448C6.7793 7.28525 7.0821 7.13314 7.3713 7.03403C7.44748 7.00776 7.56401 6.98412 7.6347 6.97146Z" fill="#E56934"/>
<path fill-rule="evenodd" clip-rule="evenodd" d="M14.8769 8.71737C14.8468 8.73361 14.5512 10.4275 14.294 10.7181C14.0368 11.0087 13.3498 11.0839 12.9256 10.4418C12.2665 9.8954 12.0908 9.54698 10.8741 9.06793C9.01352 7.82328 10.5982 6.79593 11.3443 6.63211C12.0903 6.46853 12.8031 7.32298 13.5055 6.93922C14.6911 6.81241 15.1511 8.56883 14.8769 8.71737ZM13.9327 8.40334C13.9186 8.4425 13.9059 8.48429 13.8947 8.52871C13.8589 8.67247 13.7041 9.27426 13.5931 9.70483L13.5606 9.6757C12.8387 9.07725 12.6221 8.70352 11.3521 8.18746C11.2261 8.0905 11.1141 7.97611 11.0498 7.90543C11.1687 7.81683 11.4286 7.63247 11.5575 7.60405C11.6368 7.58662 11.7061 7.64608 11.7832 7.67546C11.9676 7.7459 12.1507 7.82805 12.3324 7.89062C12.7864 8.0468 13.2349 8.0948 13.6817 7.94459C13.7218 7.97014 13.7493 8.01838 13.7777 8.05683C13.847 8.15116 13.9024 8.3059 13.9327 8.40334Z" fill="#E56934"/>
</svg>
