<svg width="16" height="22" viewBox="0 0 16 22" fill="none" xmlns="http://www.w3.org/2000/svg">
    <path fill-rule="evenodd" clip-rule="evenodd"
          d="M10.049 4.45117C8.56167 4.65714 12.483 3.13618 8.15474 1.91863C6.21038 0.911345 2.56597 -1.77594 0.963339 4.0052C-0.639288 9.78633 4.93946 8.24675 3.87522 11.5784C3.78746 15.2544 3.20286 19.9365 4.68871 20.9535C6.17492 21.9701 5.95677 21.6534 6.37229 18.4543C6.78817 15.2547 7.40179 17.6383 8.19665 16.1814C11.9084 13.9111 9.9465 12.9776 11.3392 12.3364C12.7323 11.6956 12.8254 12.8261 14.0895 9.61475C15.354 6.40305 15.6804 7.16281 14.37 5.57379C13.0597 3.98478 11.0512 4.31254 10.049 4.45117ZM8.42376 3.59648C8.28835 3.83075 8.23319 4.04603 8.2117 4.21188C8.16083 4.61093 8.25576 4.95087 8.44453 5.24352C8.58674 5.46418 9.02268 6.1 10.2535 5.92985C10.9327 5.83564 12.3311 5.44735 13.2187 6.52341L13.597 6.98514C13.4211 7.35552 13.0866 8.08806 12.7008 9.06776C12.4221 9.77594 12.109 10.3767 11.9818 10.6113C11.7157 10.655 11.1895 10.7624 10.7152 10.9806C10.0282 11.2973 9.71044 11.6863 9.50734 12.081C9.42173 12.2472 9.35833 12.4202 9.31247 12.6044C9.25624 12.8282 9.31498 13.1152 9.11403 13.4791C8.90053 13.866 8.41301 14.2994 7.41791 14.908C7.27606 14.9947 7.15032 15.1043 7.04573 15.2318C6.7065 15.2594 6.28274 15.3328 6.02447 15.5191C5.79271 15.6864 5.44883 16.0371 5.17982 16.8903C5.17337 15.2963 5.31522 13.4587 5.36214 11.8077C5.56525 11.0623 5.53194 10.458 5.3865 9.95361C5.21492 9.35791 4.8757 8.87397 4.40967 8.45558C4.04107 8.12424 3.57038 7.83839 3.10328 7.50884C2.74615 7.25702 2.35964 6.97797 2.22459 6.43278C2.10137 5.93594 2.15618 5.28938 2.40155 4.40388C2.82638 2.87111 3.2745 2.10203 3.97373 1.93475C4.46591 1.81726 4.97922 2.00317 5.46961 2.20878C6.21791 2.52257 6.91462 2.95708 7.46806 3.244C7.55832 3.29057 7.65289 3.32782 7.75033 3.35541C7.9871 3.42203 8.22423 3.51194 8.42376 3.59648Z"
          fill="#E56934"/>
</svg>
